<svg xmlns="http://www.w3.org/2000/svg" width="885.0pt" height="1647.749907475931pt" viewBox="-230.00000000000003 -1466.865334794732 885.0 1647.749907475931">
    <style>
.line_style_1 {stroke: rgb(0, 0, 0)}
.fill_style_1 {fill: none}
</style>
    <g transform="translate(0 -1285.980762113533) scale(1,-1)">
    <rect x="-230.00000000000003" y="-1466.865334794732" width="885.0" height="1647.749907475931" fill="rgb(255, 255, 255)"/>



<polygon class="line_style_1 fill_style_1" points="-72.5 151.554, -87.5 151.554, -95.0 138.564, -87.5 125.574, -72.5 125.574, -65.0 138.564"/>
<polygon class="line_style_1 fill_style_1" points="-107.5 116.913, -115.0 103.923, -107.5 90.933, -92.5 90.933, -85.0 103.923, -92.5 116.913"/>
<polygon class="line_style_1 fill_style_1" points="-95.0 69.282, -87.5 56.292, -72.5 56.292, -65.0 69.282, -72.5 82.272, -87.5 82.272"/>
<polygon class="line_style_1 fill_style_1" points="-47.5 56.292, -32.5 56.292, -25.0 69.282, -32.5 82.272, -47.5 82.272, -55.0 69.282"/>
<polygon class="line_style_1 fill_style_1" points="-12.5 90.933, -5.0 103.923, -12.5 116.913, -27.5 116.913, -35.0 103.923, -27.5 90.933"/>
<polygon class="line_style_1 fill_style_1" points="-25.0 138.564, -32.5 151.554, -47.5 151.554, -55.0 138.564, -47.5 125.574, -32.5 125.574"/>
<polygon class="line_style_1 fill_style_1" points="-167.5 12.99, -175.0 0.0, -167.5 -12.99, -152.5 -12.99, -145.0 0.0, -152.5 12.99"/>
<polygon class="line_style_1 fill_style_1" points="-155.0 -34.641, -147.5 -47.631, -132.5 -47.631, -125.0 -34.641, -132.5 -21.651, -147.5 -21.651"/>
<polygon class="line_style_1 fill_style_1" points="-107.5 -47.631, -92.5 -47.631, -85.0 -34.641, -92.5 -21.651, -107.5 -21.651, -115.0 -34.641"/>
<polygon class="line_style_1 fill_style_1" points="-72.5 -12.99, -65.0 0.0, -72.5 12.99, -87.5 12.99, -95.0 0.0, -87.5 -12.99"/>
<polygon class="line_style_1 fill_style_1" points="-85.0 34.641, -92.5 47.631, -107.5 47.631, -115.0 34.641, -107.5 21.651, -92.5 21.651"/>
<polygon class="line_style_1 fill_style_1" points="-132.5 47.631, -147.5 47.631, -155.0 34.641, -147.5 21.651, -132.5 21.651, -125.0 34.641"/>
<polygon class="line_style_1 fill_style_1" points="-95.0 -138.564, -87.5 -151.554, -72.5 -151.554, -65.0 -138.564, -72.5 -125.574, -87.5 -125.574"/>
<polygon class="line_style_1 fill_style_1" points="-47.5 -151.554, -32.5 -151.554, -25.0 -138.564, -32.5 -125.574, -47.5 -125.574, -55.0 -138.564"/>
<polygon class="line_style_1 fill_style_1" points="-12.5 -116.913, -5.0 -103.923, -12.5 -90.933, -27.5 -90.933, -35.0 -103.923, -27.5 -116.913"/>
<polygon class="line_style_1 fill_style_1" points="-25.0 -69.282, -32.5 -56.292, -47.5 -56.292, -55.0 -69.282, -47.5 -82.272, -32.5 -82.272"/>
<polygon class="line_style_1 fill_style_1" points="-72.5 -56.292, -87.5 -56.292, -95.0 -69.282, -87.5 -82.272, -72.5 -82.272, -65.0 -69.282"/>
<polygon class="line_style_1 fill_style_1" points="-107.5 -90.933, -115.0 -103.923, -107.5 -116.913, -92.5 -116.913, -85.0 -103.923, -92.5 -90.933"/>
<polygon class="line_style_1 fill_style_1" points="72.5 -151.554, 87.5 -151.554, 95.0 -138.564, 87.5 -125.574, 72.5 -125.574, 65.0 -138.564"/>
<polygon class="line_style_1 fill_style_1" points="107.5 -116.913, 115.0 -103.923, 107.5 -90.933, 92.5 -90.933, 85.0 -103.923, 92.5 -116.913"/>
<polygon class="line_style_1 fill_style_1" points="95.0 -69.282, 87.5 -56.292, 72.5 -56.292, 65.0 -69.282, 72.5 -82.272, 87.5 -82.272"/>
<polygon class="line_style_1 fill_style_1" points="47.5 -56.292, 32.5 -56.292, 25.0 -69.282, 32.5 -82.272, 47.5 -82.272, 55.0 -69.282"/>
<polygon class="line_style_1 fill_style_1" points="12.5 -90.933, 5.0 -103.923, 12.5 -116.913, 27.5 -116.913, 35.0 -103.923, 27.5 -90.933"/>
<polygon class="line_style_1 fill_style_1" points="25.0 -138.564, 32.5 -151.554, 47.5 -151.554, 55.0 -138.564, 47.5 -125.574, 32.5 -125.574"/>
<polygon class="line_style_1 fill_style_1" points="167.5 -12.99, 175.0 0.0, 167.5 12.99, 152.5 12.99, 145.0 0.0, 152.5 -12.99"/>
<polygon class="line_style_1 fill_style_1" points="155.0 34.641, 147.5 47.631, 132.5 47.631, 125.0 34.641, 132.5 21.651, 147.5 21.651"/>
<polygon class="line_style_1 fill_style_1" points="107.5 47.631, 92.5 47.631, 85.0 34.641, 92.5 21.651, 107.5 21.651, 115.0 34.641"/>
<polygon class="line_style_1 fill_style_1" points="72.5 12.99, 65.0 0.0, 72.5 -12.99, 87.5 -12.99, 95.0 0.0, 87.5 12.99"/>
<polygon class="line_style_1 fill_style_1" points="85.0 -34.641, 92.5 -47.631, 107.5 -47.631, 115.0 -34.641, 107.5 -21.651, 92.5 -21.651"/>
<polygon class="line_style_1 fill_style_1" points="132.5 -47.631, 147.5 -47.631, 155.0 -34.641, 147.5 -21.651, 132.5 -21.651, 125.0 -34.641"/>
<polygon class="line_style_1 fill_style_1" points="95.0 138.564, 87.5 151.554, 72.5 151.554, 65.0 138.564, 72.5 125.574, 87.5 125.574"/>
<polygon class="line_style_1 fill_style_1" points="47.5 151.554, 32.5 151.554, 25.0 138.564, 32.5 125.574, 47.5 125.574, 55.0 138.564"/>
<polygon class="line_style_1 fill_style_1" points="12.5 116.913, 5.0 103.923, 12.5 90.933, 27.5 90.933, 35.0 103.923, 27.5 116.913"/>
<polygon class="line_style_1 fill_style_1" points="25.0 69.282, 32.5 56.292, 47.5 56.292, 55.0 69.282, 47.5 82.272, 32.5 82.272"/>
<polygon class="line_style_1 fill_style_1" points="72.5 56.292, 87.5 56.292, 95.0 69.282, 87.5 82.272, 72.5 82.272, 65.0 69.282"/>
<polygon class="line_style_1 fill_style_1" points="107.5 90.933, 115.0 103.923, 107.5 116.913, 92.5 116.913, 85.0 103.923, 92.5 90.933"/>
<polygon class="line_style_1 fill_style_1" points="350.0 155.885, 330.0 155.885, 320.0 138.564, 330.0 121.244, 350.0 121.244, 360.0 138.564"/>
<polygon class="line_style_1 fill_style_1" points="310.0 121.244, 300.0 103.923, 310.0 86.603, 330.0 86.603, 340.0 103.923, 330.0 121.244"/>
<polygon class="line_style_1 fill_style_1" points="320.0 69.282, 330.0 51.962, 350.0 51.962, 360.0 69.282, 350.0 86.603, 330.0 86.603"/>
<polygon class="line_style_1 fill_style_1" points="370.0 51.962, 390.0 51.962, 400.0 69.282, 390.0 86.603, 370.0 86.603, 360.0 69.282"/>
<polygon class="line_style_1 fill_style_1" points="410.0 86.603, 420.0 103.923, 410.0 121.244, 390.0 121.244, 380.0 103.923, 390.0 86.603"/>
<polygon class="line_style_1 fill_style_1" points="400.0 138.564, 390.0 155.885, 370.0 155.885, 360.0 138.564, 370.0 121.244, 390.0 121.244"/>
<polygon class="line_style_1 fill_style_1" points="250.0 17.321, 240.0 0.0, 250.0 -17.321, 270.0 -17.321, 280.0 0.0, 270.0 17.321"/>
<polygon class="line_style_1 fill_style_1" points="260.0 -34.641, 270.0 -51.962, 290.0 -51.962, 300.0 -34.641, 290.0 -17.321, 270.0 -17.321"/>
<polygon class="line_style_1 fill_style_1" points="310.0 -51.962, 330.0 -51.962, 340.0 -34.641, 330.0 -17.321, 310.0 -17.321, 300.0 -34.641"/>
<polygon class="line_style_1 fill_style_1" points="350.0 -17.321, 360.0 0.0, 350.0 17.321, 330.0 17.321, 320.0 0.0, 330.0 -17.321"/>
<polygon class="line_style_1 fill_style_1" points="340.0 34.641, 330.0 51.962, 310.0 51.962, 300.0 34.641, 310.0 17.321, 330.0 17.321"/>
<polygon class="line_style_1 fill_style_1" points="290.0 51.962, 270.0 51.962, 260.0 34.641, 270.0 17.321, 290.0 17.321, 300.0 34.641"/>
<polygon class="line_style_1 fill_style_1" points="320.0 -138.564, 330.0 -155.885, 350.0 -155.885, 360.0 -138.564, 350.0 -121.244, 330.0 -121.244"/>
<polygon class="line_style_1 fill_style_1" points="370.0 -155.885, 390.0 -155.885, 400.0 -138.564, 390.0 -121.244, 370.0 -121.244, 360.0 -138.564"/>
<polygon class="line_style_1 fill_style_1" points="410.0 -121.244, 420.0 -103.923, 410.0 -86.603, 390.0 -86.603, 380.0 -103.923, 390.0 -121.244"/>
<polygon class="line_style_1 fill_style_1" points="400.0 -69.282, 390.0 -51.962, 370.0 -51.962, 360.0 -69.282, 370.0 -86.603, 390.0 -86.603"/>
<polygon class="line_style_1 fill_style_1" points="350.0 -51.962, 330.0 -51.962, 320.0 -69.282, 330.0 -86.603, 350.0 -86.603, 360.0 -69.282"/>
<polygon class="line_style_1 fill_style_1" points="310.0 -86.603, 300.0 -103.923, 310.0 -121.244, 330.0 -121.244, 340.0 -103.923, 330.0 -86.603"/>
<polygon class="line_style_1 fill_style_1" points="490.0 -155.885, 510.0 -155.885, 520.0 -138.564, 510.0 -121.244, 490.0 -121.244, 480.0 -138.564"/>
<polygon class="line_style_1 fill_style_1" points="530.0 -121.244, 540.0 -103.923, 530.0 -86.603, 510.0 -86.603, 500.0 -103.923, 510.0 -121.244"/>
<polygon class="line_style_1 fill_style_1" points="520.0 -69.282, 510.0 -51.962, 490.0 -51.962, 480.0 -69.282, 490.0 -86.603, 510.0 -86.603"/>
<polygon class="line_style_1 fill_style_1" points="470.0 -51.962, 450.0 -51.962, 440.0 -69.282, 450.0 -86.603, 470.0 -86.603, 480.0 -69.282"/>
<polygon class="line_style_1 fill_style_1" points="430.0 -86.603, 420.0 -103.923, 430.0 -121.244, 450.0 -121.244, 460.0 -103.923, 450.0 -86.603"/>
<polygon class="line_style_1 fill_style_1" points="440.0 -138.564, 450.0 -155.885, 470.0 -155.885, 480.0 -138.564, 470.0 -121.244, 450.0 -121.244"/>
<polygon class="line_style_1 fill_style_1" points="590.0 -17.321, 600.0 0.0, 590.0 17.321, 570.0 17.321, 560.0 0.0, 570.0 -17.321"/>
<polygon class="line_style_1 fill_style_1" points="580.0 34.641, 570.0 51.962, 550.0 51.962, 540.0 34.641, 550.0 17.321, 570.0 17.321"/>
<polygon class="line_style_1 fill_style_1" points="530.0 51.962, 510.0 51.962, 500.0 34.641, 510.0 17.321, 530.0 17.321, 540.0 34.641"/>
<polygon class="line_style_1 fill_style_1" points="490.0 17.321, 480.0 0.0, 490.0 -17.321, 510.0 -17.321, 520.0 0.0, 510.0 17.321"/>
<polygon class="line_style_1 fill_style_1" points="500.0 -34.641, 510.0 -51.962, 530.0 -51.962, 540.0 -34.641, 530.0 -17.321, 510.0 -17.321"/>
<polygon class="line_style_1 fill_style_1" points="550.0 -51.962, 570.0 -51.962, 580.0 -34.641, 570.0 -17.321, 550.0 -17.321, 540.0 -34.641"/>
<polygon class="line_style_1 fill_style_1" points="520.0 138.564, 510.0 155.885, 490.0 155.885, 480.0 138.564, 490.0 121.244, 510.0 121.244"/>
<polygon class="line_style_1 fill_style_1" points="470.0 155.885, 450.0 155.885, 440.0 138.564, 450.0 121.244, 470.0 121.244, 480.0 138.564"/>
<polygon class="line_style_1 fill_style_1" points="430.0 121.244, 420.0 103.923, 430.0 86.603, 450.0 86.603, 460.0 103.923, 450.0 121.244"/>
<polygon class="line_style_1 fill_style_1" points="440.0 69.282, 450.0 51.962, 470.0 51.962, 480.0 69.282, 470.0 86.603, 450.0 86.603"/>
<polygon class="line_style_1 fill_style_1" points="490.0 51.962, 510.0 51.962, 520.0 69.282, 510.0 86.603, 490.0 86.603, 480.0 69.282"/>
<polygon class="line_style_1 fill_style_1" points="530.0 86.603, 540.0 103.923, 530.0 121.244, 510.0 121.244, 500.0 103.923, 510.0 86.603"/>
<polygon class="line_style_1 fill_style_1" points="-67.5 -259.785, -92.5 -259.785, -105.0 -281.436, -92.5 -303.087, -67.5 -303.087, -55.0 -281.436"/>
<polygon class="line_style_1 fill_style_1" points="-112.5 -294.426, -125.0 -316.077, -112.5 -337.728, -87.5 -337.728, -75.0 -316.077, -87.5 -294.426"/>
<polygon class="line_style_1 fill_style_1" points="-105.0 -350.718, -92.5 -372.369, -67.5 -372.369, -55.0 -350.718, -67.5 -329.067, -92.5 -329.067"/>
<polygon class="line_style_1 fill_style_1" points="-52.5 -372.369, -27.5 -372.369, -15.0 -350.718, -27.5 -329.067, -52.5 -329.067, -65.0 -350.718"/>
<polygon class="line_style_1 fill_style_1" points="-7.5 -337.728, 5.0 -316.077, -7.5 -294.426, -32.5 -294.426, -45.0 -316.077, -32.5 -337.728"/>
<polygon class="line_style_1 fill_style_1" points="-15.0 -281.436, -27.5 -259.785, -52.5 -259.785, -65.0 -281.436, -52.5 -303.087, -27.5 -303.087"/>
<polygon class="line_style_1 fill_style_1" points="-172.5 -398.349, -185.0 -420.0, -172.5 -441.651, -147.5 -441.651, -135.0 -420.0, -147.5 -398.349"/>
<polygon class="line_style_1 fill_style_1" points="-165.0 -454.641, -152.5 -476.292, -127.5 -476.292, -115.0 -454.641, -127.5 -432.99, -152.5 -432.99"/>
<polygon class="line_style_1 fill_style_1" points="-112.5 -476.292, -87.5 -476.292, -75.0 -454.641, -87.5 -432.99, -112.5 -432.99, -125.0 -454.641"/>
<polygon class="line_style_1 fill_style_1" points="-67.5 -441.651, -55.0 -420.0, -67.5 -398.349, -92.5 -398.349, -105.0 -420.0, -92.5 -441.651"/>
<polygon class="line_style_1 fill_style_1" points="-75.0 -385.359, -87.5 -363.708, -112.5 -363.708, -125.0 -385.359, -112.5 -407.01, -87.5 -407.01"/>
<polygon class="line_style_1 fill_style_1" points="-127.5 -363.708, -152.5 -363.708, -165.0 -385.359, -152.5 -407.01, -127.5 -407.01, -115.0 -385.359"/>
<polygon class="line_style_1 fill_style_1" points="-105.0 -558.564, -92.5 -580.215, -67.5 -580.215, -55.0 -558.564, -67.5 -536.913, -92.5 -536.913"/>
<polygon class="line_style_1 fill_style_1" points="-52.5 -580.215, -27.5 -580.215, -15.0 -558.564, -27.5 -536.913, -52.5 -536.913, -65.0 -558.564"/>
<polygon class="line_style_1 fill_style_1" points="-7.5 -545.574, 5.0 -523.923, -7.5 -502.272, -32.5 -502.272, -45.0 -523.923, -32.5 -545.574"/>
<polygon class="line_style_1 fill_style_1" points="-15.0 -489.282, -27.5 -467.631, -52.5 -467.631, -65.0 -489.282, -52.5 -510.933, -27.5 -510.933"/>
<polygon class="line_style_1 fill_style_1" points="-67.5 -467.631, -92.5 -467.631, -105.0 -489.282, -92.5 -510.933, -67.5 -510.933, -55.0 -489.282"/>
<polygon class="line_style_1 fill_style_1" points="-112.5 -502.272, -125.0 -523.923, -112.5 -545.574, -87.5 -545.574, -75.0 -523.923, -87.5 -502.272"/>
<polygon class="line_style_1 fill_style_1" points="67.5 -580.215, 92.5 -580.215, 105.0 -558.564, 92.5 -536.913, 67.5 -536.913, 55.0 -558.564"/>
<polygon class="line_style_1 fill_style_1" points="112.5 -545.574, 125.0 -523.923, 112.5 -502.272, 87.5 -502.272, 75.0 -523.923, 87.5 -545.574"/>
<polygon class="line_style_1 fill_style_1" points="105.0 -489.282, 92.5 -467.631, 67.5 -467.631, 55.0 -489.282, 67.5 -510.933, 92.5 -510.933"/>
<polygon class="line_style_1 fill_style_1" points="52.5 -467.631, 27.5 -467.631, 15.0 -489.282, 27.5 -510.933, 52.5 -510.933, 65.0 -489.282"/>
<polygon class="line_style_1 fill_style_1" points="7.5 -502.272, -5.0 -523.923, 7.5 -545.574, 32.5 -545.574, 45.0 -523.923, 32.5 -502.272"/>
<polygon class="line_style_1 fill_style_1" points="15.0 -558.564, 27.5 -580.215, 52.5 -580.215, 65.0 -558.564, 52.5 -536.913, 27.5 -536.913"/>
<polygon class="line_style_1 fill_style_1" points="172.5 -441.651, 185.0 -420.0, 172.5 -398.349, 147.5 -398.349, 135.0 -420.0, 147.5 -441.651"/>
<polygon class="line_style_1 fill_style_1" points="165.0 -385.359, 152.5 -363.708, 127.5 -363.708, 115.0 -385.359, 127.5 -407.01, 152.5 -407.01"/>
<polygon class="line_style_1 fill_style_1" points="112.5 -363.708, 87.5 -363.708, 75.0 -385.359, 87.5 -407.01, 112.5 -407.01, 125.0 -385.359"/>
<polygon class="line_style_1 fill_style_1" points="67.5 -398.349, 55.0 -420.0, 67.5 -441.651, 92.5 -441.651, 105.0 -420.0, 92.5 -398.349"/>
<polygon class="line_style_1 fill_style_1" points="75.0 -454.641, 87.5 -476.292, 112.5 -476.292, 125.0 -454.641, 112.5 -432.99, 87.5 -432.99"/>
<polygon class="line_style_1 fill_style_1" points="127.5 -476.292, 152.5 -476.292, 165.0 -454.641, 152.5 -432.99, 127.5 -432.99, 115.0 -454.641"/>
<polygon class="line_style_1 fill_style_1" points="105.0 -281.436, 92.5 -259.785, 67.5 -259.785, 55.0 -281.436, 67.5 -303.087, 92.5 -303.087"/>
<polygon class="line_style_1 fill_style_1" points="52.5 -259.785, 27.5 -259.785, 15.0 -281.436, 27.5 -303.087, 52.5 -303.087, 65.0 -281.436"/>
<polygon class="line_style_1 fill_style_1" points="7.5 -294.426, -5.0 -316.077, 7.5 -337.728, 32.5 -337.728, 45.0 -316.077, 32.5 -294.426"/>
<polygon class="line_style_1 fill_style_1" points="15.0 -350.718, 27.5 -372.369, 52.5 -372.369, 65.0 -350.718, 52.5 -329.067, 27.5 -329.067"/>
<polygon class="line_style_1 fill_style_1" points="67.5 -372.369, 92.5 -372.369, 105.0 -350.718, 92.5 -329.067, 67.5 -329.067, 55.0 -350.718"/>
<polygon class="line_style_1 fill_style_1" points="112.5 -337.728, 125.0 -316.077, 112.5 -294.426, 87.5 -294.426, 75.0 -316.077, 87.5 -337.728"/>
<polygon class="line_style_1 fill_style_1" points="355.0 -255.455, 325.0 -255.455, 310.0 -281.436, 325.0 -307.417, 355.0 -307.417, 370.0 -281.436"/>
<polygon class="line_style_1 fill_style_1" points="305.0 -290.096, 290.0 -316.077, 305.0 -342.058, 335.0 -342.058, 350.0 -316.077, 335.0 -290.096"/>
<polygon class="line_style_1 fill_style_1" points="310.0 -350.718, 325.0 -376.699, 355.0 -376.699, 370.0 -350.718, 355.0 -324.737, 325.0 -324.737"/>
<polygon class="line_style_1 fill_style_1" points="365.0 -376.699, 395.0 -376.699, 410.0 -350.718, 395.0 -324.737, 365.0 -324.737, 350.0 -350.718"/>
<polygon class="line_style_1 fill_style_1" points="415.0 -342.058, 430.0 -316.077, 415.0 -290.096, 385.0 -290.096, 370.0 -316.077, 385.0 -342.058"/>
<polygon class="line_style_1 fill_style_1" points="410.0 -281.436, 395.0 -255.455, 365.0 -255.455, 350.0 -281.436, 365.0 -307.417, 395.0 -307.417"/>
<polygon class="line_style_1 fill_style_1" points="245.0 -394.019, 230.0 -420.0, 245.0 -445.981, 275.0 -445.981, 290.0 -420.0, 275.0 -394.019"/>
<polygon class="line_style_1 fill_style_1" points="250.0 -454.641, 265.0 -480.622, 295.0 -480.622, 310.0 -454.641, 295.0 -428.66, 265.0 -428.66"/>
<polygon class="line_style_1 fill_style_1" points="305.0 -480.622, 335.0 -480.622, 350.0 -454.641, 335.0 -428.66, 305.0 -428.66, 290.0 -454.641"/>
<polygon class="line_style_1 fill_style_1" points="355.0 -445.981, 370.0 -420.0, 355.0 -394.019, 325.0 -394.019, 310.0 -420.0, 325.0 -445.981"/>
<polygon class="line_style_1 fill_style_1" points="350.0 -385.359, 335.0 -359.378, 305.0 -359.378, 290.0 -385.359, 305.0 -411.34, 335.0 -411.34"/>
<polygon class="line_style_1 fill_style_1" points="295.0 -359.378, 265.0 -359.378, 250.0 -385.359, 265.0 -411.34, 295.0 -411.34, 310.0 -385.359"/>
<polygon class="line_style_1 fill_style_1" points="310.0 -558.564, 325.0 -584.545, 355.0 -584.545, 370.0 -558.564, 355.0 -532.583, 325.0 -532.583"/>
<polygon class="line_style_1 fill_style_1" points="365.0 -584.545, 395.0 -584.545, 410.0 -558.564, 395.0 -532.583, 365.0 -532.583, 350.0 -558.564"/>
<polygon class="line_style_1 fill_style_1" points="415.0 -549.904, 430.0 -523.923, 415.0 -497.942, 385.0 -497.942, 370.0 -523.923, 385.0 -549.904"/>
<polygon class="line_style_1 fill_style_1" points="410.0 -489.282, 395.0 -463.301, 365.0 -463.301, 350.0 -489.282, 365.0 -515.263, 395.0 -515.263"/>
<polygon class="line_style_1 fill_style_1" points="355.0 -463.301, 325.0 -463.301, 310.0 -489.282, 325.0 -515.263, 355.0 -515.263, 370.0 -489.282"/>
<polygon class="line_style_1 fill_style_1" points="305.0 -497.942, 290.0 -523.923, 305.0 -549.904, 335.0 -549.904, 350.0 -523.923, 335.0 -497.942"/>
<polygon class="line_style_1 fill_style_1" points="485.0 -584.545, 515.0 -584.545, 530.0 -558.564, 515.0 -532.583, 485.0 -532.583, 470.0 -558.564"/>
<polygon class="line_style_1 fill_style_1" points="535.0 -549.904, 550.0 -523.923, 535.0 -497.942, 505.0 -497.942, 490.0 -523.923, 505.0 -549.904"/>
<polygon class="line_style_1 fill_style_1" points="530.0 -489.282, 515.0 -463.301, 485.0 -463.301, 470.0 -489.282, 485.0 -515.263, 515.0 -515.263"/>
<polygon class="line_style_1 fill_style_1" points="475.0 -463.301, 445.0 -463.301, 430.0 -489.282, 445.0 -515.263, 475.0 -515.263, 490.0 -489.282"/>
<polygon class="line_style_1 fill_style_1" points="425.0 -497.942, 410.0 -523.923, 425.0 -549.904, 455.0 -549.904, 470.0 -523.923, 455.0 -497.942"/>
<polygon class="line_style_1 fill_style_1" points="430.0 -558.564, 445.0 -584.545, 475.0 -584.545, 490.0 -558.564, 475.0 -532.583, 445.0 -532.583"/>
<polygon class="line_style_1 fill_style_1" points="595.0 -445.981, 610.0 -420.0, 595.0 -394.019, 565.0 -394.019, 550.0 -420.0, 565.0 -445.981"/>
<polygon class="line_style_1 fill_style_1" points="590.0 -385.359, 575.0 -359.378, 545.0 -359.378, 530.0 -385.359, 545.0 -411.34, 575.0 -411.34"/>
<polygon class="line_style_1 fill_style_1" points="535.0 -359.378, 505.0 -359.378, 490.0 -385.359, 505.0 -411.34, 535.0 -411.34, 550.0 -385.359"/>
<polygon class="line_style_1 fill_style_1" points="485.0 -394.019, 470.0 -420.0, 485.0 -445.981, 515.0 -445.981, 530.0 -420.0, 515.0 -394.019"/>
<polygon class="line_style_1 fill_style_1" points="490.0 -454.641, 505.0 -480.622, 535.0 -480.622, 550.0 -454.641, 535.0 -428.66, 505.0 -428.66"/>
<polygon class="line_style_1 fill_style_1" points="545.0 -480.622, 575.0 -480.622, 590.0 -454.641, 575.0 -428.66, 545.0 -428.66, 530.0 -454.641"/>
<polygon class="line_style_1 fill_style_1" points="530.0 -281.436, 515.0 -255.455, 485.0 -255.455, 470.0 -281.436, 485.0 -307.417, 515.0 -307.417"/>
<polygon class="line_style_1 fill_style_1" points="475.0 -255.455, 445.0 -255.455, 430.0 -281.436, 445.0 -307.417, 475.0 -307.417, 490.0 -281.436"/>
<polygon class="line_style_1 fill_style_1" points="425.0 -290.096, 410.0 -316.077, 425.0 -342.058, 455.0 -342.058, 470.0 -316.077, 455.0 -290.096"/>
<polygon class="line_style_1 fill_style_1" points="430.0 -350.718, 445.0 -376.699, 475.0 -376.699, 490.0 -350.718, 475.0 -324.737, 445.0 -324.737"/>
<polygon class="line_style_1 fill_style_1" points="485.0 -376.699, 515.0 -376.699, 530.0 -350.718, 515.0 -324.737, 485.0 -324.737, 470.0 -350.718"/>
<polygon class="line_style_1 fill_style_1" points="535.0 -342.058, 550.0 -316.077, 535.0 -290.096, 505.0 -290.096, 490.0 -316.077, 505.0 -342.058"/>
<polygon class="line_style_1 fill_style_1" points="-62.5 -671.125, -97.5 -671.125, -115.0 -701.436, -97.5 -731.747, -62.5 -731.747, -45.0 -701.436"/>
<polygon class="line_style_1 fill_style_1" points="-117.5 -705.766, -135.0 -736.077, -117.5 -766.388, -82.5 -766.388, -65.0 -736.077, -82.5 -705.766"/>
<polygon class="line_style_1 fill_style_1" points="-115.0 -770.718, -97.5 -801.029, -62.5 -801.029, -45.0 -770.718, -62.5 -740.407, -97.5 -740.407"/>
<polygon class="line_style_1 fill_style_1" points="-57.5 -801.029, -22.5 -801.029, -5.0 -770.718, -22.5 -740.407, -57.5 -740.407, -75.0 -770.718"/>
<polygon class="line_style_1 fill_style_1" points="-2.5 -766.388, 15.0 -736.077, -2.5 -705.766, -37.5 -705.766, -55.0 -736.077, -37.5 -766.388"/>
<polygon class="line_style_1 fill_style_1" points="-5.0 -701.436, -22.5 -671.125, -57.5 -671.125, -75.0 -701.436, -57.5 -731.747, -22.5 -731.747"/>
<polygon class="line_style_1 fill_style_1" points="-177.5 -809.689, -195.0 -840.0, -177.5 -870.311, -142.5 -870.311, -125.0 -840.0, -142.5 -809.689"/>
<polygon class="line_style_1 fill_style_1" points="-175.0 -874.641, -157.5 -904.952, -122.5 -904.952, -105.0 -874.641, -122.5 -844.33, -157.5 -844.33"/>
<polygon class="line_style_1 fill_style_1" points="-117.5 -904.952, -82.5 -904.952, -65.0 -874.641, -82.5 -844.33, -117.5 -844.33, -135.0 -874.641"/>
<polygon class="line_style_1 fill_style_1" points="-62.5 -870.311, -45.0 -840.0, -62.5 -809.689, -97.5 -809.689, -115.0 -840.0, -97.5 -870.311"/>
<polygon class="line_style_1 fill_style_1" points="-65.0 -805.359, -82.5 -775.048, -117.5 -775.048, -135.0 -805.359, -117.5 -835.67, -82.5 -835.67"/>
<polygon class="line_style_1 fill_style_1" points="-122.5 -775.048, -157.5 -775.048, -175.0 -805.359, -157.5 -835.67, -122.5 -835.67, -105.0 -805.359"/>
<polygon class="line_style_1 fill_style_1" points="-115.0 -978.564, -97.5 -1008.875, -62.5 -1008.875, -45.0 -978.564, -62.5 -948.253, -97.5 -948.253"/>
<polygon class="line_style_1 fill_style_1" points="-57.5 -1008.875, -22.5 -1008.875, -5.0 -978.564, -22.5 -948.253, -57.5 -948.253, -75.0 -978.564"/>
<polygon class="line_style_1 fill_style_1" points="-2.5 -974.234, 15.0 -943.923, -2.5 -913.612, -37.5 -913.612, -55.0 -943.923, -37.5 -974.234"/>
<polygon class="line_style_1 fill_style_1" points="-5.0 -909.282, -22.5 -878.971, -57.5 -878.971, -75.0 -909.282, -57.5 -939.593, -22.5 -939.593"/>
<polygon class="line_style_1 fill_style_1" points="-62.5 -878.971, -97.5 -878.971, -115.0 -909.282, -97.5 -939.593, -62.5 -939.593, -45.0 -909.282"/>
<polygon class="line_style_1 fill_style_1" points="-117.5 -913.612, -135.0 -943.923, -117.5 -974.234, -82.5 -974.234, -65.0 -943.923, -82.5 -913.612"/>
<polygon class="line_style_1 fill_style_1" points="62.5 -1008.875, 97.5 -1008.875, 115.0 -978.564, 97.5 -948.253, 62.5 -948.253, 45.0 -978.564"/>
<polygon class="line_style_1 fill_style_1" points="117.5 -974.234, 135.0 -943.923, 117.5 -913.612, 82.5 -913.612, 65.0 -943.923, 82.5 -974.234"/>
<polygon class="line_style_1 fill_style_1" points="115.0 -909.282, 97.5 -878.971, 62.5 -878.971, 45.0 -909.282, 62.5 -939.593, 97.5 -939.593"/>
<polygon class="line_style_1 fill_style_1" points="57.5 -878.971, 22.5 -878.971, 5.0 -909.282, 22.5 -939.593, 57.5 -939.593, 75.0 -909.282"/>
<polygon class="line_style_1 fill_style_1" points="2.5 -913.612, -15.0 -943.923, 2.5 -974.234, 37.5 -974.234, 55.0 -943.923, 37.5 -913.612"/>
<polygon class="line_style_1 fill_style_1" points="5.0 -978.564, 22.5 -1008.875, 57.5 -1008.875, 75.0 -978.564, 57.5 -948.253, 22.5 -948.253"/>
<polygon class="line_style_1 fill_style_1" points="177.5 -870.311, 195.0 -840.0, 177.5 -809.689, 142.5 -809.689, 125.0 -840.0, 142.5 -870.311"/>
<polygon class="line_style_1 fill_style_1" points="175.0 -805.359, 157.5 -775.048, 122.5 -775.048, 105.0 -805.359, 122.5 -835.67, 157.5 -835.67"/>
<polygon class="line_style_1 fill_style_1" points="117.5 -775.048, 82.5 -775.048, 65.0 -805.359, 82.5 -835.67, 117.5 -835.67, 135.0 -805.359"/>
<polygon class="line_style_1 fill_style_1" points="62.5 -809.689, 45.0 -840.0, 62.5 -870.311, 97.5 -870.311, 115.0 -840.0, 97.5 -809.689"/>
<polygon class="line_style_1 fill_style_1" points="65.0 -874.641, 82.5 -904.952, 117.5 -904.952, 135.0 -874.641, 117.5 -844.33, 82.5 -844.33"/>
<polygon class="line_style_1 fill_style_1" points="122.5 -904.952, 157.5 -904.952, 175.0 -874.641, 157.5 -844.33, 122.5 -844.33, 105.0 -874.641"/>
<polygon class="line_style_1 fill_style_1" points="115.0 -701.436, 97.5 -671.125, 62.5 -671.125, 45.0 -701.436, 62.5 -731.747, 97.5 -731.747"/>
<polygon class="line_style_1 fill_style_1" points="57.5 -671.125, 22.5 -671.125, 5.0 -701.436, 22.5 -731.747, 57.5 -731.747, 75.0 -701.436"/>
<polygon class="line_style_1 fill_style_1" points="2.5 -705.766, -15.0 -736.077, 2.5 -766.388, 37.5 -766.388, 55.0 -736.077, 37.5 -705.766"/>
<polygon class="line_style_1 fill_style_1" points="5.0 -770.718, 22.5 -801.029, 57.5 -801.029, 75.0 -770.718, 57.5 -740.407, 22.5 -740.407"/>
<polygon class="line_style_1 fill_style_1" points="62.5 -801.029, 97.5 -801.029, 115.0 -770.718, 97.5 -740.407, 62.5 -740.407, 45.0 -770.718"/>
<polygon class="line_style_1 fill_style_1" points="117.5 -766.388, 135.0 -736.077, 117.5 -705.766, 82.5 -705.766, 65.0 -736.077, 82.5 -766.388"/>
<polygon class="line_style_1 fill_style_1" points="360.0 -666.795, 320.0 -666.795, 300.0 -701.436, 320.0 -736.077, 360.0 -736.077, 380.0 -701.436"/>
<polygon class="line_style_1 fill_style_1" points="300.0 -701.436, 280.0 -736.077, 300.0 -770.718, 340.0 -770.718, 360.0 -736.077, 340.0 -701.436"/>
<polygon class="line_style_1 fill_style_1" points="300.0 -770.718, 320.0 -805.359, 360.0 -805.359, 380.0 -770.718, 360.0 -736.077, 320.0 -736.077"/>
<polygon class="line_style_1 fill_style_1" points="360.0 -805.359, 400.0 -805.359, 420.0 -770.718, 400.0 -736.077, 360.0 -736.077, 340.0 -770.718"/>
<polygon class="line_style_1 fill_style_1" points="420.0 -770.718, 440.0 -736.077, 420.0 -701.436, 380.0 -701.436, 360.0 -736.077, 380.0 -770.718"/>
<polygon class="line_style_1 fill_style_1" points="420.0 -701.436, 400.0 -666.795, 360.0 -666.795, 340.0 -701.436, 360.0 -736.077, 400.0 -736.077"/>
<polygon class="line_style_1 fill_style_1" points="240.0 -805.359, 220.0 -840.0, 240.0 -874.641, 280.0 -874.641, 300.0 -840.0, 280.0 -805.359"/>
<polygon class="line_style_1 fill_style_1" points="240.0 -874.641, 260.0 -909.282, 300.0 -909.282, 320.0 -874.641, 300.0 -840.0, 260.0 -840.0"/>
<polygon class="line_style_1 fill_style_1" points="300.0 -909.282, 340.0 -909.282, 360.0 -874.641, 340.0 -840.0, 300.0 -840.0, 280.0 -874.641"/>
<polygon class="line_style_1 fill_style_1" points="360.0 -874.641, 380.0 -840.0, 360.0 -805.359, 320.0 -805.359, 300.0 -840.0, 320.0 -874.641"/>
<polygon class="line_style_1 fill_style_1" points="360.0 -805.359, 340.0 -770.718, 300.0 -770.718, 280.0 -805.359, 300.0 -840.0, 340.0 -840.0"/>
<polygon class="line_style_1 fill_style_1" points="300.0 -770.718, 260.0 -770.718, 240.0 -805.359, 260.0 -840.0, 300.0 -840.0, 320.0 -805.359"/>
<polygon class="line_style_1 fill_style_1" points="300.0 -978.564, 320.0 -1013.205, 360.0 -1013.205, 380.0 -978.564, 360.0 -943.923, 320.0 -943.923"/>
<polygon class="line_style_1 fill_style_1" points="360.0 -1013.205, 400.0 -1013.205, 420.0 -978.564, 400.0 -943.923, 360.0 -943.923, 340.0 -978.564"/>
<polygon class="line_style_1 fill_style_1" points="420.0 -978.564, 440.0 -943.923, 420.0 -909.282, 380.0 -909.282, 360.0 -943.923, 380.0 -978.564"/>
<polygon class="line_style_1 fill_style_1" points="420.0 -909.282, 400.0 -874.641, 360.0 -874.641, 340.0 -909.282, 360.0 -943.923, 400.0 -943.923"/>
<polygon class="line_style_1 fill_style_1" points="360.0 -874.641, 320.0 -874.641, 300.0 -909.282, 320.0 -943.923, 360.0 -943.923, 380.0 -909.282"/>
<polygon class="line_style_1 fill_style_1" points="300.0 -909.282, 280.0 -943.923, 300.0 -978.564, 340.0 -978.564, 360.0 -943.923, 340.0 -909.282"/>
<polygon class="line_style_1 fill_style_1" points="480.0 -1013.205, 520.0 -1013.205, 540.0 -978.564, 520.0 -943.923, 480.0 -943.923, 460.0 -978.564"/>
<polygon class="line_style_1 fill_style_1" points="540.0 -978.564, 560.0 -943.923, 540.0 -909.282, 500.0 -909.282, 480.0 -943.923, 500.0 -978.564"/>
<polygon class="line_style_1 fill_style_1" points="540.0 -909.282, 520.0 -874.641, 480.0 -874.641, 460.0 -909.282, 480.0 -943.923, 520.0 -943.923"/>
<polygon class="line_style_1 fill_style_1" points="480.0 -874.641, 440.0 -874.641, 420.0 -909.282, 440.0 -943.923, 480.0 -943.923, 500.0 -909.282"/>
<polygon class="line_style_1 fill_style_1" points="420.0 -909.282, 400.0 -943.923, 420.0 -978.564, 460.0 -978.564, 480.0 -943.923, 460.0 -909.282"/>
<polygon class="line_style_1 fill_style_1" points="420.0 -978.564, 440.0 -1013.205, 480.0 -1013.205, 500.0 -978.564, 480.0 -943.923, 440.0 -943.923"/>
<polygon class="line_style_1 fill_style_1" points="600.0 -874.641, 620.0 -840.0, 600.0 -805.359, 560.0 -805.359, 540.0 -840.0, 560.0 -874.641"/>
<polygon class="line_style_1 fill_style_1" points="600.0 -805.359, 580.0 -770.718, 540.0 -770.718, 520.0 -805.359, 540.0 -840.0, 580.0 -840.0"/>
<polygon class="line_style_1 fill_style_1" points="540.0 -770.718, 500.0 -770.718, 480.0 -805.359, 500.0 -840.0, 540.0 -840.0, 560.0 -805.359"/>
<polygon class="line_style_1 fill_style_1" points="480.0 -805.359, 460.0 -840.0, 480.0 -874.641, 520.0 -874.641, 540.0 -840.0, 520.0 -805.359"/>
<polygon class="line_style_1 fill_style_1" points="480.0 -874.641, 500.0 -909.282, 540.0 -909.282, 560.0 -874.641, 540.0 -840.0, 500.0 -840.0"/>
<polygon class="line_style_1 fill_style_1" points="540.0 -909.282, 580.0 -909.282, 600.0 -874.641, 580.0 -840.0, 540.0 -840.0, 520.0 -874.641"/>
<polygon class="line_style_1 fill_style_1" points="540.0 -701.436, 520.0 -666.795, 480.0 -666.795, 460.0 -701.436, 480.0 -736.077, 520.0 -736.077"/>
<polygon class="line_style_1 fill_style_1" points="480.0 -666.795, 440.0 -666.795, 420.0 -701.436, 440.0 -736.077, 480.0 -736.077, 500.0 -701.436"/>
<polygon class="line_style_1 fill_style_1" points="420.0 -701.436, 400.0 -736.077, 420.0 -770.718, 460.0 -770.718, 480.0 -736.077, 460.0 -701.436"/>
<polygon class="line_style_1 fill_style_1" points="420.0 -770.718, 440.0 -805.359, 480.0 -805.359, 500.0 -770.718, 480.0 -736.077, 440.0 -736.077"/>
<polygon class="line_style_1 fill_style_1" points="480.0 -805.359, 520.0 -805.359, 540.0 -770.718, 520.0 -736.077, 480.0 -736.077, 460.0 -770.718"/>
<polygon class="line_style_1 fill_style_1" points="540.0 -770.718, 560.0 -736.077, 540.0 -701.436, 500.0 -701.436, 480.0 -736.077, 500.0 -770.718"/>
<polygon class="line_style_1 fill_style_1" points="-57.5 -1082.465, -102.5 -1082.465, -125.0 -1121.436, -102.5 -1160.407, -57.5 -1160.407, -35.0 -1121.436"/>
<polygon class="line_style_1 fill_style_1" points="-122.5 -1117.106, -145.0 -1156.077, -122.5 -1195.048, -77.5 -1195.048, -55.0 -1156.077, -77.5 -1117.106"/>
<polygon class="line_style_1 fill_style_1" points="-125.0 -1190.718, -102.5 -1229.689, -57.5 -1229.689, -35.0 -1190.718, -57.5 -1151.747, -102.5 -1151.747"/>
<polygon class="line_style_1 fill_style_1" points="-62.5 -1229.689, -17.5 -1229.689, 5.0 -1190.718, -17.5 -1151.747, -62.5 -1151.747, -85.0 -1190.718"/>
<polygon class="line_style_1 fill_style_1" points="2.5 -1195.048, 25.0 -1156.077, 2.5 -1117.106, -42.5 -1117.106, -65.0 -1156.077, -42.5 -1195.048"/>
<polygon class="line_style_1 fill_style_1" points="5.0 -1121.436, -17.5 -1082.465, -62.5 -1082.465, -85.0 -1121.436, -62.5 -1160.407, -17.5 -1160.407"/>
<polygon class="line_style_1 fill_style_1" points="-182.5 -1221.029, -205.0 -1260.0, -182.5 -1298.971, -137.5 -1298.971, -115.0 -1260.0, -137.5 -1221.029"/>
<polygon class="line_style_1 fill_style_1" points="-185.0 -1294.641, -162.5 -1333.612, -117.5 -1333.612, -95.0 -1294.641, -117.5 -1255.67, -162.5 -1255.67"/>
<polygon class="line_style_1 fill_style_1" points="-122.5 -1333.612, -77.5 -1333.612, -55.0 -1294.641, -77.5 -1255.67, -122.5 -1255.67, -145.0 -1294.641"/>
<polygon class="line_style_1 fill_style_1" points="-57.5 -1298.971, -35.0 -1260.0, -57.5 -1221.029, -102.5 -1221.029, -125.0 -1260.0, -102.5 -1298.971"/>
<polygon class="line_style_1 fill_style_1" points="-55.0 -1225.359, -77.5 -1186.388, -122.5 -1186.388, -145.0 -1225.359, -122.5 -1264.33, -77.5 -1264.33"/>
<polygon class="line_style_1 fill_style_1" points="-117.5 -1186.388, -162.5 -1186.388, -185.0 -1225.359, -162.5 -1264.33, -117.5 -1264.33, -95.0 -1225.359"/>
<polygon class="line_style_1 fill_style_1" points="-125.0 -1398.564, -102.5 -1437.535, -57.5 -1437.535, -35.0 -1398.564, -57.5 -1359.593, -102.5 -1359.593"/>
<polygon class="line_style_1 fill_style_1" points="-62.5 -1437.535, -17.5 -1437.535, 5.0 -1398.564, -17.5 -1359.593, -62.5 -1359.593, -85.0 -1398.564"/>
<polygon class="line_style_1 fill_style_1" points="2.5 -1402.894, 25.0 -1363.923, 2.5 -1324.952, -42.5 -1324.952, -65.0 -1363.923, -42.5 -1402.894"/>
<polygon class="line_style_1 fill_style_1" points="5.0 -1329.282, -17.5 -1290.311, -62.5 -1290.311, -85.0 -1329.282, -62.5 -1368.253, -17.5 -1368.253"/>
<polygon class="line_style_1 fill_style_1" points="-57.5 -1290.311, -102.5 -1290.311, -125.0 -1329.282, -102.5 -1368.253, -57.5 -1368.253, -35.0 -1329.282"/>
<polygon class="line_style_1 fill_style_1" points="-122.5 -1324.952, -145.0 -1363.923, -122.5 -1402.894, -77.5 -1402.894, -55.0 -1363.923, -77.5 -1324.952"/>
<polygon class="line_style_1 fill_style_1" points="57.5 -1437.535, 102.5 -1437.535, 125.0 -1398.564, 102.5 -1359.593, 57.5 -1359.593, 35.0 -1398.564"/>
<polygon class="line_style_1 fill_style_1" points="122.5 -1402.894, 145.0 -1363.923, 122.5 -1324.952, 77.5 -1324.952, 55.0 -1363.923, 77.5 -1402.894"/>
<polygon class="line_style_1 fill_style_1" points="125.0 -1329.282, 102.5 -1290.311, 57.5 -1290.311, 35.0 -1329.282, 57.5 -1368.253, 102.5 -1368.253"/>
<polygon class="line_style_1 fill_style_1" points="62.5 -1290.311, 17.5 -1290.311, -5.0 -1329.282, 17.5 -1368.253, 62.5 -1368.253, 85.0 -1329.282"/>
<polygon class="line_style_1 fill_style_1" points="-2.5 -1324.952, -25.0 -1363.923, -2.5 -1402.894, 42.5 -1402.894, 65.0 -1363.923, 42.5 -1324.952"/>
<polygon class="line_style_1 fill_style_1" points="-5.0 -1398.564, 17.5 -1437.535, 62.5 -1437.535, 85.0 -1398.564, 62.5 -1359.593, 17.5 -1359.593"/>
<polygon class="line_style_1 fill_style_1" points="182.5 -1298.971, 205.0 -1260.0, 182.5 -1221.029, 137.5 -1221.029, 115.0 -1260.0, 137.5 -1298.971"/>
<polygon class="line_style_1 fill_style_1" points="185.0 -1225.359, 162.5 -1186.388, 117.5 -1186.388, 95.0 -1225.359, 117.5 -1264.33, 162.5 -1264.33"/>
<polygon class="line_style_1 fill_style_1" points="122.5 -1186.388, 77.5 -1186.388, 55.0 -1225.359, 77.5 -1264.33, 122.5 -1264.33, 145.0 -1225.359"/>
<polygon class="line_style_1 fill_style_1" points="57.5 -1221.029, 35.0 -1260.0, 57.5 -1298.971, 102.5 -1298.971, 125.0 -1260.0, 102.5 -1221.029"/>
<polygon class="line_style_1 fill_style_1" points="55.0 -1294.641, 77.5 -1333.612, 122.5 -1333.612, 145.0 -1294.641, 122.5 -1255.67, 77.5 -1255.67"/>
<polygon class="line_style_1 fill_style_1" points="117.5 -1333.612, 162.5 -1333.612, 185.0 -1294.641, 162.5 -1255.67, 117.5 -1255.67, 95.0 -1294.641"/>
<polygon class="line_style_1 fill_style_1" points="125.0 -1121.436, 102.5 -1082.465, 57.5 -1082.465, 35.0 -1121.436, 57.5 -1160.407, 102.5 -1160.407"/>
<polygon class="line_style_1 fill_style_1" points="62.5 -1082.465, 17.5 -1082.465, -5.0 -1121.436, 17.5 -1160.407, 62.5 -1160.407, 85.0 -1121.436"/>
<polygon class="line_style_1 fill_style_1" points="-2.5 -1117.106, -25.0 -1156.077, -2.5 -1195.048, 42.5 -1195.048, 65.0 -1156.077, 42.5 -1117.106"/>
<polygon class="line_style_1 fill_style_1" points="-5.0 -1190.718, 17.5 -1229.689, 62.5 -1229.689, 85.0 -1190.718, 62.5 -1151.747, 17.5 -1151.747"/>
<polygon class="line_style_1 fill_style_1" points="57.5 -1229.689, 102.5 -1229.689, 125.0 -1190.718, 102.5 -1151.747, 57.5 -1151.747, 35.0 -1190.718"/>
<polygon class="line_style_1 fill_style_1" points="122.5 -1195.048, 145.0 -1156.077, 122.5 -1117.106, 77.5 -1117.106, 55.0 -1156.077, 77.5 -1195.048"/>
<polygon class="line_style_1 fill_style_1" points="365.0 -1078.135, 315.0 -1078.135, 290.0 -1121.436, 315.0 -1164.737, 365.0 -1164.737, 390.0 -1121.436"/>
<polygon class="line_style_1 fill_style_1" points="295.0 -1112.776, 270.0 -1156.077, 295.0 -1199.378, 345.0 -1199.378, 370.0 -1156.077, 345.0 -1112.776"/>
<polygon class="line_style_1 fill_style_1" points="290.0 -1190.718, 315.0 -1234.019, 365.0 -1234.019, 390.0 -1190.718, 365.0 -1147.417, 315.0 -1147.417"/>
<polygon class="line_style_1 fill_style_1" points="355.0 -1234.019, 405.0 -1234.019, 430.0 -1190.718, 405.0 -1147.417, 355.0 -1147.417, 330.0 -1190.718"/>
<polygon class="line_style_1 fill_style_1" points="425.0 -1199.378, 450.0 -1156.077, 425.0 -1112.776, 375.0 -1112.776, 350.0 -1156.077, 375.0 -1199.378"/>
<polygon class="line_style_1 fill_style_1" points="430.0 -1121.436, 405.0 -1078.135, 355.0 -1078.135, 330.0 -1121.436, 355.0 -1164.737, 405.0 -1164.737"/>
<polygon class="line_style_1 fill_style_1" points="235.0 -1216.699, 210.0 -1260.0, 235.0 -1303.301, 285.0 -1303.301, 310.0 -1260.0, 285.0 -1216.699"/>
<polygon class="line_style_1 fill_style_1" points="230.0 -1294.641, 255.0 -1337.942, 305.0 -1337.942, 330.0 -1294.641, 305.0 -1251.34, 255.0 -1251.34"/>
<polygon class="line_style_1 fill_style_1" points="295.0 -1337.942, 345.0 -1337.942, 370.0 -1294.641, 345.0 -1251.34, 295.0 -1251.34, 270.0 -1294.641"/>
<polygon class="line_style_1 fill_style_1" points="365.0 -1303.301, 390.0 -1260.0, 365.0 -1216.699, 315.0 -1216.699, 290.0 -1260.0, 315.0 -1303.301"/>
<polygon class="line_style_1 fill_style_1" points="370.0 -1225.359, 345.0 -1182.058, 295.0 -1182.058, 270.0 -1225.359, 295.0 -1268.66, 345.0 -1268.66"/>
<polygon class="line_style_1 fill_style_1" points="305.0 -1182.058, 255.0 -1182.058, 230.0 -1225.359, 255.0 -1268.66, 305.0 -1268.66, 330.0 -1225.359"/>
<polygon class="line_style_1 fill_style_1" points="290.0 -1398.564, 315.0 -1441.865, 365.0 -1441.865, 390.0 -1398.564, 365.0 -1355.263, 315.0 -1355.263"/>
<polygon class="line_style_1 fill_style_1" points="355.0 -1441.865, 405.0 -1441.865, 430.0 -1398.564, 405.0 -1355.263, 355.0 -1355.263, 330.0 -1398.564"/>
<polygon class="line_style_1 fill_style_1" points="425.0 -1407.224, 450.0 -1363.923, 425.0 -1320.622, 375.0 -1320.622, 350.0 -1363.923, 375.0 -1407.224"/>
<polygon class="line_style_1 fill_style_1" points="430.0 -1329.282, 405.0 -1285.981, 355.0 -1285.981, 330.0 -1329.282, 355.0 -1372.583, 405.0 -1372.583"/>
<polygon class="line_style_1 fill_style_1" points="365.0 -1285.981, 315.0 -1285.981, 290.0 -1329.282, 315.0 -1372.583, 365.0 -1372.583, 390.0 -1329.282"/>
<polygon class="line_style_1 fill_style_1" points="295.0 -1320.622, 270.0 -1363.923, 295.0 -1407.224, 345.0 -1407.224, 370.0 -1363.923, 345.0 -1320.622"/>
<polygon class="line_style_1 fill_style_1" points="475.0 -1441.865, 525.0 -1441.865, 550.0 -1398.564, 525.0 -1355.263, 475.0 -1355.263, 450.0 -1398.564"/>
<polygon class="line_style_1 fill_style_1" points="545.0 -1407.224, 570.0 -1363.923, 545.0 -1320.622, 495.0 -1320.622, 470.0 -1363.923, 495.0 -1407.224"/>
<polygon class="line_style_1 fill_style_1" points="550.0 -1329.282, 525.0 -1285.981, 475.0 -1285.981, 450.0 -1329.282, 475.0 -1372.583, 525.0 -1372.583"/>
<polygon class="line_style_1 fill_style_1" points="485.0 -1285.981, 435.0 -1285.981, 410.0 -1329.282, 435.0 -1372.583, 485.0 -1372.583, 510.0 -1329.282"/>
<polygon class="line_style_1 fill_style_1" points="415.0 -1320.622, 390.0 -1363.923, 415.0 -1407.224, 465.0 -1407.224, 490.0 -1363.923, 465.0 -1320.622"/>
<polygon class="line_style_1 fill_style_1" points="410.0 -1398.564, 435.0 -1441.865, 485.0 -1441.865, 510.0 -1398.564, 485.0 -1355.263, 435.0 -1355.263"/>
<polygon class="line_style_1 fill_style_1" points="605.0 -1303.301, 630.0 -1260.0, 605.0 -1216.699, 555.0 -1216.699, 530.0 -1260.0, 555.0 -1303.301"/>
<polygon class="line_style_1 fill_style_1" points="610.0 -1225.359, 585.0 -1182.058, 535.0 -1182.058, 510.0 -1225.359, 535.0 -1268.66, 585.0 -1268.66"/>
<polygon class="line_style_1 fill_style_1" points="545.0 -1182.058, 495.0 -1182.058, 470.0 -1225.359, 495.0 -1268.66, 545.0 -1268.66, 570.0 -1225.359"/>
<polygon class="line_style_1 fill_style_1" points="475.0 -1216.699, 450.0 -1260.0, 475.0 -1303.301, 525.0 -1303.301, 550.0 -1260.0, 525.0 -1216.699"/>
<polygon class="line_style_1 fill_style_1" points="470.0 -1294.641, 495.0 -1337.942, 545.0 -1337.942, 570.0 -1294.641, 545.0 -1251.34, 495.0 -1251.34"/>
<polygon class="line_style_1 fill_style_1" points="535.0 -1337.942, 585.0 -1337.942, 610.0 -1294.641, 585.0 -1251.34, 535.0 -1251.34, 510.0 -1294.641"/>
<polygon class="line_style_1 fill_style_1" points="550.0 -1121.436, 525.0 -1078.135, 475.0 -1078.135, 450.0 -1121.436, 475.0 -1164.737, 525.0 -1164.737"/>
<polygon class="line_style_1 fill_style_1" points="485.0 -1078.135, 435.0 -1078.135, 410.0 -1121.436, 435.0 -1164.737, 485.0 -1164.737, 510.0 -1121.436"/>
<polygon class="line_style_1 fill_style_1" points="415.0 -1112.776, 390.0 -1156.077, 415.0 -1199.378, 465.0 -1199.378, 490.0 -1156.077, 465.0 -1112.776"/>
<polygon class="line_style_1 fill_style_1" points="410.0 -1190.718, 435.0 -1234.019, 485.0 -1234.019, 510.0 -1190.718, 485.0 -1147.417, 435.0 -1147.417"/>
<polygon class="line_style_1 fill_style_1" points="475.0 -1234.019, 525.0 -1234.019, 550.0 -1190.718, 525.0 -1147.417, 475.0 -1147.417, 450.0 -1190.718"/>
<polygon class="line_style_1 fill_style_1" points="545.0 -1199.378, 570.0 -1156.077, 545.0 -1112.776, 495.0 -1112.776, 470.0 -1156.077, 495.0 -1199.378"/>
   </g>
</svg>