<svg xmlns="http://www.w3.org/2000/svg" width="397.4864397313354pt" height="451.24277903726227pt" viewBox="-198.74321986566767 -408.74277903726227 397.4864397313354 451.24277903726227">
    <style>
.line_style_1 {stroke: none}
.line_style_2 {stroke: rgb(0, 0, 0)}
.fill_style_1 {fill: rgb(219, 180, 12)}
.fill_style_2 {fill: rgb(1, 21, 62)}
.fill_style_3 {fill: rgb(0, 0, 0)}
</style>
    <g transform="translate(0 -366.24277903726227) scale(1,-1)">
    <rect x="-198.74321986566767" y="-408.74277903726227" width="397.4864397313354" height="451.24277903726227" fill="rgb(255, 255, 255)"/>



<polygon class="line_style_1 fill_style_1" points="173.743 -82.811, 0.0 17.5, -173.743 -82.811, -173.743 -283.432, 0.0 -383.743, 173.743 -283.432"/>
<polygon class="line_style_1 fill_style_2" points="4.33 2.5, -4.33 2.5, 0.0 -5.0"/>
<polygon class="line_style_1 fill_style_2" points="-9.33 -6.16, -5.0 -13.66, -0.67 -6.16"/>
<polygon class="line_style_1 fill_style_2" points="5.0 -13.66, 9.33 -6.16, 0.67 -6.16"/>
<polygon class="line_style_1 fill_style_2" points="-20.104 -24.821, -15.774 -32.321, -11.443 -24.821"/>
<polygon class="line_style_1 fill_style_2" points="-5.774 -32.321, -1.443 -24.821, -10.104 -24.821"/>
<polygon class="line_style_1 fill_style_2" points="-6.443 -16.16, -15.104 -16.16, -10.774 -23.66"/>
<polygon class="line_style_1 fill_style_2" points="15.774 -32.321, 20.104 -24.821, 11.443 -24.821"/>
<polygon class="line_style_1 fill_style_2" points="15.104 -16.16, 6.443 -16.16, 10.774 -23.66"/>
<polygon class="line_style_1 fill_style_2" points="1.443 -24.821, 5.774 -32.321, 10.104 -24.821"/>
<polygon class="line_style_1 fill_style_2" points="-55.922 -34.984, -58.598 -43.22, -50.127 -41.42"/>
<polygon class="line_style_1 fill_style_2" points="-51.907 -50.652, -43.436 -48.851, -49.231 -42.415"/>
<polygon class="line_style_1 fill_style_2" points="-40.346 -39.341, -46.141 -32.905, -48.817 -41.141"/>
<polygon class="line_style_1 fill_style_2" points="-37.489 -66.664, -29.018 -64.864, -34.813 -58.428"/>
<polygon class="line_style_1 fill_style_2" points="-25.928 -55.353, -31.723 -48.917, -34.399 -57.154"/>
<polygon class="line_style_1 fill_style_2" points="-41.505 -50.996, -44.181 -59.233, -35.71 -57.432"/>
<polygon class="line_style_1 fill_style_2" points="-19.27 -34.861, -25.065 -28.425, -27.741 -36.661"/>
<polygon class="line_style_1 fill_style_2" points="-34.846 -30.504, -37.522 -38.74, -29.051 -36.94"/>
<polygon class="line_style_1 fill_style_2" points="-30.831 -46.172, -22.36 -44.371, -28.155 -37.935"/>
<polygon class="line_style_1 fill_style_2" points="-38.892 -103.871, -31.886 -108.961, -30.98 -100.348"/>
<polygon class="line_style_1 fill_style_2" points="-22.75 -104.894, -21.845 -96.281, -29.757 -99.803"/>
<polygon class="line_style_1 fill_style_2" points="-29.935 -90.403, -37.847 -93.925, -30.84 -99.016"/>
<polygon class="line_style_1 fill_style_2" points="-3.066 -96.13, -2.161 -87.517, -10.072 -91.039"/>
<polygon class="line_style_1 fill_style_2" points="-10.251 -81.639, -18.163 -85.161, -11.156 -90.252"/>
<polygon class="line_style_1 fill_style_2" points="-19.208 -95.107, -12.202 -100.197, -11.296 -91.584"/>
<polygon class="line_style_1 fill_style_2" points="-27.683 -68.974, -35.594 -72.496, -28.588 -77.587"/>
<polygon class="line_style_1 fill_style_2" points="-36.64 -82.442, -29.633 -87.532, -28.728 -78.919"/>
<polygon class="line_style_1 fill_style_2" points="-20.498 -83.465, -19.593 -74.852, -27.504 -78.374"/>
<polygon class="line_style_1 fill_style_2" points="31.886 -108.961, 38.892 -103.871, 30.98 -100.348"/>
<polygon class="line_style_1 fill_style_2" points="37.847 -93.925, 29.935 -90.403, 30.84 -99.016"/>
<polygon class="line_style_1 fill_style_2" points="21.845 -96.281, 22.75 -104.894, 29.757 -99.803"/>
<polygon class="line_style_1 fill_style_2" points="35.594 -72.496, 27.683 -68.974, 28.588 -77.587"/>
<polygon class="line_style_1 fill_style_2" points="19.593 -74.852, 20.498 -83.465, 27.504 -78.374"/>
<polygon class="line_style_1 fill_style_2" points="29.633 -87.532, 36.64 -82.442, 28.728 -78.919"/>
<polygon class="line_style_1 fill_style_2" points="2.161 -87.517, 3.066 -96.13, 10.072 -91.039"/>
<polygon class="line_style_1 fill_style_2" points="12.202 -100.197, 19.208 -95.107, 11.296 -91.584"/>
<polygon class="line_style_1 fill_style_2" points="18.163 -85.161, 10.251 -81.639, 11.156 -90.252"/>
<polygon class="line_style_1 fill_style_2" points="58.598 -43.22, 55.922 -34.984, 50.127 -41.42"/>
<polygon class="line_style_1 fill_style_2" points="46.141 -32.905, 40.346 -39.341, 48.817 -41.141"/>
<polygon class="line_style_1 fill_style_2" points="43.436 -48.851, 51.907 -50.652, 49.231 -42.415"/>
<polygon class="line_style_1 fill_style_2" points="25.065 -28.425, 19.27 -34.861, 27.741 -36.661"/>
<polygon class="line_style_1 fill_style_2" points="22.36 -44.371, 30.831 -46.172, 28.155 -37.935"/>
<polygon class="line_style_1 fill_style_2" points="37.522 -38.74, 34.846 -30.504, 29.051 -36.94"/>
<polygon class="line_style_1 fill_style_2" points="29.018 -64.864, 37.489 -66.664, 34.813 -58.428"/>
<polygon class="line_style_1 fill_style_2" points="44.181 -59.233, 41.505 -50.996, 35.71 -57.432"/>
<polygon class="line_style_1 fill_style_2" points="31.723 -48.917, 25.928 -55.353, 34.399 -57.154"/>
<polygon class="line_style_1 fill_style_2" points="-158.588 -86.561, -162.918 -94.061, -154.258 -94.061"/>
<polygon class="line_style_1 fill_style_2" points="-157.918 -102.721, -149.258 -102.721, -153.588 -95.221"/>
<polygon class="line_style_1 fill_style_2" points="-144.258 -94.061, -148.588 -86.561, -152.918 -94.061"/>
<polygon class="line_style_1 fill_style_2" points="-147.144 -121.381, -138.484 -121.381, -142.814 -113.881"/>
<polygon class="line_style_1 fill_style_2" points="-133.484 -112.721, -137.814 -105.221, -142.144 -112.721"/>
<polygon class="line_style_1 fill_style_2" points="-147.814 -105.221, -152.144 -112.721, -143.484 -112.721"/>
<polygon class="line_style_1 fill_style_2" points="-122.711 -94.061, -127.041 -86.561, -131.371 -94.061"/>
<polygon class="line_style_1 fill_style_2" points="-137.041 -86.561, -141.371 -94.061, -132.711 -94.061"/>
<polygon class="line_style_1 fill_style_2" points="-136.371 -102.721, -127.711 -102.721, -132.041 -95.221"/>
<polygon class="line_style_1 fill_style_2" points="-156.252 -157.483, -150.457 -163.919, -147.781 -155.682"/>
<polygon class="line_style_1 fill_style_2" points="-140.676 -161.839, -137.999 -153.603, -146.47 -155.404"/>
<polygon class="line_style_1 fill_style_2" points="-144.691 -146.172, -153.162 -147.972, -147.367 -154.408"/>
<polygon class="line_style_1 fill_style_2" points="-119.6 -157.36, -116.923 -149.123, -125.394 -150.924"/>
<polygon class="line_style_1 fill_style_2" points="-123.615 -141.692, -132.086 -143.492, -126.291 -149.928"/>
<polygon class="line_style_1 fill_style_2" points="-135.176 -153.003, -129.381 -159.439, -126.705 -151.202"/>
<polygon class="line_style_1 fill_style_2" points="-138.032 -125.679, -146.503 -127.48, -140.709 -133.916"/>
<polygon class="line_style_1 fill_style_2" points="-149.594 -136.99, -143.799 -143.426, -141.123 -135.19"/>
<polygon class="line_style_1 fill_style_2" points="-134.017 -141.347, -131.341 -133.111, -139.812 -134.911"/>
<polygon class="line_style_1 fill_style_2" points="-88.079 -177.177, -80.168 -173.655, -87.174 -168.565"/>
<polygon class="line_style_1 fill_style_2" points="-79.122 -163.71, -86.129 -158.619, -87.034 -167.232"/>
<polygon class="line_style_1 fill_style_2" points="-95.264 -162.687, -96.169 -171.3, -88.258 -167.777"/>
<polygon class="line_style_1 fill_style_2" points="-76.87 -142.281, -83.876 -137.19, -84.782 -145.803"/>
<polygon class="line_style_1 fill_style_2" points="-93.012 -141.258, -93.917 -149.871, -86.006 -146.348"/>
<polygon class="line_style_1 fill_style_2" points="-85.827 -155.748, -77.915 -152.226, -84.922 -147.136"/>
<polygon class="line_style_1 fill_style_2" points="-112.696 -150.022, -113.601 -158.635, -105.69 -155.112"/>
<polygon class="line_style_1 fill_style_2" points="-105.511 -164.512, -97.6 -160.99, -104.606 -155.9"/>
<polygon class="line_style_1 fill_style_2" points="-96.554 -151.045, -103.561 -145.954, -104.466 -154.567"/>
<polygon class="line_style_1 fill_style_2" points="-48.282 -118.427, -49.187 -109.814, -56.194 -114.905"/>
<polygon class="line_style_1 fill_style_2" points="-58.323 -105.747, -65.329 -110.837, -57.417 -114.36"/>
<polygon class="line_style_1 fill_style_2" points="-64.284 -120.783, -56.372 -124.305, -57.277 -115.692"/>
<polygon class="line_style_1 fill_style_2" points="-78.007 -96.983, -85.013 -102.074, -77.102 -105.596"/>
<polygon class="line_style_1 fill_style_2" points="-83.968 -112.019, -76.056 -115.541, -76.962 -106.928"/>
<polygon class="line_style_1 fill_style_2" points="-67.966 -109.663, -68.871 -101.051, -75.878 -106.141"/>
<polygon class="line_style_1 fill_style_2" points="-81.716 -133.448, -73.804 -136.97, -74.709 -128.357"/>
<polygon class="line_style_1 fill_style_2" points="-65.714 -131.092, -66.619 -122.48, -73.625 -127.57"/>
<polygon class="line_style_1 fill_style_2" points="-75.755 -118.412, -82.761 -123.503, -74.849 -127.025"/>
<polygon class="line_style_1 fill_style_2" points="-91.859 -62.423, -100.33 -60.623, -97.654 -68.859"/>
<polygon class="line_style_1 fill_style_2" points="-107.021 -68.054, -104.345 -76.29, -98.55 -69.855"/>
<polygon class="line_style_1 fill_style_2" points="-94.563 -78.369, -88.768 -71.934, -97.24 -70.133"/>
<polygon class="line_style_1 fill_style_2" points="-121.439 -84.067, -118.763 -92.303, -112.968 -85.867"/>
<polygon class="line_style_1 fill_style_2" points="-108.981 -94.382, -103.186 -87.946, -111.657 -86.146"/>
<polygon class="line_style_1 fill_style_2" points="-106.276 -78.436, -114.747 -76.635, -112.071 -84.871"/>
<polygon class="line_style_1 fill_style_2" points="-87.905 -98.862, -82.11 -92.426, -90.581 -90.626"/>
<polygon class="line_style_1 fill_style_2" points="-85.2 -82.916, -93.671 -81.115, -90.995 -89.351"/>
<polygon class="line_style_1 fill_style_2" points="-100.363 -88.546, -97.686 -96.783, -91.892 -90.347"/>
<polygon class="line_style_1 fill_style_2" points="-162.918 -272.182, -158.588 -279.682, -154.258 -272.182"/>
<polygon class="line_style_1 fill_style_2" points="-148.588 -279.682, -144.258 -272.182, -152.918 -272.182"/>
<polygon class="line_style_1 fill_style_2" points="-149.258 -263.522, -157.918 -263.522, -153.588 -271.022"/>
<polygon class="line_style_1 fill_style_2" points="-127.041 -279.682, -122.711 -272.182, -131.371 -272.182"/>
<polygon class="line_style_1 fill_style_2" points="-127.711 -263.522, -136.371 -263.522, -132.041 -271.022"/>
<polygon class="line_style_1 fill_style_2" points="-141.371 -272.182, -137.041 -279.682, -132.711 -272.182"/>
<polygon class="line_style_1 fill_style_2" points="-138.484 -244.862, -147.144 -244.862, -142.814 -252.362"/>
<polygon class="line_style_1 fill_style_2" points="-152.144 -253.522, -147.814 -261.022, -143.484 -253.522"/>
<polygon class="line_style_1 fill_style_2" points="-137.814 -261.022, -133.484 -253.522, -142.144 -253.522"/>
<polygon class="line_style_1 fill_style_2" points="-100.33 -305.62, -91.859 -303.82, -97.654 -297.384"/>
<polygon class="line_style_1 fill_style_2" points="-88.768 -294.309, -94.563 -287.873, -97.24 -296.11"/>
<polygon class="line_style_1 fill_style_2" points="-104.345 -289.952, -107.021 -298.189, -98.55 -296.388"/>
<polygon class="line_style_1 fill_style_2" points="-82.11 -273.817, -87.905 -267.381, -90.581 -275.617"/>
<polygon class="line_style_1 fill_style_2" points="-97.686 -269.46, -100.363 -277.696, -91.892 -275.896"/>
<polygon class="line_style_1 fill_style_2" points="-93.671 -285.128, -85.2 -283.327, -90.995 -276.891"/>
<polygon class="line_style_1 fill_style_2" points="-118.763 -273.94, -121.439 -282.176, -112.968 -280.376"/>
<polygon class="line_style_1 fill_style_2" points="-114.747 -289.608, -106.276 -287.807, -112.071 -281.371"/>
<polygon class="line_style_1 fill_style_2" points="-103.186 -278.297, -108.981 -271.861, -111.657 -280.097"/>
<polygon class="line_style_1 fill_style_2" points="-49.187 -256.428, -48.282 -247.815, -56.194 -251.338"/>
<polygon class="line_style_1 fill_style_2" points="-56.372 -241.938, -64.284 -245.46, -57.277 -250.55"/>
<polygon class="line_style_1 fill_style_2" points="-65.329 -255.405, -58.323 -260.496, -57.417 -251.883"/>
<polygon class="line_style_1 fill_style_2" points="-73.804 -229.273, -81.716 -232.795, -74.709 -237.885"/>
<polygon class="line_style_1 fill_style_2" points="-82.761 -242.74, -75.755 -247.831, -74.849 -239.218"/>
<polygon class="line_style_1 fill_style_2" points="-66.619 -243.763, -65.714 -235.15, -73.625 -238.673"/>
<polygon class="line_style_1 fill_style_2" points="-85.013 -264.169, -78.007 -269.26, -77.102 -260.647"/>
<polygon class="line_style_1 fill_style_2" points="-68.871 -265.192, -67.966 -256.579, -75.878 -260.102"/>
<polygon class="line_style_1 fill_style_2" points="-76.056 -250.702, -83.968 -254.224, -76.962 -259.314"/>
<polygon class="line_style_1 fill_style_2" points="-80.168 -192.588, -88.079 -189.065, -87.174 -197.678"/>
<polygon class="line_style_1 fill_style_2" points="-96.169 -194.943, -95.264 -203.556, -88.258 -198.466"/>
<polygon class="line_style_1 fill_style_2" points="-86.129 -207.623, -79.122 -202.533, -87.034 -199.011"/>
<polygon class="line_style_1 fill_style_2" points="-113.601 -207.608, -112.696 -216.221, -105.69 -211.131"/>
<polygon class="line_style_1 fill_style_2" points="-103.561 -220.288, -96.554 -215.198, -104.466 -211.676"/>
<polygon class="line_style_1 fill_style_2" points="-97.6 -205.253, -105.511 -201.73, -104.606 -210.343"/>
<polygon class="line_style_1 fill_style_2" points="-83.876 -229.052, -76.87 -223.962, -84.782 -220.44"/>
<polygon class="line_style_1 fill_style_2" points="-77.915 -214.017, -85.827 -210.494, -84.922 -219.107"/>
<polygon class="line_style_1 fill_style_2" points="-93.917 -216.372, -93.012 -224.985, -86.006 -219.895"/>
<polygon class="line_style_1 fill_style_2" points="-150.457 -202.324, -156.252 -208.76, -147.781 -210.561"/>
<polygon class="line_style_1 fill_style_2" points="-153.162 -218.271, -144.691 -220.071, -147.367 -211.835"/>
<polygon class="line_style_1 fill_style_2" points="-137.999 -212.64, -140.676 -204.403, -146.47 -210.839"/>
<polygon class="line_style_1 fill_style_2" points="-146.503 -238.763, -138.032 -240.564, -140.709 -232.327"/>
<polygon class="line_style_1 fill_style_2" points="-131.341 -233.132, -134.017 -224.896, -139.812 -231.332"/>
<polygon class="line_style_1 fill_style_2" points="-143.799 -222.817, -149.594 -229.252, -141.123 -231.053"/>
<polygon class="line_style_1 fill_style_2" points="-116.923 -217.12, -119.6 -208.883, -125.394 -215.319"/>
<polygon class="line_style_1 fill_style_2" points="-129.381 -206.804, -135.176 -213.24, -126.705 -215.04"/>
<polygon class="line_style_1 fill_style_2" points="-132.086 -222.75, -123.615 -224.551, -126.291 -216.315"/>
<polygon class="line_style_1 fill_style_2" points="-4.33 -368.743, 4.33 -368.743, 0.0 -361.243"/>
<polygon class="line_style_1 fill_style_2" points="9.33 -360.083, 5.0 -352.583, 0.67 -360.083"/>
<polygon class="line_style_1 fill_style_2" points="-5.0 -352.583, -9.33 -360.083, -0.67 -360.083"/>
<polygon class="line_style_1 fill_style_2" points="20.104 -341.422, 15.774 -333.922, 11.443 -341.422"/>
<polygon class="line_style_1 fill_style_2" points="5.774 -333.922, 1.443 -341.422, 10.104 -341.422"/>
<polygon class="line_style_1 fill_style_2" points="6.443 -350.083, 15.104 -350.083, 10.774 -342.583"/>
<polygon class="line_style_1 fill_style_2" points="-15.774 -333.922, -20.104 -341.422, -11.443 -341.422"/>
<polygon class="line_style_1 fill_style_2" points="-15.104 -350.083, -6.443 -350.083, -10.774 -342.583"/>
<polygon class="line_style_1 fill_style_2" points="-1.443 -341.422, -5.774 -333.922, -10.104 -341.422"/>
<polygon class="line_style_1 fill_style_2" points="55.922 -331.259, 58.598 -323.022, 50.127 -324.823"/>
<polygon class="line_style_1 fill_style_2" points="51.907 -315.591, 43.436 -317.392, 49.231 -323.827"/>
<polygon class="line_style_1 fill_style_2" points="40.346 -326.902, 46.141 -333.338, 48.817 -325.102"/>
<polygon class="line_style_1 fill_style_2" points="37.489 -299.578, 29.018 -301.379, 34.813 -307.815"/>
<polygon class="line_style_1 fill_style_2" points="25.928 -310.89, 31.723 -317.325, 34.399 -309.089"/>
<polygon class="line_style_1 fill_style_2" points="41.505 -315.246, 44.181 -307.01, 35.71 -308.811"/>
<polygon class="line_style_1 fill_style_2" points="19.27 -331.382, 25.065 -337.818, 27.741 -329.581"/>
<polygon class="line_style_1 fill_style_2" points="34.846 -335.739, 37.522 -327.502, 29.051 -329.303"/>
<polygon class="line_style_1 fill_style_2" points="30.831 -320.071, 22.36 -321.871, 28.155 -328.307"/>
<polygon class="line_style_1 fill_style_2" points="38.892 -262.372, 31.886 -257.282, 30.98 -265.895"/>
<polygon class="line_style_1 fill_style_2" points="22.75 -261.349, 21.845 -269.962, 29.757 -266.44"/>
<polygon class="line_style_1 fill_style_2" points="29.935 -275.84, 37.847 -272.317, 30.84 -267.227"/>
<polygon class="line_style_1 fill_style_2" points="3.066 -270.113, 2.161 -278.726, 10.072 -275.204"/>
<polygon class="line_style_1 fill_style_2" points="10.251 -284.604, 18.163 -281.081, 11.156 -275.991"/>
<polygon class="line_style_1 fill_style_2" points="19.208 -271.136, 12.202 -266.046, 11.296 -274.659"/>
<polygon class="line_style_1 fill_style_2" points="27.683 -297.269, 35.594 -293.746, 28.588 -288.656"/>
<polygon class="line_style_1 fill_style_2" points="36.64 -283.801, 29.633 -278.711, 28.728 -287.324"/>
<polygon class="line_style_1 fill_style_2" points="20.498 -282.778, 19.593 -291.391, 27.504 -287.869"/>
<polygon class="line_style_1 fill_style_2" points="-31.886 -257.282, -38.892 -262.372, -30.98 -265.895"/>
<polygon class="line_style_1 fill_style_2" points="-37.847 -272.317, -29.935 -275.84, -30.84 -267.227"/>
<polygon class="line_style_1 fill_style_2" points="-21.845 -269.962, -22.75 -261.349, -29.757 -266.44"/>
<polygon class="line_style_1 fill_style_2" points="-35.594 -293.746, -27.683 -297.269, -28.588 -288.656"/>
<polygon class="line_style_1 fill_style_2" points="-19.593 -291.391, -20.498 -282.778, -27.504 -287.869"/>
<polygon class="line_style_1 fill_style_2" points="-29.633 -278.711, -36.64 -283.801, -28.728 -287.324"/>
<polygon class="line_style_1 fill_style_2" points="-2.161 -278.726, -3.066 -270.113, -10.072 -275.204"/>
<polygon class="line_style_1 fill_style_2" points="-12.202 -266.046, -19.208 -271.136, -11.296 -274.659"/>
<polygon class="line_style_1 fill_style_2" points="-18.163 -281.081, -10.251 -284.604, -11.156 -275.991"/>
<polygon class="line_style_1 fill_style_2" points="-58.598 -323.022, -55.922 -331.259, -50.127 -324.823"/>
<polygon class="line_style_1 fill_style_2" points="-46.141 -333.338, -40.346 -326.902, -48.817 -325.102"/>
<polygon class="line_style_1 fill_style_2" points="-43.436 -317.392, -51.907 -315.591, -49.231 -323.827"/>
<polygon class="line_style_1 fill_style_2" points="-25.065 -337.818, -19.27 -331.382, -27.741 -329.581"/>
<polygon class="line_style_1 fill_style_2" points="-22.36 -321.871, -30.831 -320.071, -28.155 -328.307"/>
<polygon class="line_style_1 fill_style_2" points="-37.522 -327.502, -34.846 -335.739, -29.051 -329.303"/>
<polygon class="line_style_1 fill_style_2" points="-29.018 -301.379, -37.489 -299.578, -34.813 -307.815"/>
<polygon class="line_style_1 fill_style_2" points="-44.181 -307.01, -41.505 -315.246, -35.71 -308.811"/>
<polygon class="line_style_1 fill_style_2" points="-31.723 -317.325, -25.928 -310.89, -34.399 -309.089"/>
<polygon class="line_style_1 fill_style_2" points="158.588 -279.682, 162.918 -272.182, 154.258 -272.182"/>
<polygon class="line_style_1 fill_style_2" points="157.918 -263.522, 149.258 -263.522, 153.588 -271.022"/>
<polygon class="line_style_1 fill_style_2" points="144.258 -272.182, 148.588 -279.682, 152.918 -272.182"/>
<polygon class="line_style_1 fill_style_2" points="147.144 -244.862, 138.484 -244.862, 142.814 -252.362"/>
<polygon class="line_style_1 fill_style_2" points="133.484 -253.522, 137.814 -261.022, 142.144 -253.522"/>
<polygon class="line_style_1 fill_style_2" points="147.814 -261.022, 152.144 -253.522, 143.484 -253.522"/>
<polygon class="line_style_1 fill_style_2" points="122.711 -272.182, 127.041 -279.682, 131.371 -272.182"/>
<polygon class="line_style_1 fill_style_2" points="137.041 -279.682, 141.371 -272.182, 132.711 -272.182"/>
<polygon class="line_style_1 fill_style_2" points="136.371 -263.522, 127.711 -263.522, 132.041 -271.022"/>
<polygon class="line_style_1 fill_style_2" points="156.252 -208.76, 150.457 -202.324, 147.781 -210.561"/>
<polygon class="line_style_1 fill_style_2" points="140.676 -204.403, 137.999 -212.64, 146.47 -210.839"/>
<polygon class="line_style_1 fill_style_2" points="144.691 -220.071, 153.162 -218.271, 147.367 -211.835"/>
<polygon class="line_style_1 fill_style_2" points="119.6 -208.883, 116.923 -217.12, 125.394 -215.319"/>
<polygon class="line_style_1 fill_style_2" points="123.615 -224.551, 132.086 -222.75, 126.291 -216.315"/>
<polygon class="line_style_1 fill_style_2" points="135.176 -213.24, 129.381 -206.804, 126.705 -215.04"/>
<polygon class="line_style_1 fill_style_2" points="138.032 -240.564, 146.503 -238.763, 140.709 -232.327"/>
<polygon class="line_style_1 fill_style_2" points="149.594 -229.252, 143.799 -222.817, 141.123 -231.053"/>
<polygon class="line_style_1 fill_style_2" points="134.017 -224.896, 131.341 -233.132, 139.812 -231.332"/>
<polygon class="line_style_1 fill_style_2" points="88.079 -189.065, 80.168 -192.588, 87.174 -197.678"/>
<polygon class="line_style_1 fill_style_2" points="79.122 -202.533, 86.129 -207.623, 87.034 -199.011"/>
<polygon class="line_style_1 fill_style_2" points="95.264 -203.556, 96.169 -194.943, 88.258 -198.466"/>
<polygon class="line_style_1 fill_style_2" points="76.87 -223.962, 83.876 -229.052, 84.782 -220.44"/>
<polygon class="line_style_1 fill_style_2" points="93.012 -224.985, 93.917 -216.372, 86.006 -219.895"/>
<polygon class="line_style_1 fill_style_2" points="85.827 -210.494, 77.915 -214.017, 84.922 -219.107"/>
<polygon class="line_style_1 fill_style_2" points="112.696 -216.221, 113.601 -207.608, 105.69 -211.131"/>
<polygon class="line_style_1 fill_style_2" points="105.511 -201.73, 97.6 -205.253, 104.606 -210.343"/>
<polygon class="line_style_1 fill_style_2" points="96.554 -215.198, 103.561 -220.288, 104.466 -211.676"/>
<polygon class="line_style_1 fill_style_2" points="48.282 -247.815, 49.187 -256.428, 56.194 -251.338"/>
<polygon class="line_style_1 fill_style_2" points="58.323 -260.496, 65.329 -255.405, 57.417 -251.883"/>
<polygon class="line_style_1 fill_style_2" points="64.284 -245.46, 56.372 -241.938, 57.277 -250.55"/>
<polygon class="line_style_1 fill_style_2" points="78.007 -269.26, 85.013 -264.169, 77.102 -260.647"/>
<polygon class="line_style_1 fill_style_2" points="83.968 -254.224, 76.056 -250.702, 76.962 -259.314"/>
<polygon class="line_style_1 fill_style_2" points="67.966 -256.579, 68.871 -265.192, 75.878 -260.102"/>
<polygon class="line_style_1 fill_style_2" points="81.716 -232.795, 73.804 -229.273, 74.709 -237.885"/>
<polygon class="line_style_1 fill_style_2" points="65.714 -235.15, 66.619 -243.763, 73.625 -238.673"/>
<polygon class="line_style_1 fill_style_2" points="75.755 -247.831, 82.761 -242.74, 74.849 -239.218"/>
<polygon class="line_style_1 fill_style_2" points="91.859 -303.82, 100.33 -305.62, 97.654 -297.384"/>
<polygon class="line_style_1 fill_style_2" points="107.021 -298.189, 104.345 -289.952, 98.55 -296.388"/>
<polygon class="line_style_1 fill_style_2" points="94.563 -287.873, 88.768 -294.309, 97.24 -296.11"/>
<polygon class="line_style_1 fill_style_2" points="121.439 -282.176, 118.763 -273.94, 112.968 -280.376"/>
<polygon class="line_style_1 fill_style_2" points="108.981 -271.861, 103.186 -278.297, 111.657 -280.097"/>
<polygon class="line_style_1 fill_style_2" points="106.276 -287.807, 114.747 -289.608, 112.071 -281.371"/>
<polygon class="line_style_1 fill_style_2" points="87.905 -267.381, 82.11 -273.817, 90.581 -275.617"/>
<polygon class="line_style_1 fill_style_2" points="85.2 -283.327, 93.671 -285.128, 90.995 -276.891"/>
<polygon class="line_style_1 fill_style_2" points="100.363 -277.696, 97.686 -269.46, 91.892 -275.896"/>
<polygon class="line_style_1 fill_style_2" points="162.918 -94.061, 158.588 -86.561, 154.258 -94.061"/>
<polygon class="line_style_1 fill_style_2" points="148.588 -86.561, 144.258 -94.061, 152.918 -94.061"/>
<polygon class="line_style_1 fill_style_2" points="149.258 -102.721, 157.918 -102.721, 153.588 -95.221"/>
<polygon class="line_style_1 fill_style_2" points="127.041 -86.561, 122.711 -94.061, 131.371 -94.061"/>
<polygon class="line_style_1 fill_style_2" points="127.711 -102.721, 136.371 -102.721, 132.041 -95.221"/>
<polygon class="line_style_1 fill_style_2" points="141.371 -94.061, 137.041 -86.561, 132.711 -94.061"/>
<polygon class="line_style_1 fill_style_2" points="138.484 -121.381, 147.144 -121.381, 142.814 -113.881"/>
<polygon class="line_style_1 fill_style_2" points="152.144 -112.721, 147.814 -105.221, 143.484 -112.721"/>
<polygon class="line_style_1 fill_style_2" points="137.814 -105.221, 133.484 -112.721, 142.144 -112.721"/>
<polygon class="line_style_1 fill_style_2" points="100.33 -60.623, 91.859 -62.423, 97.654 -68.859"/>
<polygon class="line_style_1 fill_style_2" points="88.768 -71.934, 94.563 -78.369, 97.24 -70.133"/>
<polygon class="line_style_1 fill_style_2" points="104.345 -76.29, 107.021 -68.054, 98.55 -69.855"/>
<polygon class="line_style_1 fill_style_2" points="82.11 -92.426, 87.905 -98.862, 90.581 -90.626"/>
<polygon class="line_style_1 fill_style_2" points="97.686 -96.783, 100.363 -88.546, 91.892 -90.347"/>
<polygon class="line_style_1 fill_style_2" points="93.671 -81.115, 85.2 -82.916, 90.995 -89.351"/>
<polygon class="line_style_1 fill_style_2" points="118.763 -92.303, 121.439 -84.067, 112.968 -85.867"/>
<polygon class="line_style_1 fill_style_2" points="114.747 -76.635, 106.276 -78.436, 112.071 -84.871"/>
<polygon class="line_style_1 fill_style_2" points="103.186 -87.946, 108.981 -94.382, 111.657 -86.146"/>
<polygon class="line_style_1 fill_style_2" points="49.187 -109.814, 48.282 -118.427, 56.194 -114.905"/>
<polygon class="line_style_1 fill_style_2" points="56.372 -124.305, 64.284 -120.783, 57.277 -115.692"/>
<polygon class="line_style_1 fill_style_2" points="65.329 -110.837, 58.323 -105.747, 57.417 -114.36"/>
<polygon class="line_style_1 fill_style_2" points="73.804 -136.97, 81.716 -133.448, 74.709 -128.357"/>
<polygon class="line_style_1 fill_style_2" points="82.761 -123.503, 75.755 -118.412, 74.849 -127.025"/>
<polygon class="line_style_1 fill_style_2" points="66.619 -122.48, 65.714 -131.092, 73.625 -127.57"/>
<polygon class="line_style_1 fill_style_2" points="85.013 -102.074, 78.007 -96.983, 77.102 -105.596"/>
<polygon class="line_style_1 fill_style_2" points="68.871 -101.051, 67.966 -109.663, 75.878 -106.141"/>
<polygon class="line_style_1 fill_style_2" points="76.056 -115.541, 83.968 -112.019, 76.962 -106.928"/>
<polygon class="line_style_1 fill_style_2" points="80.168 -173.655, 88.079 -177.177, 87.174 -168.565"/>
<polygon class="line_style_1 fill_style_2" points="96.169 -171.3, 95.264 -162.687, 88.258 -167.777"/>
<polygon class="line_style_1 fill_style_2" points="86.129 -158.619, 79.122 -163.71, 87.034 -167.232"/>
<polygon class="line_style_1 fill_style_2" points="113.601 -158.635, 112.696 -150.022, 105.69 -155.112"/>
<polygon class="line_style_1 fill_style_2" points="103.561 -145.954, 96.554 -151.045, 104.466 -154.567"/>
<polygon class="line_style_1 fill_style_2" points="97.6 -160.99, 105.511 -164.512, 104.606 -155.9"/>
<polygon class="line_style_1 fill_style_2" points="83.876 -137.19, 76.87 -142.281, 84.782 -145.803"/>
<polygon class="line_style_1 fill_style_2" points="77.915 -152.226, 85.827 -155.748, 84.922 -147.136"/>
<polygon class="line_style_1 fill_style_2" points="93.917 -149.871, 93.012 -141.258, 86.006 -146.348"/>
<polygon class="line_style_1 fill_style_2" points="150.457 -163.919, 156.252 -157.483, 147.781 -155.682"/>
<polygon class="line_style_1 fill_style_2" points="153.162 -147.972, 144.691 -146.172, 147.367 -154.408"/>
<polygon class="line_style_1 fill_style_2" points="137.999 -153.603, 140.676 -161.839, 146.47 -155.404"/>
<polygon class="line_style_1 fill_style_2" points="146.503 -127.48, 138.032 -125.679, 140.709 -133.916"/>
<polygon class="line_style_1 fill_style_2" points="131.341 -133.111, 134.017 -141.347, 139.812 -134.911"/>
<polygon class="line_style_1 fill_style_2" points="143.799 -143.426, 149.594 -136.99, 141.123 -135.19"/>
<polygon class="line_style_1 fill_style_2" points="116.923 -149.123, 119.6 -157.36, 125.394 -150.924"/>
<polygon class="line_style_1 fill_style_2" points="129.381 -159.439, 135.176 -153.003, 126.705 -151.202"/>
<polygon class="line_style_1 fill_style_2" points="132.086 -143.492, 123.615 -141.692, 126.291 -149.928"/>
<polygon class="line_style_2 fill_style_3" points="1.732 -108.873, -1.732 -108.873, 0.0 -111.873"/>
<polygon class="line_style_2 fill_style_3" points="-3.732 -112.337, -2.0 -115.337, -0.268 -112.337"/>
<polygon class="line_style_2 fill_style_3" points="2.0 -115.337, 3.732 -112.337, 0.268 -112.337"/>
<polygon class="line_style_2 fill_style_3" points="-8.041 -119.801, -6.309 -122.801, -4.577 -119.801"/>
<polygon class="line_style_2 fill_style_3" points="-2.309 -122.801, -0.577 -119.801, -4.041 -119.801"/>
<polygon class="line_style_2 fill_style_3" points="-2.577 -116.337, -6.041 -116.337, -4.309 -119.337"/>
<polygon class="line_style_2 fill_style_3" points="6.309 -122.801, 8.041 -119.801, 4.577 -119.801"/>
<polygon class="line_style_2 fill_style_3" points="6.041 -116.337, 2.577 -116.337, 4.309 -119.337"/>
<polygon class="line_style_2 fill_style_3" points="0.577 -119.801, 2.309 -122.801, 4.041 -119.801"/>
<polygon class="line_style_2 fill_style_3" points="-22.369 -123.866, -23.439 -127.161, -20.051 -126.441"/>
<polygon class="line_style_2 fill_style_3" points="-20.763 -130.134, -17.374 -129.413, -19.692 -126.839"/>
<polygon class="line_style_2 fill_style_3" points="-16.138 -125.609, -18.456 -123.035, -19.527 -126.329"/>
<polygon class="line_style_2 fill_style_3" points="-14.996 -136.539, -11.607 -135.818, -13.925 -133.244"/>
<polygon class="line_style_2 fill_style_3" points="-10.371 -132.014, -12.689 -129.44, -13.76 -132.734"/>
<polygon class="line_style_2 fill_style_3" points="-16.602 -130.271, -17.672 -133.566, -14.284 -132.846"/>
<polygon class="line_style_2 fill_style_3" points="-7.708 -123.817, -10.026 -121.243, -11.096 -124.537"/>
<polygon class="line_style_2 fill_style_3" points="-13.938 -122.074, -15.009 -125.369, -11.621 -124.649"/>
<polygon class="line_style_2 fill_style_3" points="-12.332 -128.342, -8.944 -127.621, -11.262 -125.047"/>
<polygon class="line_style_2 fill_style_3" points="-15.557 -151.421, -12.754 -153.457, -12.392 -150.012"/>
<polygon class="line_style_2 fill_style_3" points="-9.1 -151.83, -8.738 -148.385, -11.903 -149.794"/>
<polygon class="line_style_2 fill_style_3" points="-11.974 -146.034, -15.139 -147.443, -12.336 -149.479"/>
<polygon class="line_style_2 fill_style_3" points="-1.226 -148.325, -0.864 -144.88, -4.029 -146.289"/>
<polygon class="line_style_2 fill_style_3" points="-4.1 -142.528, -7.265 -143.937, -4.463 -145.974"/>
<polygon class="line_style_2 fill_style_3" points="-7.683 -147.915, -4.881 -149.952, -4.519 -146.506"/>
<polygon class="line_style_2 fill_style_3" points="-11.073 -137.462, -14.238 -138.871, -11.435 -140.908"/>
<polygon class="line_style_2 fill_style_3" points="-14.656 -142.849, -11.853 -144.886, -11.491 -141.44"/>
<polygon class="line_style_2 fill_style_3" points="-8.199 -143.259, -7.837 -139.814, -11.002 -141.223"/>
<polygon class="line_style_2 fill_style_3" points="12.754 -153.457, 15.557 -151.421, 12.392 -150.012"/>
<polygon class="line_style_2 fill_style_3" points="15.139 -147.443, 11.974 -146.034, 12.336 -149.479"/>
<polygon class="line_style_2 fill_style_3" points="8.738 -148.385, 9.1 -151.83, 11.903 -149.794"/>
<polygon class="line_style_2 fill_style_3" points="14.238 -138.871, 11.073 -137.462, 11.435 -140.908"/>
<polygon class="line_style_2 fill_style_3" points="7.837 -139.814, 8.199 -143.259, 11.002 -141.223"/>
<polygon class="line_style_2 fill_style_3" points="11.853 -144.886, 14.656 -142.849, 11.491 -141.44"/>
<polygon class="line_style_2 fill_style_3" points="0.864 -144.88, 1.226 -148.325, 4.029 -146.289"/>
<polygon class="line_style_2 fill_style_3" points="4.881 -149.952, 7.683 -147.915, 4.519 -146.506"/>
<polygon class="line_style_2 fill_style_3" points="7.265 -143.937, 4.1 -142.528, 4.463 -145.974"/>
<polygon class="line_style_2 fill_style_3" points="23.439 -127.161, 22.369 -123.866, 20.051 -126.441"/>
<polygon class="line_style_2 fill_style_3" points="18.456 -123.035, 16.138 -125.609, 19.527 -126.329"/>
<polygon class="line_style_2 fill_style_3" points="17.374 -129.413, 20.763 -130.134, 19.692 -126.839"/>
<polygon class="line_style_2 fill_style_3" points="10.026 -121.243, 7.708 -123.817, 11.096 -124.537"/>
<polygon class="line_style_2 fill_style_3" points="8.944 -127.621, 12.332 -128.342, 11.262 -125.047"/>
<polygon class="line_style_2 fill_style_3" points="15.009 -125.369, 13.938 -122.074, 11.621 -124.649"/>
<polygon class="line_style_2 fill_style_3" points="11.607 -135.818, 14.996 -136.539, 13.925 -133.244"/>
<polygon class="line_style_2 fill_style_3" points="17.672 -133.566, 16.602 -130.271, 14.284 -132.846"/>
<polygon class="line_style_2 fill_style_3" points="12.689 -129.44, 10.371 -132.014, 13.76 -132.734"/>
<polygon class="line_style_2 fill_style_3" points="-63.435 -144.497, -65.167 -147.497, -61.703 -147.497"/>
<polygon class="line_style_2 fill_style_3" points="-63.167 -150.961, -59.703 -150.961, -61.435 -147.961"/>
<polygon class="line_style_2 fill_style_3" points="-57.703 -147.497, -59.435 -144.497, -61.167 -147.497"/>
<polygon class="line_style_2 fill_style_3" points="-58.858 -158.425, -55.394 -158.425, -57.126 -155.425"/>
<polygon class="line_style_2 fill_style_3" points="-53.394 -154.961, -55.126 -151.961, -56.858 -154.961"/>
<polygon class="line_style_2 fill_style_3" points="-59.126 -151.961, -60.858 -154.961, -57.394 -154.961"/>
<polygon class="line_style_2 fill_style_3" points="-49.084 -147.497, -50.816 -144.497, -52.548 -147.497"/>
<polygon class="line_style_2 fill_style_3" points="-54.816 -144.497, -56.548 -147.497, -53.084 -147.497"/>
<polygon class="line_style_2 fill_style_3" points="-54.548 -150.961, -51.084 -150.961, -52.816 -147.961"/>
<polygon class="line_style_2 fill_style_3" points="-62.501 -172.866, -60.183 -175.44, -59.112 -172.146"/>
<polygon class="line_style_2 fill_style_3" points="-56.27 -174.609, -55.2 -171.314, -58.588 -172.034"/>
<polygon class="line_style_2 fill_style_3" points="-57.876 -168.341, -61.265 -169.062, -58.947 -171.636"/>
<polygon class="line_style_2 fill_style_3" points="-47.84 -172.817, -46.769 -169.522, -50.158 -170.242"/>
<polygon class="line_style_2 fill_style_3" points="-49.446 -166.55, -52.834 -167.27, -50.516 -169.844"/>
<polygon class="line_style_2 fill_style_3" points="-54.07 -171.074, -51.752 -173.648, -50.682 -170.354"/>
<polygon class="line_style_2 fill_style_3" points="-55.213 -160.145, -58.601 -160.865, -56.283 -163.439"/>
<polygon class="line_style_2 fill_style_3" points="-59.837 -164.669, -57.519 -167.243, -56.449 -163.949"/>
<polygon class="line_style_2 fill_style_3" points="-53.607 -166.412, -52.536 -163.117, -55.925 -163.837"/>
<polygon class="line_style_2 fill_style_3" points="-35.232 -180.744, -32.067 -179.335, -34.87 -177.299"/>
<polygon class="line_style_2 fill_style_3" points="-31.649 -175.357, -34.451 -173.321, -34.814 -176.766"/>
<polygon class="line_style_2 fill_style_3" points="-38.106 -174.948, -38.468 -178.393, -35.303 -176.984"/>
<polygon class="line_style_2 fill_style_3" points="-30.748 -166.785, -33.551 -164.749, -33.913 -168.194"/>
<polygon class="line_style_2 fill_style_3" points="-37.205 -166.376, -37.567 -169.821, -34.402 -168.412"/>
<polygon class="line_style_2 fill_style_3" points="-34.331 -172.172, -31.166 -170.763, -33.969 -168.727"/>
<polygon class="line_style_2 fill_style_3" points="-45.078 -169.882, -45.441 -173.327, -42.276 -171.918"/>
<polygon class="line_style_2 fill_style_3" points="-42.204 -175.678, -39.04 -174.269, -41.842 -172.233"/>
<polygon class="line_style_2 fill_style_3" points="-38.622 -170.291, -41.424 -168.255, -41.786 -171.7"/>
<polygon class="line_style_2 fill_style_3" points="-19.313 -157.244, -19.675 -153.799, -22.477 -155.835"/>
<polygon class="line_style_2 fill_style_3" points="-23.329 -152.172, -26.132 -154.208, -22.967 -155.617"/>
<polygon class="line_style_2 fill_style_3" points="-25.713 -158.186, -22.549 -159.595, -22.911 -156.15"/>
<polygon class="line_style_2 fill_style_3" points="-31.203 -148.666, -34.005 -150.702, -30.841 -152.111"/>
<polygon class="line_style_2 fill_style_3" points="-33.587 -154.68, -30.423 -156.089, -30.785 -152.644"/>
<polygon class="line_style_2 fill_style_3" points="-27.186 -153.738, -27.549 -150.293, -30.351 -152.329"/>
<polygon class="line_style_2 fill_style_3" points="-32.686 -163.252, -29.522 -164.661, -29.884 -161.216"/>
<polygon class="line_style_2 fill_style_3" points="-26.286 -162.31, -26.648 -158.865, -29.45 -160.901"/>
<polygon class="line_style_2 fill_style_3" points="-30.302 -157.238, -33.104 -159.274, -29.94 -160.683"/>
<polygon class="line_style_2 fill_style_3" points="-36.743 -134.842, -40.132 -134.122, -39.061 -137.416"/>
<polygon class="line_style_2 fill_style_3" points="-42.808 -137.094, -41.738 -140.389, -39.42 -137.815"/>
<polygon class="line_style_2 fill_style_3" points="-37.825 -141.221, -35.507 -138.646, -38.896 -137.926"/>
<polygon class="line_style_2 fill_style_3" points="-48.575 -143.499, -47.505 -146.794, -45.187 -144.22"/>
<polygon class="line_style_2 fill_style_3" points="-43.592 -147.626, -41.275 -145.051, -44.663 -144.331"/>
<polygon class="line_style_2 fill_style_3" points="-42.511 -141.247, -45.899 -140.527, -44.829 -143.821"/>
<polygon class="line_style_2 fill_style_3" points="-35.162 -149.418, -32.844 -146.843, -36.232 -146.123"/>
<polygon class="line_style_2 fill_style_3" points="-34.08 -143.039, -37.469 -142.319, -36.398 -145.613"/>
<polygon class="line_style_2 fill_style_3" points="-40.145 -145.291, -39.075 -148.586, -36.757 -146.012"/>
<polygon class="line_style_2 fill_style_3" points="-65.167 -218.746, -63.435 -221.746, -61.703 -218.746"/>
<polygon class="line_style_2 fill_style_3" points="-59.435 -221.746, -57.703 -218.746, -61.167 -218.746"/>
<polygon class="line_style_2 fill_style_3" points="-59.703 -215.282, -63.167 -215.282, -61.435 -218.282"/>
<polygon class="line_style_2 fill_style_3" points="-50.816 -221.746, -49.084 -218.746, -52.548 -218.746"/>
<polygon class="line_style_2 fill_style_3" points="-51.084 -215.282, -54.548 -215.282, -52.816 -218.282"/>
<polygon class="line_style_2 fill_style_3" points="-56.548 -218.746, -54.816 -221.746, -53.084 -218.746"/>
<polygon class="line_style_2 fill_style_3" points="-55.394 -207.817, -58.858 -207.817, -57.126 -210.817"/>
<polygon class="line_style_2 fill_style_3" points="-60.858 -211.282, -59.126 -214.282, -57.394 -211.282"/>
<polygon class="line_style_2 fill_style_3" points="-55.126 -214.282, -53.394 -211.282, -56.858 -211.282"/>
<polygon class="line_style_2 fill_style_3" points="-40.132 -232.121, -36.743 -231.401, -39.061 -228.826"/>
<polygon class="line_style_2 fill_style_3" points="-35.507 -227.596, -37.825 -225.022, -38.896 -228.317"/>
<polygon class="line_style_2 fill_style_3" points="-41.738 -225.854, -42.808 -229.148, -39.42 -228.428"/>
<polygon class="line_style_2 fill_style_3" points="-32.844 -219.4, -35.162 -216.825, -36.232 -220.12"/>
<polygon class="line_style_2 fill_style_3" points="-39.075 -217.657, -40.145 -220.951, -36.757 -220.231"/>
<polygon class="line_style_2 fill_style_3" points="-37.469 -223.924, -34.08 -223.204, -36.398 -220.629"/>
<polygon class="line_style_2 fill_style_3" points="-47.505 -219.449, -48.575 -222.743, -45.187 -222.023"/>
<polygon class="line_style_2 fill_style_3" points="-45.899 -225.716, -42.511 -224.996, -44.829 -222.421"/>
<polygon class="line_style_2 fill_style_3" points="-41.275 -221.191, -43.592 -218.617, -44.663 -221.912"/>
<polygon class="line_style_2 fill_style_3" points="-19.675 -212.444, -19.313 -208.999, -22.477 -210.408"/>
<polygon class="line_style_2 fill_style_3" points="-22.549 -206.648, -25.713 -208.057, -22.911 -210.093"/>
<polygon class="line_style_2 fill_style_3" points="-26.132 -212.035, -23.329 -214.071, -22.967 -210.626"/>
<polygon class="line_style_2 fill_style_3" points="-29.522 -201.582, -32.686 -202.991, -29.884 -205.027"/>
<polygon class="line_style_2 fill_style_3" points="-33.104 -206.969, -30.302 -209.005, -29.94 -205.56"/>
<polygon class="line_style_2 fill_style_3" points="-26.648 -207.378, -26.286 -203.933, -29.45 -205.342"/>
<polygon class="line_style_2 fill_style_3" points="-34.005 -215.541, -31.203 -217.577, -30.841 -214.132"/>
<polygon class="line_style_2 fill_style_3" points="-27.549 -215.95, -27.186 -212.505, -30.351 -213.914"/>
<polygon class="line_style_2 fill_style_3" points="-30.423 -210.153, -33.587 -211.562, -30.785 -213.599"/>
<polygon class="line_style_2 fill_style_3" points="-32.067 -186.908, -35.232 -185.499, -34.87 -188.944"/>
<polygon class="line_style_2 fill_style_3" points="-38.468 -187.85, -38.106 -191.295, -35.303 -189.259"/>
<polygon class="line_style_2 fill_style_3" points="-34.451 -192.922, -31.649 -190.886, -34.814 -189.477"/>
<polygon class="line_style_2 fill_style_3" points="-45.441 -192.916, -45.078 -196.361, -42.276 -194.325"/>
<polygon class="line_style_2 fill_style_3" points="-41.424 -197.988, -38.622 -195.952, -41.786 -194.543"/>
<polygon class="line_style_2 fill_style_3" points="-39.04 -191.974, -42.204 -190.565, -41.842 -194.01"/>
<polygon class="line_style_2 fill_style_3" points="-33.551 -201.494, -30.748 -199.458, -33.913 -198.049"/>
<polygon class="line_style_2 fill_style_3" points="-31.166 -195.48, -34.331 -194.071, -33.969 -197.516"/>
<polygon class="line_style_2 fill_style_3" points="-37.567 -196.422, -37.205 -199.867, -34.402 -197.831"/>
<polygon class="line_style_2 fill_style_3" points="-60.183 -190.803, -62.501 -193.377, -59.112 -194.097"/>
<polygon class="line_style_2 fill_style_3" points="-61.265 -197.181, -57.876 -197.901, -58.947 -194.607"/>
<polygon class="line_style_2 fill_style_3" points="-55.2 -194.929, -56.27 -191.634, -58.588 -194.208"/>
<polygon class="line_style_2 fill_style_3" points="-58.601 -205.378, -55.213 -206.098, -56.283 -202.804"/>
<polygon class="line_style_2 fill_style_3" points="-52.536 -203.126, -53.607 -199.831, -55.925 -202.405"/>
<polygon class="line_style_2 fill_style_3" points="-57.519 -198.999, -59.837 -201.574, -56.449 -202.294"/>
<polygon class="line_style_2 fill_style_3" points="-46.769 -196.721, -47.84 -193.426, -50.158 -196.0"/>
<polygon class="line_style_2 fill_style_3" points="-51.752 -192.594, -54.07 -195.169, -50.682 -195.889"/>
<polygon class="line_style_2 fill_style_3" points="-52.834 -198.973, -49.446 -199.693, -50.516 -196.399"/>
<polygon class="line_style_2 fill_style_3" points="-1.732 -257.37, 1.732 -257.37, 0.0 -254.37"/>
<polygon class="line_style_2 fill_style_3" points="3.732 -253.906, 2.0 -250.906, 0.268 -253.906"/>
<polygon class="line_style_2 fill_style_3" points="-2.0 -250.906, -3.732 -253.906, -0.268 -253.906"/>
<polygon class="line_style_2 fill_style_3" points="8.041 -246.442, 6.309 -243.442, 4.577 -246.442"/>
<polygon class="line_style_2 fill_style_3" points="2.309 -243.442, 0.577 -246.442, 4.041 -246.442"/>
<polygon class="line_style_2 fill_style_3" points="2.577 -249.906, 6.041 -249.906, 4.309 -246.906"/>
<polygon class="line_style_2 fill_style_3" points="-6.309 -243.442, -8.041 -246.442, -4.577 -246.442"/>
<polygon class="line_style_2 fill_style_3" points="-6.041 -249.906, -2.577 -249.906, -4.309 -246.906"/>
<polygon class="line_style_2 fill_style_3" points="-0.577 -246.442, -2.309 -243.442, -4.041 -246.442"/>
<polygon class="line_style_2 fill_style_3" points="22.369 -242.376, 23.439 -239.082, 20.051 -239.802"/>
<polygon class="line_style_2 fill_style_3" points="20.763 -236.109, 17.374 -236.829, 19.692 -239.404"/>
<polygon class="line_style_2 fill_style_3" points="16.138 -240.634, 18.456 -243.208, 19.527 -239.913"/>
<polygon class="line_style_2 fill_style_3" points="14.996 -229.704, 11.607 -230.424, 13.925 -232.999"/>
<polygon class="line_style_2 fill_style_3" points="10.371 -234.229, 12.689 -236.803, 13.76 -233.508"/>
<polygon class="line_style_2 fill_style_3" points="16.602 -235.971, 17.672 -232.677, 14.284 -233.397"/>
<polygon class="line_style_2 fill_style_3" points="7.708 -242.426, 10.026 -245.0, 11.096 -241.705"/>
<polygon class="line_style_2 fill_style_3" points="13.938 -244.168, 15.009 -240.874, 11.621 -241.594"/>
<polygon class="line_style_2 fill_style_3" points="12.332 -237.901, 8.944 -238.621, 11.262 -241.196"/>
<polygon class="line_style_2 fill_style_3" points="15.557 -214.822, 12.754 -212.786, 12.392 -216.231"/>
<polygon class="line_style_2 fill_style_3" points="9.1 -214.413, 8.738 -217.858, 11.903 -216.449"/>
<polygon class="line_style_2 fill_style_3" points="11.974 -220.209, 15.139 -218.8, 12.336 -216.764"/>
<polygon class="line_style_2 fill_style_3" points="1.226 -217.918, 0.864 -221.363, 4.029 -219.954"/>
<polygon class="line_style_2 fill_style_3" points="4.1 -223.714, 7.265 -222.305, 4.463 -220.269"/>
<polygon class="line_style_2 fill_style_3" points="7.683 -218.327, 4.881 -216.291, 4.519 -219.736"/>
<polygon class="line_style_2 fill_style_3" points="11.073 -228.78, 14.238 -227.371, 11.435 -225.335"/>
<polygon class="line_style_2 fill_style_3" points="14.656 -223.393, 11.853 -221.357, 11.491 -224.802"/>
<polygon class="line_style_2 fill_style_3" points="8.199 -222.984, 7.837 -226.429, 11.002 -225.02"/>
<polygon class="line_style_2 fill_style_3" points="-12.754 -212.786, -15.557 -214.822, -12.392 -216.231"/>
<polygon class="line_style_2 fill_style_3" points="-15.139 -218.8, -11.974 -220.209, -12.336 -216.764"/>
<polygon class="line_style_2 fill_style_3" points="-8.738 -217.858, -9.1 -214.413, -11.903 -216.449"/>
<polygon class="line_style_2 fill_style_3" points="-14.238 -227.371, -11.073 -228.78, -11.435 -225.335"/>
<polygon class="line_style_2 fill_style_3" points="-7.837 -226.429, -8.199 -222.984, -11.002 -225.02"/>
<polygon class="line_style_2 fill_style_3" points="-11.853 -221.357, -14.656 -223.393, -11.491 -224.802"/>
<polygon class="line_style_2 fill_style_3" points="-0.864 -221.363, -1.226 -217.918, -4.029 -219.954"/>
<polygon class="line_style_2 fill_style_3" points="-4.881 -216.291, -7.683 -218.327, -4.519 -219.736"/>
<polygon class="line_style_2 fill_style_3" points="-7.265 -222.305, -4.1 -223.714, -4.463 -220.269"/>
<polygon class="line_style_2 fill_style_3" points="-23.439 -239.082, -22.369 -242.376, -20.051 -239.802"/>
<polygon class="line_style_2 fill_style_3" points="-18.456 -243.208, -16.138 -240.634, -19.527 -239.913"/>
<polygon class="line_style_2 fill_style_3" points="-17.374 -236.829, -20.763 -236.109, -19.692 -239.404"/>
<polygon class="line_style_2 fill_style_3" points="-10.026 -245.0, -7.708 -242.426, -11.096 -241.705"/>
<polygon class="line_style_2 fill_style_3" points="-8.944 -238.621, -12.332 -237.901, -11.262 -241.196"/>
<polygon class="line_style_2 fill_style_3" points="-15.009 -240.874, -13.938 -244.168, -11.621 -241.594"/>
<polygon class="line_style_2 fill_style_3" points="-11.607 -230.424, -14.996 -229.704, -13.925 -232.999"/>
<polygon class="line_style_2 fill_style_3" points="-17.672 -232.677, -16.602 -235.971, -14.284 -233.397"/>
<polygon class="line_style_2 fill_style_3" points="-12.689 -236.803, -10.371 -234.229, -13.76 -233.508"/>
<polygon class="line_style_2 fill_style_3" points="63.435 -221.746, 65.167 -218.746, 61.703 -218.746"/>
<polygon class="line_style_2 fill_style_3" points="63.167 -215.282, 59.703 -215.282, 61.435 -218.282"/>
<polygon class="line_style_2 fill_style_3" points="57.703 -218.746, 59.435 -221.746, 61.167 -218.746"/>
<polygon class="line_style_2 fill_style_3" points="58.858 -207.817, 55.394 -207.817, 57.126 -210.817"/>
<polygon class="line_style_2 fill_style_3" points="53.394 -211.282, 55.126 -214.282, 56.858 -211.282"/>
<polygon class="line_style_2 fill_style_3" points="59.126 -214.282, 60.858 -211.282, 57.394 -211.282"/>
<polygon class="line_style_2 fill_style_3" points="49.084 -218.746, 50.816 -221.746, 52.548 -218.746"/>
<polygon class="line_style_2 fill_style_3" points="54.816 -221.746, 56.548 -218.746, 53.084 -218.746"/>
<polygon class="line_style_2 fill_style_3" points="54.548 -215.282, 51.084 -215.282, 52.816 -218.282"/>
<polygon class="line_style_2 fill_style_3" points="62.501 -193.377, 60.183 -190.803, 59.112 -194.097"/>
<polygon class="line_style_2 fill_style_3" points="56.27 -191.634, 55.2 -194.929, 58.588 -194.208"/>
<polygon class="line_style_2 fill_style_3" points="57.876 -197.901, 61.265 -197.181, 58.947 -194.607"/>
<polygon class="line_style_2 fill_style_3" points="47.84 -193.426, 46.769 -196.721, 50.158 -196.0"/>
<polygon class="line_style_2 fill_style_3" points="49.446 -199.693, 52.834 -198.973, 50.516 -196.399"/>
<polygon class="line_style_2 fill_style_3" points="54.07 -195.169, 51.752 -192.594, 50.682 -195.889"/>
<polygon class="line_style_2 fill_style_3" points="55.213 -206.098, 58.601 -205.378, 56.283 -202.804"/>
<polygon class="line_style_2 fill_style_3" points="59.837 -201.574, 57.519 -198.999, 56.449 -202.294"/>
<polygon class="line_style_2 fill_style_3" points="53.607 -199.831, 52.536 -203.126, 55.925 -202.405"/>
<polygon class="line_style_2 fill_style_3" points="35.232 -185.499, 32.067 -186.908, 34.87 -188.944"/>
<polygon class="line_style_2 fill_style_3" points="31.649 -190.886, 34.451 -192.922, 34.814 -189.477"/>
<polygon class="line_style_2 fill_style_3" points="38.106 -191.295, 38.468 -187.85, 35.303 -189.259"/>
<polygon class="line_style_2 fill_style_3" points="30.748 -199.458, 33.551 -201.494, 33.913 -198.049"/>
<polygon class="line_style_2 fill_style_3" points="37.205 -199.867, 37.567 -196.422, 34.402 -197.831"/>
<polygon class="line_style_2 fill_style_3" points="34.331 -194.071, 31.166 -195.48, 33.969 -197.516"/>
<polygon class="line_style_2 fill_style_3" points="45.078 -196.361, 45.441 -192.916, 42.276 -194.325"/>
<polygon class="line_style_2 fill_style_3" points="42.204 -190.565, 39.04 -191.974, 41.842 -194.01"/>
<polygon class="line_style_2 fill_style_3" points="38.622 -195.952, 41.424 -197.988, 41.786 -194.543"/>
<polygon class="line_style_2 fill_style_3" points="19.313 -208.999, 19.675 -212.444, 22.477 -210.408"/>
<polygon class="line_style_2 fill_style_3" points="23.329 -214.071, 26.132 -212.035, 22.967 -210.626"/>
<polygon class="line_style_2 fill_style_3" points="25.713 -208.057, 22.549 -206.648, 22.911 -210.093"/>
<polygon class="line_style_2 fill_style_3" points="31.203 -217.577, 34.005 -215.541, 30.841 -214.132"/>
<polygon class="line_style_2 fill_style_3" points="33.587 -211.562, 30.423 -210.153, 30.785 -213.599"/>
<polygon class="line_style_2 fill_style_3" points="27.186 -212.505, 27.549 -215.95, 30.351 -213.914"/>
<polygon class="line_style_2 fill_style_3" points="32.686 -202.991, 29.522 -201.582, 29.884 -205.027"/>
<polygon class="line_style_2 fill_style_3" points="26.286 -203.933, 26.648 -207.378, 29.45 -205.342"/>
<polygon class="line_style_2 fill_style_3" points="30.302 -209.005, 33.104 -206.969, 29.94 -205.56"/>
<polygon class="line_style_2 fill_style_3" points="36.743 -231.401, 40.132 -232.121, 39.061 -228.826"/>
<polygon class="line_style_2 fill_style_3" points="42.808 -229.148, 41.738 -225.854, 39.42 -228.428"/>
<polygon class="line_style_2 fill_style_3" points="37.825 -225.022, 35.507 -227.596, 38.896 -228.317"/>
<polygon class="line_style_2 fill_style_3" points="48.575 -222.743, 47.505 -219.449, 45.187 -222.023"/>
<polygon class="line_style_2 fill_style_3" points="43.592 -218.617, 41.275 -221.191, 44.663 -221.912"/>
<polygon class="line_style_2 fill_style_3" points="42.511 -224.996, 45.899 -225.716, 44.829 -222.421"/>
<polygon class="line_style_2 fill_style_3" points="35.162 -216.825, 32.844 -219.4, 36.232 -220.12"/>
<polygon class="line_style_2 fill_style_3" points="34.08 -223.204, 37.469 -223.924, 36.398 -220.629"/>
<polygon class="line_style_2 fill_style_3" points="40.145 -220.951, 39.075 -217.657, 36.757 -220.231"/>
<polygon class="line_style_2 fill_style_3" points="65.167 -147.497, 63.435 -144.497, 61.703 -147.497"/>
<polygon class="line_style_2 fill_style_3" points="59.435 -144.497, 57.703 -147.497, 61.167 -147.497"/>
<polygon class="line_style_2 fill_style_3" points="59.703 -150.961, 63.167 -150.961, 61.435 -147.961"/>
<polygon class="line_style_2 fill_style_3" points="50.816 -144.497, 49.084 -147.497, 52.548 -147.497"/>
<polygon class="line_style_2 fill_style_3" points="51.084 -150.961, 54.548 -150.961, 52.816 -147.961"/>
<polygon class="line_style_2 fill_style_3" points="56.548 -147.497, 54.816 -144.497, 53.084 -147.497"/>
<polygon class="line_style_2 fill_style_3" points="55.394 -158.425, 58.858 -158.425, 57.126 -155.425"/>
<polygon class="line_style_2 fill_style_3" points="60.858 -154.961, 59.126 -151.961, 57.394 -154.961"/>
<polygon class="line_style_2 fill_style_3" points="55.126 -151.961, 53.394 -154.961, 56.858 -154.961"/>
<polygon class="line_style_2 fill_style_3" points="40.132 -134.122, 36.743 -134.842, 39.061 -137.416"/>
<polygon class="line_style_2 fill_style_3" points="35.507 -138.646, 37.825 -141.221, 38.896 -137.926"/>
<polygon class="line_style_2 fill_style_3" points="41.738 -140.389, 42.808 -137.094, 39.42 -137.815"/>
<polygon class="line_style_2 fill_style_3" points="32.844 -146.843, 35.162 -149.418, 36.232 -146.123"/>
<polygon class="line_style_2 fill_style_3" points="39.075 -148.586, 40.145 -145.291, 36.757 -146.012"/>
<polygon class="line_style_2 fill_style_3" points="37.469 -142.319, 34.08 -143.039, 36.398 -145.613"/>
<polygon class="line_style_2 fill_style_3" points="47.505 -146.794, 48.575 -143.499, 45.187 -144.22"/>
<polygon class="line_style_2 fill_style_3" points="45.899 -140.527, 42.511 -141.247, 44.829 -143.821"/>
<polygon class="line_style_2 fill_style_3" points="41.275 -145.051, 43.592 -147.626, 44.663 -144.331"/>
<polygon class="line_style_2 fill_style_3" points="19.675 -153.799, 19.313 -157.244, 22.477 -155.835"/>
<polygon class="line_style_2 fill_style_3" points="22.549 -159.595, 25.713 -158.186, 22.911 -156.15"/>
<polygon class="line_style_2 fill_style_3" points="26.132 -154.208, 23.329 -152.172, 22.967 -155.617"/>
<polygon class="line_style_2 fill_style_3" points="29.522 -164.661, 32.686 -163.252, 29.884 -161.216"/>
<polygon class="line_style_2 fill_style_3" points="33.104 -159.274, 30.302 -157.238, 29.94 -160.683"/>
<polygon class="line_style_2 fill_style_3" points="26.648 -158.865, 26.286 -162.31, 29.45 -160.901"/>
<polygon class="line_style_2 fill_style_3" points="34.005 -150.702, 31.203 -148.666, 30.841 -152.111"/>
<polygon class="line_style_2 fill_style_3" points="27.549 -150.293, 27.186 -153.738, 30.351 -152.329"/>
<polygon class="line_style_2 fill_style_3" points="30.423 -156.089, 33.587 -154.68, 30.785 -152.644"/>
<polygon class="line_style_2 fill_style_3" points="32.067 -179.335, 35.232 -180.744, 34.87 -177.299"/>
<polygon class="line_style_2 fill_style_3" points="38.468 -178.393, 38.106 -174.948, 35.303 -176.984"/>
<polygon class="line_style_2 fill_style_3" points="34.451 -173.321, 31.649 -175.357, 34.814 -176.766"/>
<polygon class="line_style_2 fill_style_3" points="45.441 -173.327, 45.078 -169.882, 42.276 -171.918"/>
<polygon class="line_style_2 fill_style_3" points="41.424 -168.255, 38.622 -170.291, 41.786 -171.7"/>
<polygon class="line_style_2 fill_style_3" points="39.04 -174.269, 42.204 -175.678, 41.842 -172.233"/>
<polygon class="line_style_2 fill_style_3" points="33.551 -164.749, 30.748 -166.785, 33.913 -168.194"/>
<polygon class="line_style_2 fill_style_3" points="31.166 -170.763, 34.331 -172.172, 33.969 -168.727"/>
<polygon class="line_style_2 fill_style_3" points="37.567 -169.821, 37.205 -166.376, 34.402 -168.412"/>
<polygon class="line_style_2 fill_style_3" points="60.183 -175.44, 62.501 -172.866, 59.112 -172.146"/>
<polygon class="line_style_2 fill_style_3" points="61.265 -169.062, 57.876 -168.341, 58.947 -171.636"/>
<polygon class="line_style_2 fill_style_3" points="55.2 -171.314, 56.27 -174.609, 58.588 -172.034"/>
<polygon class="line_style_2 fill_style_3" points="58.601 -160.865, 55.213 -160.145, 56.283 -163.439"/>
<polygon class="line_style_2 fill_style_3" points="52.536 -163.117, 53.607 -166.412, 55.925 -163.837"/>
<polygon class="line_style_2 fill_style_3" points="57.519 -167.243, 59.837 -164.669, 56.449 -163.949"/>
<polygon class="line_style_2 fill_style_3" points="46.769 -169.522, 47.84 -172.817, 50.158 -170.242"/>
<polygon class="line_style_2 fill_style_3" points="51.752 -173.648, 54.07 -171.074, 50.682 -170.354"/>
<polygon class="line_style_2 fill_style_3" points="52.834 -167.27, 49.446 -166.55, 50.516 -169.844"/>
   </g>
</svg>