<svg xmlns="http://www.w3.org/2000/svg" width="432.3317963131015pt" height="432.3317963131015pt" viewBox="-216.16589815655075 -387.3317963131015 432.3317963131015 432.3317963131015">
    <style>
.line_style_1 {stroke: none}
.fill_style_1 {fill: rgb(1, 21, 62)}
.fill_style_2 {fill: rgb(255, 255, 20)}
</style>
    <g transform="translate(0 -342.3317963131015) scale(1,-1)">
    <rect x="-216.16589815655075" y="-387.3317963131015" width="432.3317963131015" height="432.3317963131015" fill="rgb(255, 255, 255)"/>



<circle class="line_style_1 fill_style_1" cx="0.0" cy="-171.16589815655075" r="191.16589815655075"/>
<polygon class="line_style_1 fill_style_2" points="4.755 1.545, 0.0 5.0, -4.755 1.545, -2.939 -4.045, 2.939 -4.045"/>
<polygon class="line_style_1 fill_style_2" points="-4.755 -11.545, 0.0 -15.0, 4.755 -11.545, 2.939 -5.955, -2.939 -5.955"/>
<polygon class="line_style_1 fill_style_2" points="-20.936 -10.211, -25.691 -13.666, -23.875 -19.256, -17.997 -19.256, -16.18 -13.666"/>
<polygon class="line_style_1 fill_style_2" points="-11.425 -23.301, -6.67 -19.846, -8.486 -14.256, -14.364 -14.256, -16.18 -19.846"/>
<polygon class="line_style_1 fill_style_2" points="-17.694 -38.277, -15.878 -43.867, -10.0 -43.867, -8.184 -38.277, -12.939 -34.822"/>
<polygon class="line_style_1 fill_style_2" points="-2.306 -33.277, -4.122 -27.687, -10.0 -27.687, -11.816 -33.277, -7.061 -36.732"/>
<polygon class="line_style_1 fill_style_2" points="10.0 -43.867, 15.878 -43.867, 17.694 -38.277, 12.939 -34.822, 8.184 -38.277"/>
<polygon class="line_style_1 fill_style_2" points="10.0 -27.687, 4.122 -27.687, 2.306 -33.277, 7.061 -36.732, 11.816 -33.277"/>
<polygon class="line_style_1 fill_style_2" points="23.875 -19.256, 25.691 -13.666, 20.936 -10.211, 16.18 -13.666, 17.997 -19.256"/>
<polygon class="line_style_1 fill_style_2" points="8.486 -14.256, 6.67 -19.846, 11.425 -23.301, 16.18 -19.846, 14.364 -14.256"/>
<polygon class="line_style_1 fill_style_2" points="-64.644 -41.966, -69.399 -45.421, -67.583 -51.011, -61.705 -51.011, -59.888 -45.421"/>
<polygon class="line_style_1 fill_style_2" points="-55.133 -55.056, -50.378 -51.602, -52.194 -46.011, -58.072 -46.011, -59.888 -51.602"/>
<polygon class="line_style_1 fill_style_2" points="-61.402 -70.033, -59.586 -75.623, -53.708 -75.623, -51.892 -70.033, -56.647 -66.578"/>
<polygon class="line_style_1 fill_style_2" points="-46.014 -65.033, -47.83 -59.442, -53.708 -59.442, -55.524 -65.033, -50.769 -68.487"/>
<polygon class="line_style_1 fill_style_2" points="-33.708 -75.623, -27.83 -75.623, -26.014 -70.033, -30.769 -66.578, -35.524 -70.033"/>
<polygon class="line_style_1 fill_style_2" points="-33.708 -59.442, -39.586 -59.442, -41.402 -65.033, -36.647 -68.487, -31.892 -65.033"/>
<polygon class="line_style_1 fill_style_2" points="-19.833 -51.011, -18.017 -45.421, -22.772 -41.966, -27.528 -45.421, -25.711 -51.011"/>
<polygon class="line_style_1 fill_style_2" points="-35.222 -46.011, -37.038 -51.602, -32.283 -55.056, -27.528 -51.602, -29.344 -46.011"/>
<polygon class="line_style_1 fill_style_2" points="-38.953 -30.211, -43.708 -26.756, -48.463 -30.211, -46.647 -35.801, -40.769 -35.801"/>
<polygon class="line_style_1 fill_style_2" points="-48.463 -43.301, -43.708 -46.756, -38.953 -43.301, -40.769 -37.711, -46.647 -37.711"/>
<polygon class="line_style_1 fill_style_2" points="-44.707 -121.414, -42.891 -127.005, -37.013 -127.005, -35.197 -121.414, -39.952 -117.959"/>
<polygon class="line_style_1 fill_style_2" points="-29.319 -116.414, -31.135 -110.824, -37.013 -110.824, -38.829 -116.414, -34.074 -119.869"/>
<polygon class="line_style_1 fill_style_2" points="-17.013 -127.005, -11.135 -127.005, -9.319 -121.414, -14.074 -117.959, -18.829 -121.414"/>
<polygon class="line_style_1 fill_style_2" points="-17.013 -110.824, -22.891 -110.824, -24.707 -116.414, -19.952 -119.869, -15.197 -116.414"/>
<polygon class="line_style_1 fill_style_2" points="-3.138 -102.393, -1.322 -96.803, -6.077 -93.348, -10.833 -96.803, -9.016 -102.393"/>
<polygon class="line_style_1 fill_style_2" points="-18.527 -97.393, -20.343 -102.983, -15.588 -106.438, -10.833 -102.983, -12.649 -97.393"/>
<polygon class="line_style_1 fill_style_2" points="-22.258 -81.592, -27.013 -78.138, -31.768 -81.592, -29.952 -87.183, -24.074 -87.183"/>
<polygon class="line_style_1 fill_style_2" points="-31.768 -94.683, -27.013 -98.138, -22.258 -94.683, -24.074 -89.092, -29.952 -89.092"/>
<polygon class="line_style_1 fill_style_2" points="-47.949 -93.348, -52.704 -96.803, -50.888 -102.393, -45.01 -102.393, -43.193 -96.803"/>
<polygon class="line_style_1 fill_style_2" points="-38.438 -106.438, -33.683 -102.983, -35.499 -97.393, -41.377 -97.393, -43.193 -102.983"/>
<polygon class="line_style_1 fill_style_2" points="37.013 -127.005, 42.891 -127.005, 44.707 -121.414, 39.952 -117.959, 35.197 -121.414"/>
<polygon class="line_style_1 fill_style_2" points="37.013 -110.824, 31.135 -110.824, 29.319 -116.414, 34.074 -119.869, 38.829 -116.414"/>
<polygon class="line_style_1 fill_style_2" points="50.888 -102.393, 52.704 -96.803, 47.949 -93.348, 43.193 -96.803, 45.01 -102.393"/>
<polygon class="line_style_1 fill_style_2" points="35.499 -97.393, 33.683 -102.983, 38.438 -106.438, 43.193 -102.983, 41.377 -97.393"/>
<polygon class="line_style_1 fill_style_2" points="31.768 -81.592, 27.013 -78.138, 22.258 -81.592, 24.074 -87.183, 29.952 -87.183"/>
<polygon class="line_style_1 fill_style_2" points="22.258 -94.683, 27.013 -98.138, 31.768 -94.683, 29.952 -89.092, 24.074 -89.092"/>
<polygon class="line_style_1 fill_style_2" points="6.077 -93.348, 1.322 -96.803, 3.138 -102.393, 9.016 -102.393, 10.833 -96.803"/>
<polygon class="line_style_1 fill_style_2" points="15.588 -106.438, 20.343 -102.983, 18.527 -97.393, 12.649 -97.393, 10.833 -102.983"/>
<polygon class="line_style_1 fill_style_2" points="9.319 -121.414, 11.135 -127.005, 17.013 -127.005, 18.829 -121.414, 14.074 -117.959"/>
<polygon class="line_style_1 fill_style_2" points="24.707 -116.414, 22.891 -110.824, 17.013 -110.824, 15.197 -116.414, 19.952 -119.869"/>
<polygon class="line_style_1 fill_style_2" points="67.583 -51.011, 69.399 -45.421, 64.644 -41.966, 59.888 -45.421, 61.705 -51.011"/>
<polygon class="line_style_1 fill_style_2" points="52.194 -46.011, 50.378 -51.602, 55.133 -55.056, 59.888 -51.602, 58.072 -46.011"/>
<polygon class="line_style_1 fill_style_2" points="48.463 -30.211, 43.708 -26.756, 38.953 -30.211, 40.769 -35.801, 46.647 -35.801"/>
<polygon class="line_style_1 fill_style_2" points="38.953 -43.301, 43.708 -46.756, 48.463 -43.301, 46.647 -37.711, 40.769 -37.711"/>
<polygon class="line_style_1 fill_style_2" points="22.772 -41.966, 18.017 -45.421, 19.833 -51.011, 25.711 -51.011, 27.528 -45.421"/>
<polygon class="line_style_1 fill_style_2" points="32.283 -55.056, 37.038 -51.602, 35.222 -46.011, 29.344 -46.011, 27.528 -51.602"/>
<polygon class="line_style_1 fill_style_2" points="26.014 -70.033, 27.83 -75.623, 33.708 -75.623, 35.524 -70.033, 30.769 -66.578"/>
<polygon class="line_style_1 fill_style_2" points="41.402 -65.033, 39.586 -59.442, 33.708 -59.442, 31.892 -65.033, 36.647 -68.487"/>
<polygon class="line_style_1 fill_style_2" points="53.708 -75.623, 59.586 -75.623, 61.402 -70.033, 56.647 -66.578, 51.892 -70.033"/>
<polygon class="line_style_1 fill_style_2" points="53.708 -59.442, 47.83 -59.442, 46.014 -65.033, 50.769 -68.487, 55.524 -65.033"/>
<polygon class="line_style_1 fill_style_2" points="-172.711 -166.411, -176.166 -171.166, -172.711 -175.921, -167.121 -174.105, -167.121 -168.227"/>
<polygon class="line_style_1 fill_style_2" points="-159.621 -175.921, -156.166 -171.166, -159.621 -166.411, -165.211 -168.227, -165.211 -174.105"/>
<polygon class="line_style_1 fill_style_2" points="-160.955 -192.102, -157.5 -196.857, -151.91 -195.04, -151.91 -189.163, -157.5 -187.346"/>
<polygon class="line_style_1 fill_style_2" points="-147.865 -182.591, -151.32 -177.836, -156.91 -179.652, -156.91 -185.53, -151.32 -187.346"/>
<polygon class="line_style_1 fill_style_2" points="-132.889 -188.86, -127.299 -187.044, -127.299 -181.166, -132.889 -179.35, -136.344 -184.105"/>
<polygon class="line_style_1 fill_style_2" points="-137.889 -173.472, -143.479 -175.288, -143.479 -181.166, -137.889 -182.982, -134.434 -178.227"/>
<polygon class="line_style_1 fill_style_2" points="-127.299 -161.166, -127.299 -155.288, -132.889 -153.472, -136.344 -158.227, -132.889 -162.982"/>
<polygon class="line_style_1 fill_style_2" points="-143.479 -161.166, -143.479 -167.044, -137.889 -168.86, -134.434 -164.105, -137.889 -159.35"/>
<polygon class="line_style_1 fill_style_2" points="-151.91 -147.291, -157.5 -145.475, -160.955 -150.23, -157.5 -154.986, -151.91 -153.169"/>
<polygon class="line_style_1 fill_style_2" points="-156.91 -162.68, -151.32 -164.496, -147.865 -159.741, -151.32 -154.986, -156.91 -156.802"/>
<polygon class="line_style_1 fill_style_2" points="-129.2 -235.809, -125.745 -240.565, -120.154 -238.748, -120.154 -232.871, -125.745 -231.054"/>
<polygon class="line_style_1 fill_style_2" points="-116.109 -226.299, -119.564 -221.544, -125.154 -223.36, -125.154 -229.238, -119.564 -231.054"/>
<polygon class="line_style_1 fill_style_2" points="-101.133 -232.568, -95.543 -230.752, -95.543 -224.874, -101.133 -223.058, -104.588 -227.813"/>
<polygon class="line_style_1 fill_style_2" points="-106.133 -217.18, -111.724 -218.996, -111.724 -224.874, -106.133 -226.69, -102.678 -221.935"/>
<polygon class="line_style_1 fill_style_2" points="-95.543 -204.874, -95.543 -198.996, -101.133 -197.18, -104.588 -201.935, -101.133 -206.69"/>
<polygon class="line_style_1 fill_style_2" points="-111.724 -204.874, -111.724 -210.752, -106.133 -212.568, -102.678 -207.813, -106.133 -203.058"/>
<polygon class="line_style_1 fill_style_2" points="-120.154 -190.999, -125.745 -189.183, -129.2 -193.938, -125.745 -198.694, -120.154 -196.877"/>
<polygon class="line_style_1 fill_style_2" points="-125.154 -206.388, -119.564 -208.204, -116.109 -203.449, -119.564 -198.694, -125.154 -200.51"/>
<polygon class="line_style_1 fill_style_2" points="-140.955 -210.119, -144.41 -214.874, -140.955 -219.629, -135.365 -217.813, -135.365 -211.935"/>
<polygon class="line_style_1 fill_style_2" points="-127.865 -219.629, -124.41 -214.874, -127.865 -210.119, -133.455 -211.935, -133.455 -217.813"/>
<polygon class="line_style_1 fill_style_2" points="-49.752 -215.873, -44.161 -214.057, -44.161 -208.179, -49.752 -206.363, -53.206 -211.118"/>
<polygon class="line_style_1 fill_style_2" points="-54.752 -200.485, -60.342 -202.301, -60.342 -208.179, -54.752 -209.995, -51.297 -205.24"/>
<polygon class="line_style_1 fill_style_2" points="-44.161 -188.179, -44.161 -182.301, -49.752 -180.485, -53.206 -185.24, -49.752 -189.995"/>
<polygon class="line_style_1 fill_style_2" points="-60.342 -188.179, -60.342 -194.057, -54.752 -195.873, -51.297 -191.118, -54.752 -186.363"/>
<polygon class="line_style_1 fill_style_2" points="-68.773 -174.304, -74.363 -172.488, -77.818 -177.243, -74.363 -181.999, -68.773 -180.182"/>
<polygon class="line_style_1 fill_style_2" points="-73.773 -189.693, -68.183 -191.509, -64.728 -186.754, -68.183 -181.999, -73.773 -183.815"/>
<polygon class="line_style_1 fill_style_2" points="-89.573 -193.424, -93.028 -198.179, -89.573 -202.934, -83.983 -201.118, -83.983 -195.24"/>
<polygon class="line_style_1 fill_style_2" points="-76.483 -202.934, -73.028 -198.179, -76.483 -193.424, -82.073 -195.24, -82.073 -201.118"/>
<polygon class="line_style_1 fill_style_2" points="-77.818 -219.115, -74.363 -223.87, -68.773 -222.053, -68.773 -216.176, -74.363 -214.359"/>
<polygon class="line_style_1 fill_style_2" points="-64.728 -209.604, -68.183 -204.849, -73.773 -206.665, -73.773 -212.543, -68.183 -214.359"/>
<polygon class="line_style_1 fill_style_2" points="-44.161 -134.153, -44.161 -128.275, -49.752 -126.459, -53.206 -131.214, -49.752 -135.969"/>
<polygon class="line_style_1 fill_style_2" points="-60.342 -134.153, -60.342 -140.031, -54.752 -141.847, -51.297 -137.092, -54.752 -132.337"/>
<polygon class="line_style_1 fill_style_2" points="-68.773 -120.278, -74.363 -118.462, -77.818 -123.217, -74.363 -127.973, -68.773 -126.156"/>
<polygon class="line_style_1 fill_style_2" points="-73.773 -135.667, -68.183 -137.483, -64.728 -132.728, -68.183 -127.973, -73.773 -129.789"/>
<polygon class="line_style_1 fill_style_2" points="-89.573 -139.398, -93.028 -144.153, -89.573 -148.908, -83.983 -147.092, -83.983 -141.214"/>
<polygon class="line_style_1 fill_style_2" points="-76.483 -148.908, -73.028 -144.153, -76.483 -139.398, -82.073 -141.214, -82.073 -147.092"/>
<polygon class="line_style_1 fill_style_2" points="-77.818 -165.089, -74.363 -169.844, -68.773 -168.027, -68.773 -162.15, -74.363 -160.333"/>
<polygon class="line_style_1 fill_style_2" points="-64.728 -155.578, -68.183 -150.823, -73.773 -152.639, -73.773 -158.517, -68.183 -160.333"/>
<polygon class="line_style_1 fill_style_2" points="-49.752 -161.847, -44.161 -160.031, -44.161 -154.153, -49.752 -152.337, -53.206 -157.092"/>
<polygon class="line_style_1 fill_style_2" points="-54.752 -146.459, -60.342 -148.275, -60.342 -154.153, -54.752 -155.969, -51.297 -151.214"/>
<polygon class="line_style_1 fill_style_2" points="-120.154 -103.583, -125.745 -101.767, -129.2 -106.522, -125.745 -111.278, -120.154 -109.461"/>
<polygon class="line_style_1 fill_style_2" points="-125.154 -118.972, -119.564 -120.788, -116.109 -116.033, -119.564 -111.278, -125.154 -113.094"/>
<polygon class="line_style_1 fill_style_2" points="-140.955 -122.703, -144.41 -127.458, -140.955 -132.213, -135.365 -130.397, -135.365 -124.519"/>
<polygon class="line_style_1 fill_style_2" points="-127.865 -132.213, -124.41 -127.458, -127.865 -122.703, -133.455 -124.519, -133.455 -130.397"/>
<polygon class="line_style_1 fill_style_2" points="-129.2 -148.394, -125.745 -153.149, -120.154 -151.332, -120.154 -145.455, -125.745 -143.638"/>
<polygon class="line_style_1 fill_style_2" points="-116.109 -138.883, -119.564 -134.128, -125.154 -135.944, -125.154 -141.822, -119.564 -143.638"/>
<polygon class="line_style_1 fill_style_2" points="-101.133 -145.152, -95.543 -143.336, -95.543 -137.458, -101.133 -135.642, -104.588 -140.397"/>
<polygon class="line_style_1 fill_style_2" points="-106.133 -129.764, -111.724 -131.58, -111.724 -137.458, -106.133 -139.274, -102.678 -134.519"/>
<polygon class="line_style_1 fill_style_2" points="-95.543 -117.458, -95.543 -111.58, -101.133 -109.764, -104.588 -114.519, -101.133 -119.274"/>
<polygon class="line_style_1 fill_style_2" points="-111.724 -117.458, -111.724 -123.336, -106.133 -125.152, -102.678 -120.397, -106.133 -115.642"/>
<polygon class="line_style_1 fill_style_2" points="-4.755 -343.877, 0.0 -347.332, 4.755 -343.877, 2.939 -338.287, -2.939 -338.287"/>
<polygon class="line_style_1 fill_style_2" points="4.755 -330.787, 0.0 -327.332, -4.755 -330.787, -2.939 -336.377, 2.939 -336.377"/>
<polygon class="line_style_1 fill_style_2" points="20.936 -332.121, 25.691 -328.666, 23.875 -323.076, 17.997 -323.076, 16.18 -328.666"/>
<polygon class="line_style_1 fill_style_2" points="11.425 -319.031, 6.67 -322.486, 8.486 -328.076, 14.364 -328.076, 16.18 -322.486"/>
<polygon class="line_style_1 fill_style_2" points="17.694 -304.055, 15.878 -298.465, 10.0 -298.465, 8.184 -304.055, 12.939 -307.51"/>
<polygon class="line_style_1 fill_style_2" points="2.306 -309.055, 4.122 -314.645, 10.0 -314.645, 11.816 -309.055, 7.061 -305.6"/>
<polygon class="line_style_1 fill_style_2" points="-10.0 -298.465, -15.878 -298.465, -17.694 -304.055, -12.939 -307.51, -8.184 -304.055"/>
<polygon class="line_style_1 fill_style_2" points="-10.0 -314.645, -4.122 -314.645, -2.306 -309.055, -7.061 -305.6, -11.816 -309.055"/>
<polygon class="line_style_1 fill_style_2" points="-23.875 -323.076, -25.691 -328.666, -20.936 -332.121, -16.18 -328.666, -17.997 -323.076"/>
<polygon class="line_style_1 fill_style_2" points="-8.486 -328.076, -6.67 -322.486, -11.425 -319.031, -16.18 -322.486, -14.364 -328.076"/>
<polygon class="line_style_1 fill_style_2" points="64.644 -300.365, 69.399 -296.911, 67.583 -291.32, 61.705 -291.32, 59.888 -296.911"/>
<polygon class="line_style_1 fill_style_2" points="55.133 -287.275, 50.378 -290.73, 52.194 -296.32, 58.072 -296.32, 59.888 -290.73"/>
<polygon class="line_style_1 fill_style_2" points="61.402 -272.299, 59.586 -266.709, 53.708 -266.709, 51.892 -272.299, 56.647 -275.754"/>
<polygon class="line_style_1 fill_style_2" points="46.014 -277.299, 47.83 -282.889, 53.708 -282.889, 55.524 -277.299, 50.769 -273.844"/>
<polygon class="line_style_1 fill_style_2" points="33.708 -266.709, 27.83 -266.709, 26.014 -272.299, 30.769 -275.754, 35.524 -272.299"/>
<polygon class="line_style_1 fill_style_2" points="33.708 -282.889, 39.586 -282.889, 41.402 -277.299, 36.647 -273.844, 31.892 -277.299"/>
<polygon class="line_style_1 fill_style_2" points="19.833 -291.32, 18.017 -296.911, 22.772 -300.365, 27.528 -296.911, 25.711 -291.32"/>
<polygon class="line_style_1 fill_style_2" points="35.222 -296.32, 37.038 -290.73, 32.283 -287.275, 27.528 -290.73, 29.344 -296.32"/>
<polygon class="line_style_1 fill_style_2" points="38.953 -312.121, 43.708 -315.576, 48.463 -312.121, 46.647 -306.531, 40.769 -306.531"/>
<polygon class="line_style_1 fill_style_2" points="48.463 -299.031, 43.708 -295.576, 38.953 -299.031, 40.769 -304.621, 46.647 -304.621"/>
<polygon class="line_style_1 fill_style_2" points="44.707 -220.917, 42.891 -215.327, 37.013 -215.327, 35.197 -220.917, 39.952 -224.372"/>
<polygon class="line_style_1 fill_style_2" points="29.319 -225.917, 31.135 -231.508, 37.013 -231.508, 38.829 -225.917, 34.074 -222.463"/>
<polygon class="line_style_1 fill_style_2" points="17.013 -215.327, 11.135 -215.327, 9.319 -220.917, 14.074 -224.372, 18.829 -220.917"/>
<polygon class="line_style_1 fill_style_2" points="17.013 -231.508, 22.891 -231.508, 24.707 -225.917, 19.952 -222.463, 15.197 -225.917"/>
<polygon class="line_style_1 fill_style_2" points="3.138 -239.939, 1.322 -245.529, 6.077 -248.984, 10.833 -245.529, 9.016 -239.939"/>
<polygon class="line_style_1 fill_style_2" points="18.527 -244.939, 20.343 -239.348, 15.588 -235.893, 10.833 -239.348, 12.649 -244.939"/>
<polygon class="line_style_1 fill_style_2" points="22.258 -260.739, 27.013 -264.194, 31.768 -260.739, 29.952 -255.149, 24.074 -255.149"/>
<polygon class="line_style_1 fill_style_2" points="31.768 -247.649, 27.013 -244.194, 22.258 -247.649, 24.074 -253.239, 29.952 -253.239"/>
<polygon class="line_style_1 fill_style_2" points="47.949 -248.984, 52.704 -245.529, 50.888 -239.939, 45.01 -239.939, 43.193 -245.529"/>
<polygon class="line_style_1 fill_style_2" points="38.438 -235.893, 33.683 -239.348, 35.499 -244.939, 41.377 -244.939, 43.193 -239.348"/>
<polygon class="line_style_1 fill_style_2" points="-37.013 -215.327, -42.891 -215.327, -44.707 -220.917, -39.952 -224.372, -35.197 -220.917"/>
<polygon class="line_style_1 fill_style_2" points="-37.013 -231.508, -31.135 -231.508, -29.319 -225.917, -34.074 -222.463, -38.829 -225.917"/>
<polygon class="line_style_1 fill_style_2" points="-50.888 -239.939, -52.704 -245.529, -47.949 -248.984, -43.193 -245.529, -45.01 -239.939"/>
<polygon class="line_style_1 fill_style_2" points="-35.499 -244.939, -33.683 -239.348, -38.438 -235.893, -43.193 -239.348, -41.377 -244.939"/>
<polygon class="line_style_1 fill_style_2" points="-31.768 -260.739, -27.013 -264.194, -22.258 -260.739, -24.074 -255.149, -29.952 -255.149"/>
<polygon class="line_style_1 fill_style_2" points="-22.258 -247.649, -27.013 -244.194, -31.768 -247.649, -29.952 -253.239, -24.074 -253.239"/>
<polygon class="line_style_1 fill_style_2" points="-6.077 -248.984, -1.322 -245.529, -3.138 -239.939, -9.016 -239.939, -10.833 -245.529"/>
<polygon class="line_style_1 fill_style_2" points="-15.588 -235.893, -20.343 -239.348, -18.527 -244.939, -12.649 -244.939, -10.833 -239.348"/>
<polygon class="line_style_1 fill_style_2" points="-9.319 -220.917, -11.135 -215.327, -17.013 -215.327, -18.829 -220.917, -14.074 -224.372"/>
<polygon class="line_style_1 fill_style_2" points="-24.707 -225.917, -22.891 -231.508, -17.013 -231.508, -15.197 -225.917, -19.952 -222.463"/>
<polygon class="line_style_1 fill_style_2" points="-67.583 -291.32, -69.399 -296.911, -64.644 -300.365, -59.888 -296.911, -61.705 -291.32"/>
<polygon class="line_style_1 fill_style_2" points="-52.194 -296.32, -50.378 -290.73, -55.133 -287.275, -59.888 -290.73, -58.072 -296.32"/>
<polygon class="line_style_1 fill_style_2" points="-48.463 -312.121, -43.708 -315.576, -38.953 -312.121, -40.769 -306.531, -46.647 -306.531"/>
<polygon class="line_style_1 fill_style_2" points="-38.953 -299.031, -43.708 -295.576, -48.463 -299.031, -46.647 -304.621, -40.769 -304.621"/>
<polygon class="line_style_1 fill_style_2" points="-22.772 -300.365, -18.017 -296.911, -19.833 -291.32, -25.711 -291.32, -27.528 -296.911"/>
<polygon class="line_style_1 fill_style_2" points="-32.283 -287.275, -37.038 -290.73, -35.222 -296.32, -29.344 -296.32, -27.528 -290.73"/>
<polygon class="line_style_1 fill_style_2" points="-26.014 -272.299, -27.83 -266.709, -33.708 -266.709, -35.524 -272.299, -30.769 -275.754"/>
<polygon class="line_style_1 fill_style_2" points="-41.402 -277.299, -39.586 -282.889, -33.708 -282.889, -31.892 -277.299, -36.647 -273.844"/>
<polygon class="line_style_1 fill_style_2" points="-53.708 -266.709, -59.586 -266.709, -61.402 -272.299, -56.647 -275.754, -51.892 -272.299"/>
<polygon class="line_style_1 fill_style_2" points="-53.708 -282.889, -47.83 -282.889, -46.014 -277.299, -50.769 -273.844, -55.524 -277.299"/>
<polygon class="line_style_1 fill_style_2" points="172.711 -175.921, 176.166 -171.166, 172.711 -166.411, 167.121 -168.227, 167.121 -174.105"/>
<polygon class="line_style_1 fill_style_2" points="159.621 -166.411, 156.166 -171.166, 159.621 -175.921, 165.211 -174.105, 165.211 -168.227"/>
<polygon class="line_style_1 fill_style_2" points="160.955 -150.23, 157.5 -145.475, 151.91 -147.291, 151.91 -153.169, 157.5 -154.986"/>
<polygon class="line_style_1 fill_style_2" points="147.865 -159.741, 151.32 -164.496, 156.91 -162.68, 156.91 -156.802, 151.32 -154.986"/>
<polygon class="line_style_1 fill_style_2" points="132.889 -153.472, 127.299 -155.288, 127.299 -161.166, 132.889 -162.982, 136.344 -158.227"/>
<polygon class="line_style_1 fill_style_2" points="137.889 -168.86, 143.479 -167.044, 143.479 -161.166, 137.889 -159.35, 134.434 -164.105"/>
<polygon class="line_style_1 fill_style_2" points="127.299 -181.166, 127.299 -187.044, 132.889 -188.86, 136.344 -184.105, 132.889 -179.35"/>
<polygon class="line_style_1 fill_style_2" points="143.479 -181.166, 143.479 -175.288, 137.889 -173.472, 134.434 -178.227, 137.889 -182.982"/>
<polygon class="line_style_1 fill_style_2" points="151.91 -195.04, 157.5 -196.857, 160.955 -192.102, 157.5 -187.346, 151.91 -189.163"/>
<polygon class="line_style_1 fill_style_2" points="156.91 -179.652, 151.32 -177.836, 147.865 -182.591, 151.32 -187.346, 156.91 -185.53"/>
<polygon class="line_style_1 fill_style_2" points="129.2 -106.522, 125.745 -101.767, 120.154 -103.583, 120.154 -109.461, 125.745 -111.278"/>
<polygon class="line_style_1 fill_style_2" points="116.109 -116.033, 119.564 -120.788, 125.154 -118.972, 125.154 -113.094, 119.564 -111.278"/>
<polygon class="line_style_1 fill_style_2" points="101.133 -109.764, 95.543 -111.58, 95.543 -117.458, 101.133 -119.274, 104.588 -114.519"/>
<polygon class="line_style_1 fill_style_2" points="106.133 -125.152, 111.724 -123.336, 111.724 -117.458, 106.133 -115.642, 102.678 -120.397"/>
<polygon class="line_style_1 fill_style_2" points="95.543 -137.458, 95.543 -143.336, 101.133 -145.152, 104.588 -140.397, 101.133 -135.642"/>
<polygon class="line_style_1 fill_style_2" points="111.724 -137.458, 111.724 -131.58, 106.133 -129.764, 102.678 -134.519, 106.133 -139.274"/>
<polygon class="line_style_1 fill_style_2" points="120.154 -151.332, 125.745 -153.149, 129.2 -148.394, 125.745 -143.638, 120.154 -145.455"/>
<polygon class="line_style_1 fill_style_2" points="125.154 -135.944, 119.564 -134.128, 116.109 -138.883, 119.564 -143.638, 125.154 -141.822"/>
<polygon class="line_style_1 fill_style_2" points="140.955 -132.213, 144.41 -127.458, 140.955 -122.703, 135.365 -124.519, 135.365 -130.397"/>
<polygon class="line_style_1 fill_style_2" points="127.865 -122.703, 124.41 -127.458, 127.865 -132.213, 133.455 -130.397, 133.455 -124.519"/>
<polygon class="line_style_1 fill_style_2" points="49.752 -126.459, 44.161 -128.275, 44.161 -134.153, 49.752 -135.969, 53.206 -131.214"/>
<polygon class="line_style_1 fill_style_2" points="54.752 -141.847, 60.342 -140.031, 60.342 -134.153, 54.752 -132.337, 51.297 -137.092"/>
<polygon class="line_style_1 fill_style_2" points="44.161 -154.153, 44.161 -160.031, 49.752 -161.847, 53.206 -157.092, 49.752 -152.337"/>
<polygon class="line_style_1 fill_style_2" points="60.342 -154.153, 60.342 -148.275, 54.752 -146.459, 51.297 -151.214, 54.752 -155.969"/>
<polygon class="line_style_1 fill_style_2" points="68.773 -168.027, 74.363 -169.844, 77.818 -165.089, 74.363 -160.333, 68.773 -162.15"/>
<polygon class="line_style_1 fill_style_2" points="73.773 -152.639, 68.183 -150.823, 64.728 -155.578, 68.183 -160.333, 73.773 -158.517"/>
<polygon class="line_style_1 fill_style_2" points="89.573 -148.908, 93.028 -144.153, 89.573 -139.398, 83.983 -141.214, 83.983 -147.092"/>
<polygon class="line_style_1 fill_style_2" points="76.483 -139.398, 73.028 -144.153, 76.483 -148.908, 82.073 -147.092, 82.073 -141.214"/>
<polygon class="line_style_1 fill_style_2" points="77.818 -123.217, 74.363 -118.462, 68.773 -120.278, 68.773 -126.156, 74.363 -127.973"/>
<polygon class="line_style_1 fill_style_2" points="64.728 -132.728, 68.183 -137.483, 73.773 -135.667, 73.773 -129.789, 68.183 -127.973"/>
<polygon class="line_style_1 fill_style_2" points="44.161 -208.179, 44.161 -214.057, 49.752 -215.873, 53.206 -211.118, 49.752 -206.363"/>
<polygon class="line_style_1 fill_style_2" points="60.342 -208.179, 60.342 -202.301, 54.752 -200.485, 51.297 -205.24, 54.752 -209.995"/>
<polygon class="line_style_1 fill_style_2" points="68.773 -222.053, 74.363 -223.87, 77.818 -219.115, 74.363 -214.359, 68.773 -216.176"/>
<polygon class="line_style_1 fill_style_2" points="73.773 -206.665, 68.183 -204.849, 64.728 -209.604, 68.183 -214.359, 73.773 -212.543"/>
<polygon class="line_style_1 fill_style_2" points="89.573 -202.934, 93.028 -198.179, 89.573 -193.424, 83.983 -195.24, 83.983 -201.118"/>
<polygon class="line_style_1 fill_style_2" points="76.483 -193.424, 73.028 -198.179, 76.483 -202.934, 82.073 -201.118, 82.073 -195.24"/>
<polygon class="line_style_1 fill_style_2" points="77.818 -177.243, 74.363 -172.488, 68.773 -174.304, 68.773 -180.182, 74.363 -181.999"/>
<polygon class="line_style_1 fill_style_2" points="64.728 -186.754, 68.183 -191.509, 73.773 -189.693, 73.773 -183.815, 68.183 -181.999"/>
<polygon class="line_style_1 fill_style_2" points="49.752 -180.485, 44.161 -182.301, 44.161 -188.179, 49.752 -189.995, 53.206 -185.24"/>
<polygon class="line_style_1 fill_style_2" points="54.752 -195.873, 60.342 -194.057, 60.342 -188.179, 54.752 -186.363, 51.297 -191.118"/>
<polygon class="line_style_1 fill_style_2" points="120.154 -238.748, 125.745 -240.565, 129.2 -235.809, 125.745 -231.054, 120.154 -232.871"/>
<polygon class="line_style_1 fill_style_2" points="125.154 -223.36, 119.564 -221.544, 116.109 -226.299, 119.564 -231.054, 125.154 -229.238"/>
<polygon class="line_style_1 fill_style_2" points="140.955 -219.629, 144.41 -214.874, 140.955 -210.119, 135.365 -211.935, 135.365 -217.813"/>
<polygon class="line_style_1 fill_style_2" points="127.865 -210.119, 124.41 -214.874, 127.865 -219.629, 133.455 -217.813, 133.455 -211.935"/>
<polygon class="line_style_1 fill_style_2" points="129.2 -193.938, 125.745 -189.183, 120.154 -190.999, 120.154 -196.877, 125.745 -198.694"/>
<polygon class="line_style_1 fill_style_2" points="116.109 -203.449, 119.564 -208.204, 125.154 -206.388, 125.154 -200.51, 119.564 -198.694"/>
<polygon class="line_style_1 fill_style_2" points="101.133 -197.18, 95.543 -198.996, 95.543 -204.874, 101.133 -206.69, 104.588 -201.935"/>
<polygon class="line_style_1 fill_style_2" points="106.133 -212.568, 111.724 -210.752, 111.724 -204.874, 106.133 -203.058, 102.678 -207.813"/>
<polygon class="line_style_1 fill_style_2" points="95.543 -224.874, 95.543 -230.752, 101.133 -232.568, 104.588 -227.813, 101.133 -223.058"/>
<polygon class="line_style_1 fill_style_2" points="111.724 -224.874, 111.724 -218.996, 106.133 -217.18, 102.678 -221.935, 106.133 -226.69"/>
   </g>
</svg>