<svg xmlns="http://www.w3.org/2000/svg" width="982.2144833092015pt" height="1609.0287746695822pt" viewBox="-90.66364487472872 -77.5 982.2144833092015 1609.0287746695822">
    <style>
.line_style_1 {stroke: rgb(0, 0, 0)}
.fill_style_1 {fill: none; fill-rule: evenodd}
.fill_style_2 {fill: rgb(219, 180, 12); fill-rule: evenodd}
</style>
    <g transform="translate(0 1454.0287746695822) scale(1,-1)">
    <rect x="-90.66364487472872" y="-77.5" width="982.2144833092015" height="1609.0287746695822" fill="rgb(255, 255, 255)"/>



<polyline class="line_style_1 fill_style_1" fill-rule="evenodd" points="0.0 35.0, 0.0 -35.0"/>
<polygon class="line_style_1 fill_style_2" fill-rule="evenodd" points="160.0 28.135, 127.513 -28.135, 192.487 -28.135"/>
<polygon class="line_style_1 fill_style_2" fill-rule="evenodd" points="320.0 52.5, 320.0 17.5, 320.0 -52.5, 320.0 -17.5"/>
<polygon class="line_style_1 fill_style_2" fill-rule="evenodd" points="480.0 39.877, 438.071 9.414, 454.087 -39.877, 505.913 -39.877, 521.929 9.414"/>
<polygon class="line_style_1 fill_style_2" fill-rule="evenodd" points="640.0 40.317, 640.0 7.83, 593.446 -40.317, 621.58 -24.074, 686.554 -40.317, 658.42 -24.074"/>
<polygon class="line_style_1 fill_style_2" fill-rule="evenodd" points="800.0 46.401, 761.832 28.021, 752.406 -13.28, 778.818 -46.401, 821.182 -46.401, 847.594 -13.28, 838.168 28.021"/>
<polygon class="line_style_1 fill_style_2" fill-rule="evenodd" points="0.0 221.25, 0.0 203.75, 0.0 168.75, 0.0 186.25, 0.0 98.75, 0.0 116.25, 0.0 151.25, 0.0 133.75"/>
<polygon class="line_style_1 fill_style_2" fill-rule="evenodd" points="160.0 201.192, 144.923 175.077, 175.077 175.077, 112.436 118.808, 142.59 118.808, 127.513 144.923, 207.564 118.808, 192.487 144.923, 177.41 118.808"/>
<polygon class="line_style_1 fill_style_2" fill-rule="evenodd" points="320.0 211.596, 320.0 185.683, 265.749 172.18, 290.394 164.173, 286.471 108.404, 301.702 129.368, 353.529 108.404, 338.298 129.368, 374.251 172.18, 349.606 164.173"/>
<polygon class="line_style_1 fill_style_2" fill-rule="evenodd" points="480.0 213.507, 450.474 204.838, 430.322 181.581, 425.942 151.122, 438.726 123.13, 464.614 106.493, 495.386 106.493, 521.274 123.13, 534.058 151.122, 529.678 181.581, 509.526 204.838"/>
<polygon class="line_style_1 fill_style_2" fill-rule="evenodd" points="640.0 206.409, 640.0 190.165, 640.0 157.678, 640.0 173.922, 586.412 113.591, 600.479 121.713, 628.614 137.957, 614.547 129.835, 693.588 113.591, 679.521 121.713, 651.386 137.957, 665.453 129.835"/>
<polygon class="line_style_1 fill_style_2" fill-rule="evenodd" points="800.0 215.662, 773.751 209.192, 753.516 191.265, 743.929 165.988, 747.188 139.15, 762.545 116.901, 786.483 104.338, 813.517 104.338, 837.455 116.901, 852.812 139.15, 856.071 165.988, 846.484 191.265, 826.249 209.192"/>
<polygon class="line_style_1 fill_style_2" fill-rule="evenodd" points="0.0 376.468, 0.0 355.286, -46.448 354.099, -29.888 340.893, -57.92 303.839, -37.269 308.552, -25.777 263.532, -16.586 282.616, 25.777 263.532, 16.586 282.616, 57.92 303.839, 37.269 308.552, 46.448 354.099, 29.888 340.893"/>
<polygon class="line_style_1 fill_style_2" fill-rule="evenodd" points="160.0 372.438, 147.974 351.607, 172.026 351.607, 104.864 332.379, 120.958 314.504, 128.391 337.38, 125.924 267.562, 147.897 277.346, 128.438 291.484, 194.076 267.562, 191.562 291.484, 172.103 277.346, 215.136 332.379, 191.609 337.38, 199.042 314.504"/>
<polygon class="line_style_1 fill_style_2" fill-rule="evenodd" points="320.0 385.625, 320.0 376.875, 320.0 359.375, 320.0 368.125, 320.0 324.375, 320.0 333.125, 320.0 350.625, 320.0 341.875, 320.0 254.375, 320.0 263.125, 320.0 280.625, 320.0 271.875, 320.0 315.625, 320.0 306.875, 320.0 289.375, 320.0 298.125"/>
<polygon class="line_style_1 fill_style_2" fill-rule="evenodd" points="480.0 378.631, 458.638 374.638, 440.162 363.197, 427.065 345.855, 421.118 324.953, 423.123 303.314, 432.81 283.86, 448.87 269.22, 469.134 261.369, 490.866 261.369, 511.13 269.22, 527.19 283.86, 536.877 303.314, 538.882 324.953, 532.935 345.855, 519.838 363.197, 501.362 374.638"/>
<polygon class="line_style_1 fill_style_2" fill-rule="evenodd" points="640.0 366.846, 640.0 351.769, 618.394 329.423, 631.451 336.962, 661.606 329.423, 648.549 336.962, 585.907 273.154, 598.964 280.693, 629.119 273.154, 616.062 280.693, 607.513 310.577, 607.513 295.499, 694.093 273.154, 681.036 280.693, 672.487 310.577, 672.487 295.499, 650.881 273.154, 663.938 280.693"/>
<polygon class="line_style_1 fill_style_2" fill-rule="evenodd" points="800.0 379.697, 780.483 376.44, 763.082 367.023, 749.681 352.465, 741.732 334.345, 740.099 314.627, 744.956 295.446, 755.778 278.881, 771.392 266.728, 790.107 260.303, 809.893 260.303, 828.608 266.728, 844.222 278.881, 855.044 295.446, 859.901 314.627, 858.268 334.345, 850.319 352.465, 836.918 367.023, 819.517 376.44"/>
<polygon class="line_style_1 fill_style_2" fill-rule="evenodd" points="0.0 537.456, 0.0 524.499, 0.0 498.586, 0.0 511.542, -60.413 493.563, -48.09 489.56, -23.445 481.552, -35.768 485.556, -37.337 422.544, -29.721 433.026, -14.49 453.991, -22.106 443.509, 37.337 422.544, 29.721 433.026, 14.49 453.991, 22.106 443.509, 60.413 493.563, 48.09 489.56, 23.445 481.552, 35.768 485.556"/>
<polygon class="line_style_1 fill_style_2" fill-rule="evenodd" points="160.0 537.19, 150.17 520.164, 169.83 520.164, 112.958 514.536, 120.14 496.234, 132.399 511.606, 101.339 463.632, 120.126 457.837, 115.751 477.004, 133.893 422.81, 150.138 433.885, 132.424 442.416, 186.107 422.81, 187.576 442.416, 169.862 433.885, 218.661 463.632, 204.249 477.004, 199.874 457.837, 207.042 514.536, 187.601 511.606, 199.86 496.234"/>
<polygon class="line_style_1 fill_style_2" fill-rule="evenodd" points="320.0 541.045, 320.0 525.658, 286.314 531.154, 294.633 518.21, 263.324 504.621, 277.32 498.229, 258.327 469.871, 273.557 472.061, 272.912 437.936, 284.54 448.012, 302.446 418.955, 306.781 433.718, 337.554 418.955, 333.219 433.718, 367.088 437.936, 355.46 448.012, 381.673 469.871, 366.443 472.061, 376.676 504.621, 362.68 498.229, 353.686 531.154, 345.367 518.21"/>
<polygon class="line_style_1 fill_style_2" fill-rule="evenodd" points="480.0 541.324, 463.378 539.039, 447.988 532.354, 434.973 521.766, 425.297 508.058, 419.678 492.248, 418.533 475.509, 421.947 459.081, 429.666 444.183, 441.118 431.921, 455.454 423.203, 471.611 418.676, 488.389 418.676, 504.546 423.203, 518.882 431.921, 530.334 444.183, 538.053 459.081, 541.467 475.509, 540.322 492.248, 534.703 508.058, 525.027 521.766, 512.012 532.354, 496.622 539.039"/>
<polygon class="line_style_1 fill_style_2" fill-rule="evenodd" points="640.0 529.454, 640.0 521.333, 640.0 505.089, 640.0 513.211, 640.0 472.602, 640.0 480.724, 640.0 496.967, 640.0 488.845, 582.895 430.546, 589.929 434.607, 603.996 442.728, 596.962 438.667, 632.131 458.972, 625.097 454.911, 611.03 446.789, 618.063 450.85, 697.105 430.546, 690.071 434.607, 676.004 442.728, 683.038 438.667, 647.869 458.972, 654.903 454.911, 668.97 446.789, 661.937 450.85"/>
<polygon class="line_style_1 fill_style_2" fill-rule="evenodd" points="800.0 534.639, 784.478 523.362, 790.407 505.115, 809.593 505.115, 815.522 523.362, 742.549 492.898, 748.478 474.652, 767.664 474.652, 773.593 492.898, 758.071 504.176, 764.494 425.361, 783.68 425.361, 789.608 443.608, 774.087 454.885, 758.565 443.608, 835.506 425.361, 841.435 443.608, 825.913 454.885, 810.392 443.608, 816.32 425.361, 857.451 492.898, 841.929 504.176, 826.407 492.898, 832.336 474.652, 851.522 474.652"/>
<polygon class="line_style_1 fill_style_2" fill-rule="evenodd" points="0.0 702.323, 0.0 688.805, -29.39 695.079, -23.108 683.11, -52.047 675.006, -40.922 667.328, -62.78 646.704, -49.362 645.075, -59.132 616.655, -46.493 621.449, -41.937 591.744, -32.973 601.862, -15.135 577.677, -11.9 590.802, 15.135 577.677, 11.9 590.802, 41.937 591.744, 32.973 601.862, 59.132 616.655, 46.493 621.449, 62.78 646.704, 49.362 645.075, 52.047 675.006, 40.922 667.328, 29.39 695.079, 23.108 683.11"/>
<polygon class="line_style_1 fill_style_2" fill-rule="evenodd" points="160.0 687.252, 153.003 675.132, 166.997 675.132, 137.925 649.017, 151.92 649.017, 144.923 661.137, 182.075 649.017, 175.077 661.137, 168.08 649.017, 105.438 592.748, 119.433 592.748, 112.436 604.868, 149.588 592.748, 142.59 604.868, 135.593 592.748, 127.513 630.983, 120.515 618.863, 134.51 618.863, 214.562 592.748, 207.564 604.868, 200.567 592.748, 192.487 630.983, 185.49 618.863, 199.485 618.863, 170.412 592.748, 184.407 592.748, 177.41 604.868"/>
<polygon class="line_style_1 fill_style_2" fill-rule="evenodd" points="320.0 701.501, 320.0 690.91, 320.0 669.728, 320.0 680.319, 269.412 677.139, 277.692 670.536, 294.252 657.329, 285.972 663.932, 256.918 622.398, 267.243 624.755, 287.893 629.468, 277.568 627.111, 291.926 578.499, 296.521 588.041, 305.711 607.125, 301.116 597.583, 348.074 578.499, 343.479 588.041, 334.289 607.125, 338.884 597.583, 383.082 622.398, 372.757 624.755, 352.107 629.468, 362.432 627.111, 370.588 677.139, 362.308 670.536, 345.748 657.329, 354.028 663.932"/>
<polygon class="line_style_1 fill_style_2" fill-rule="evenodd" points="480.0 702.985, 466.42 701.508, 453.476 697.146, 441.771 690.104, 431.854 680.71, 424.188 669.404, 419.132 656.715, 416.923 643.235, 417.662 629.595, 421.316 616.433, 427.715 604.365, 436.558 593.954, 447.432 585.687, 459.83 579.951, 473.17 577.015, 486.83 577.015, 500.17 579.951, 512.568 585.687, 523.442 593.954, 532.285 604.365, 538.684 616.433, 542.338 629.595, 543.077 643.235, 540.868 656.715, 535.812 669.404, 528.146 680.71, 518.229 690.104, 506.524 697.146, 493.58 701.508"/>
<polygon class="line_style_1 fill_style_2" fill-rule="evenodd" points="640.0 697.877, 640.0 685.85, 622.766 668.026, 633.181 674.04, 657.234 668.026, 646.819 674.04, 579.145 653.663, 590.583 649.946, 602.209 628.048, 599.708 639.812, 612.86 660.829, 603.923 652.782, 602.39 582.123, 609.459 591.853, 633.878 596.143, 621.917 597.4, 605.992 616.403, 610.884 605.416, 677.61 582.123, 670.541 591.853, 674.008 616.403, 669.116 605.416, 646.122 596.143, 658.083 597.4, 700.855 653.663, 689.417 649.946, 667.14 660.829, 676.077 652.782, 677.791 628.048, 680.292 639.812"/>
<polygon class="line_style_1 fill_style_2" fill-rule="evenodd" points="800.0 703.406, 787.204 702.105, 774.931 698.254, 763.685 692.012, 753.926 683.634, 746.053 673.463, 740.388 661.915, 737.164 649.463, 736.513 636.617, 738.46 623.903, 742.928 611.842, 749.731 600.926, 758.593 591.604, 769.15 584.256, 780.97 579.183, 793.569 576.594, 806.431 576.594, 819.03 579.183, 830.85 584.256, 841.407 591.604, 850.269 600.926, 857.072 611.842, 861.54 623.903, 863.487 636.617, 862.836 649.463, 859.612 661.915, 853.947 673.463, 846.074 683.634, 836.315 692.012, 825.069 698.254, 812.796 702.105"/>
<polygon class="line_style_1 fill_style_2" fill-rule="evenodd" points="0.0 867.812, 0.0 863.438, 0.0 854.688, 0.0 859.062, 0.0 837.188, 0.0 841.562, 0.0 850.312, 0.0 845.938, 0.0 802.188, 0.0 806.562, 0.0 815.312, 0.0 810.938, 0.0 832.812, 0.0 828.438, 0.0 819.688, 0.0 824.062, 0.0 732.188, 0.0 736.562, 0.0 745.312, 0.0 740.938, 0.0 762.812, 0.0 758.438, 0.0 749.688, 0.0 754.062, 0.0 797.812, 0.0 793.438, 0.0 784.688, 0.0 789.062, 0.0 767.188, 0.0 771.562, 0.0 780.312, 0.0 775.938"/>
<polygon class="line_style_1 fill_style_2" fill-rule="evenodd" points="160.0 861.586, 152.859 849.218, 167.141 849.218, 126.016 851.607, 126.695 837.342, 138.71 845.063, 102.821 824.84, 111.106 813.206, 117.038 826.197, 97.781 789.781, 111.039 784.473, 109.007 798.609, 112.494 757.563, 126.518 760.266, 117.165 771.059, 142.291 738.414, 152.627 748.27, 138.923 752.293, 177.709 738.414, 181.077 752.293, 167.373 748.27, 207.506 757.563, 202.835 771.059, 193.482 760.266, 222.219 789.781, 210.993 798.609, 208.961 784.473, 217.179 824.84, 202.962 826.197, 208.894 813.206, 193.984 851.607, 181.29 845.063, 193.305 837.342"/>
<polygon class="line_style_1 fill_style_2" fill-rule="evenodd" points="320.0 864.017, 320.0 853.152, 296.676 859.657, 300.601 849.525, 276.501 847.166, 283.822 839.136, 262.202 828.23, 271.929 823.387, 255.708 805.408, 266.528 804.405, 257.898 781.781, 268.349 784.754, 268.474 760.54, 277.146 767.088, 286.01 744.554, 291.73 753.793, 308.136 735.983, 310.132 746.663, 331.864 735.983, 329.868 746.663, 353.99 744.554, 348.27 753.793, 371.526 760.54, 362.854 767.088, 382.102 781.781, 371.651 784.754, 384.292 805.408, 373.472 804.405, 377.798 828.23, 368.071 823.387, 363.499 847.166, 356.178 839.136, 343.324 859.657, 339.399 849.525"/>
<polygon class="line_style_1 fill_style_2" fill-rule="evenodd" points="480.0 859.081, 467.313 849.863, 472.159 834.948, 487.841 834.948, 492.687 849.863, 431.402 835.678, 430.699 820.011, 445.381 814.5, 455.159 826.761, 446.52 839.85, 419.4 783.091, 431.21 772.772, 444.672 780.816, 441.183 796.105, 425.563 797.511, 453.03 740.919, 468.461 743.719, 470.566 759.26, 456.436 766.064, 445.599 754.729, 506.97 740.919, 514.401 754.729, 503.564 766.064, 489.434 759.26, 491.539 743.719, 540.6 783.091, 534.437 797.511, 518.817 796.105, 515.328 780.816, 528.79 772.772, 528.598 835.678, 513.48 839.85, 504.841 826.761, 514.619 814.5, 529.301 820.011"/>
<polygon class="line_style_1 fill_style_2" fill-rule="evenodd" points="640.0 849.673, 640.0 842.134, 640.0 827.057, 640.0 834.596, 615.13 806.596, 621.658 810.366, 634.716 817.904, 628.187 814.135, 664.87 806.596, 658.342 810.366, 645.284 817.904, 651.813 814.135, 582.643 750.327, 589.171 754.096, 602.229 761.635, 595.7 757.866, 632.383 750.327, 625.855 754.096, 612.797 761.635, 619.326 757.866, 607.513 793.404, 607.513 785.865, 607.513 770.788, 607.513 778.326, 697.357 750.327, 690.829 754.096, 677.771 761.635, 684.3 757.866, 672.487 793.404, 672.487 785.865, 672.487 770.788, 672.487 778.326, 647.617 750.327, 654.145 754.096, 667.203 761.635, 660.674 757.866"/>
<polygon class="line_style_1 fill_style_2" fill-rule="evenodd" points="800.0 864.411, 789.095 863.483, 778.503 860.725, 768.53 856.217, 759.462 850.089, 751.561 842.516, 745.053 833.716, 740.125 823.943, 736.921 813.478, 735.53 802.622, 735.995 791.688, 738.301 780.989, 742.382 770.833, 748.12 761.513, 755.351 753.298, 763.866 746.422, 773.421 741.084, 783.74 737.438, 794.528 735.589, 805.472 735.589, 816.26 737.438, 826.579 741.084, 836.134 746.422, 844.649 753.298, 851.88 761.513, 857.618 770.833, 861.699 780.989, 864.005 791.688, 864.47 802.622, 863.079 813.478, 859.875 823.943, 854.947 833.716, 848.439 842.516, 840.538 850.089, 831.47 856.217, 821.497 860.725, 810.905 863.483"/>
<polygon class="line_style_1 fill_style_2" fill-rule="evenodd" points="0.0 1024.61, 0.0 1014.717, -21.123 1021.085, -17.91 1011.728, -39.957 1010.893, -33.88 1003.085, -54.461 995.137, -46.178 989.726, -63.063 975.526, -53.472 973.097, -64.831 954.184, -54.972 955.001, -59.574 933.425, -50.514 937.399, -47.861 915.497, -40.583 922.197, -30.962 902.344, -26.253 911.044, -10.707 895.39, -9.079 905.149, 10.707 895.39, 9.079 905.149, 30.962 902.344, 26.253 911.044, 47.861 915.497, 40.583 922.197, 59.574 933.425, 50.514 937.399, 64.831 954.184, 54.972 955.001, 63.063 975.526, 53.472 973.097, 54.461 995.137, 46.178 989.726, 39.957 1010.893, 33.88 1003.085, 21.123 1021.085, 17.91 1011.728"/>
<polygon class="line_style_1 fill_style_2" fill-rule="evenodd" points="160.0 1022.801, 153.727 1011.935, 166.273 1011.935, 130.385 1015.501, 129.88 1002.965, 140.989 1008.795, 107.554 995.275, 112.933 983.94, 120.06 994.265, 96.738 966.756, 106.768 959.218, 108.281 971.673, 100.415 936.476, 112.799 934.464, 108.35 946.195, 117.741 911.374, 129.642 915.347, 120.251 923.667, 144.749 897.199, 153.441 906.248, 141.258 909.251, 175.251 897.199, 178.742 909.251, 166.559 906.248, 202.259 911.374, 199.749 923.667, 190.358 915.347, 219.585 936.476, 211.65 946.195, 207.201 934.464, 223.262 966.756, 211.719 971.673, 213.232 959.218, 212.446 995.275, 199.94 994.265, 207.067 983.94, 189.615 1015.501, 179.011 1008.795, 190.12 1002.965"/>
<polygon class="line_style_1 fill_style_2" fill-rule="evenodd" points="320.0 1020.386, 320.0 1013.907, 320.0 1000.951, 320.0 1007.429, 320.0 975.037, 320.0 981.516, 320.0 994.472, 320.0 987.994, 256.507 974.255, 262.668 972.253, 274.991 968.249, 268.829 970.251, 299.636 960.242, 293.474 962.244, 281.152 966.247, 287.313 964.246, 280.759 899.614, 284.567 904.855, 292.183 915.338, 288.375 910.096, 307.414 936.302, 303.606 931.061, 295.991 920.579, 299.798 925.82, 359.241 899.614, 355.433 904.855, 347.817 915.338, 351.625 910.096, 332.586 936.302, 336.394 931.061, 344.009 920.579, 340.202 925.82, 383.493 974.255, 377.332 972.253, 365.009 968.249, 371.171 970.251, 340.364 960.242, 346.526 962.244, 358.848 966.247, 352.687 964.246"/>
<polygon class="line_style_1 fill_style_2" fill-rule="evenodd" points="480.0 1024.927, 470.074 1024.165, 460.381 1021.897, 451.148 1018.176, 442.591 1013.088, 434.911 1006.755, 428.288 999.323, 422.877 990.967, 418.805 981.883, 416.167 972.284, 415.025 962.395, 415.406 952.448, 417.302 942.675, 420.667 933.306, 425.422 924.56, 431.457 916.643, 438.63 909.74, 446.772 904.013, 455.693 899.596, 465.184 896.592, 475.023 895.073, 484.977 895.073, 494.816 896.592, 504.307 899.596, 513.228 904.013, 521.37 909.74, 528.543 916.643, 534.578 924.56, 539.333 933.306, 542.698 942.675, 544.594 952.448, 544.975 962.395, 543.833 972.284, 541.195 981.883, 537.123 990.967, 531.712 999.323, 525.089 1006.755, 517.409 1013.088, 508.852 1018.176, 499.619 1021.897, 489.926 1024.165"/>
<polygon class="line_style_1 fill_style_2" fill-rule="evenodd" points="640.0 1021.862, 640.0 1012.032, 625.913 997.463, 634.426 1002.378, 654.087 997.463, 645.574 1002.378, 589.115 997.357, 596.8 991.228, 599.408 971.13, 600.873 980.851, 616.974 993.158, 607.823 989.566, 576.547 942.295, 586.131 944.482, 603.469 933.99, 596.783 941.196, 597.2 961.458, 594.303 952.064, 611.761 898.138, 616.026 906.995, 635.039 914.009, 625.236 913.274, 609.655 926.233, 615.193 918.111, 668.239 898.138, 663.974 906.995, 670.345 926.233, 664.807 918.111, 644.961 914.009, 654.764 913.274, 703.453 942.295, 693.869 944.482, 682.8 961.458, 685.697 952.064, 676.531 933.99, 683.217 941.196, 690.885 997.357, 683.2 991.228, 663.026 993.158, 672.177 989.566, 680.592 971.13, 679.127 980.851"/>
<polygon class="line_style_1 fill_style_2" fill-rule="evenodd" points="800.0 1025.151, 790.501 1024.456, 781.205 1022.385, 772.309 1018.983, 764.004 1014.321, 756.465 1008.5, 749.855 1001.644, 744.313 993.898, 739.959 985.428, 736.883 976.414, 735.153 967.048, 734.806 957.53, 735.847 948.063, 738.256 938.849, 741.981 930.083, 746.943 921.954, 753.035 914.633, 760.128 908.277, 768.071 903.022, 776.695 898.98, 785.815 896.236, 795.238 894.849, 804.762 894.849, 814.185 896.236, 823.305 898.98, 831.929 903.022, 839.872 908.277, 846.965 914.633, 853.057 921.954, 858.019 930.083, 861.744 938.849, 864.153 948.063, 865.194 957.53, 864.847 967.048, 863.117 976.414, 860.041 985.428, 855.687 993.898, 850.145 1001.644, 843.535 1008.5, 835.996 1014.321, 827.691 1018.983, 818.795 1022.385, 809.499 1024.456"/>
<polygon class="line_style_1 fill_style_2" fill-rule="evenodd" points="0.0 1184.814, 0.0 1177.12, 0.0 1161.734, 0.0 1169.427, -35.765 1174.312, -31.606 1167.84, -23.287 1154.896, -27.447 1161.368, -60.175 1146.141, -53.177 1142.945, -39.181 1136.554, -46.179 1139.75, -65.48 1109.246, -57.865 1110.34, -42.635 1112.53, -50.25 1111.435, -49.995 1075.339, -44.181 1080.377, -32.553 1090.453, -38.367 1085.415, -18.638 1055.186, -16.47 1062.568, -12.135 1077.331, -14.303 1069.95, 18.638 1055.186, 16.47 1062.568, 12.135 1077.331, 14.303 1069.95, 49.995 1075.339, 44.181 1080.377, 32.553 1090.453, 38.367 1085.415, 65.48 1109.246, 57.865 1110.34, 42.635 1112.53, 50.25 1111.435, 60.175 1146.141, 53.177 1142.945, 39.181 1136.554, 46.179 1139.75, 35.765 1174.312, 31.606 1167.84, 23.287 1154.896, 27.447 1161.368"/>
<polygon class="line_style_1 fill_style_2" fill-rule="evenodd" points="160.0 1178.267, 154.418 1168.6, 165.582 1168.6, 142.392 1147.769, 153.555 1147.769, 147.974 1157.437, 177.608 1147.769, 172.026 1157.437, 166.445 1147.769, 98.734 1133.755, 106.204 1125.459, 109.653 1136.076, 122.298 1107.584, 125.748 1118.201, 114.829 1115.88, 133.181 1141.077, 122.262 1138.756, 129.731 1130.46, 122.136 1061.733, 132.334 1066.273, 123.303 1072.835, 154.307 1076.057, 145.276 1082.618, 144.109 1071.516, 125.817 1096.756, 124.65 1085.654, 134.848 1090.194, 197.864 1061.733, 196.697 1072.835, 187.666 1066.273, 194.183 1096.756, 185.152 1090.194, 195.35 1085.654, 165.693 1076.057, 175.891 1071.516, 174.724 1082.618, 221.266 1133.755, 210.347 1136.076, 213.796 1125.459, 186.819 1141.077, 190.269 1130.46, 197.738 1138.756, 197.702 1107.584, 205.171 1115.88, 194.252 1118.201"/>
<polygon class="line_style_1 fill_style_2" fill-rule="evenodd" points="320.0 1185.499, 320.0 1177.11, 302.246 1183.059, 304.509 1174.98, 285.809 1175.919, 290.168 1168.751, 271.907 1164.609, 278.038 1158.883, 261.572 1149.968, 269.021 1146.109, 255.571 1133.082, 263.785 1131.375, 254.348 1115.203, 262.718 1115.775, 257.994 1097.657, 265.899 1100.466, 266.239 1081.745, 273.093 1086.583, 278.471 1068.648, 283.765 1075.155, 293.783 1059.336, 297.125 1067.031, 311.04 1054.501, 312.182 1062.812, 328.96 1054.501, 327.818 1062.812, 346.217 1059.336, 342.875 1067.031, 361.529 1068.648, 356.235 1075.155, 373.761 1081.745, 366.907 1086.583, 382.006 1097.657, 374.101 1100.466, 385.652 1115.203, 377.282 1115.775, 384.429 1133.082, 376.215 1131.375, 378.428 1149.968, 370.979 1146.109, 368.093 1164.609, 361.962 1158.883, 354.191 1175.919, 349.832 1168.751, 337.754 1183.059, 335.491 1174.98"/>
<polygon class="line_style_1 fill_style_2" fill-rule="evenodd" points="480.0 1185.544, 471.254 1184.959, 462.664 1183.213, 454.384 1180.337, 446.56 1176.384, 439.334 1171.423, 432.833 1165.543, 427.174 1158.85, 422.457 1151.461, 418.767 1143.51, 416.17 1135.138, 414.712 1126.495, 414.419 1117.734, 415.297 1109.013, 417.329 1100.486, 420.479 1092.306, 424.692 1084.619, 429.891 1077.562, 435.985 1071.262, 442.864 1065.829, 450.406 1061.362, 458.476 1057.94, 466.93 1055.624, 475.617 1054.456, 484.383 1054.456, 493.07 1055.624, 501.524 1057.94, 509.594 1061.362, 517.136 1065.829, 524.015 1071.262, 530.109 1077.562, 535.308 1084.619, 539.521 1092.306, 542.671 1100.486, 544.703 1109.013, 545.581 1117.734, 545.288 1126.495, 543.83 1135.138, 541.233 1143.51, 537.543 1151.461, 532.826 1158.85, 527.167 1165.543, 520.666 1171.423, 513.44 1176.384, 505.616 1180.337, 497.336 1183.213, 488.746 1184.959"/>
<polygon class="line_style_1 fill_style_2" fill-rule="evenodd" points="640.0 1170.977, 640.0 1166.916, 640.0 1158.794, 640.0 1162.855, 640.0 1142.551, 640.0 1146.612, 640.0 1154.734, 640.0 1150.673, 640.0 1110.064, 640.0 1114.125, 640.0 1122.246, 640.0 1118.186, 640.0 1138.49, 640.0 1134.429, 640.0 1126.307, 640.0 1130.368, 581.137 1069.023, 584.653 1071.053, 591.687 1075.114, 588.17 1073.084, 605.754 1083.236, 602.238 1081.206, 595.204 1077.145, 598.721 1079.175, 633.889 1099.48, 630.372 1097.449, 623.339 1093.388, 626.855 1095.419, 609.271 1085.266, 612.788 1087.297, 619.822 1091.358, 616.305 1089.327, 698.863 1069.023, 695.347 1071.053, 688.313 1075.114, 691.83 1073.084, 674.246 1083.236, 677.762 1081.206, 684.796 1077.145, 681.279 1079.175, 646.111 1099.48, 649.628 1097.449, 656.661 1093.388, 653.145 1095.419, 670.729 1085.266, 667.212 1087.297, 660.178 1091.358, 663.695 1089.327"/>
<polygon class="line_style_1 fill_style_2" fill-rule="evenodd" points="800.0 1180.442, 788.451 1174.88, 785.598 1162.383, 793.591 1152.36, 806.409 1152.36, 814.402 1162.383, 811.549 1174.88, 750.283 1156.499, 747.43 1144.002, 755.423 1133.98, 768.242 1133.98, 776.234 1144.002, 773.382 1156.499, 761.832 1162.061, 738.004 1102.701, 745.996 1092.679, 758.815 1092.679, 766.807 1102.701, 763.955 1115.198, 752.406 1120.76, 740.856 1115.198, 772.409 1059.558, 785.228 1059.558, 793.22 1069.58, 790.368 1082.078, 778.818 1087.64, 767.269 1082.078, 764.417 1069.58, 827.591 1059.558, 835.583 1069.58, 832.731 1082.078, 821.182 1087.64, 809.632 1082.078, 806.78 1069.58, 814.772 1059.558, 861.996 1102.701, 859.144 1115.198, 847.594 1120.76, 836.045 1115.198, 833.193 1102.701, 841.185 1092.679, 854.004 1092.679, 849.717 1156.499, 838.168 1162.061, 826.618 1156.499, 823.766 1144.002, 831.758 1133.98, 844.577 1133.98, 852.57 1144.002"/>
<polygon class="line_style_1 fill_style_2" fill-rule="evenodd" points="0.0 1338.977, 0.0 1329.384, -20.083 1324.386, -10.96 1321.421, -12.412 1300.776, -6.774 1308.537, 12.412 1300.776, 6.774 1308.537, 20.083 1324.386, 10.96 1321.421, -62.012 1293.923, -52.889 1290.958, -54.341 1270.313, -48.702 1278.074, -29.517 1270.313, -35.155 1278.074, -21.845 1293.923, -30.969 1290.958, -41.929 1308.514, -41.929 1298.921, -38.326 1221.023, -32.687 1228.784, -13.501 1221.023, -19.14 1228.784, -5.83 1244.632, -14.953 1241.668, -25.913 1259.224, -25.913 1249.631, -45.997 1244.632, -36.873 1241.668, 38.326 1221.023, 32.687 1228.784, 45.997 1244.632, 36.873 1241.668, 25.913 1259.224, 25.913 1249.631, 5.83 1244.632, 14.953 1241.668, 13.501 1221.023, 19.14 1228.784, 62.012 1293.923, 52.889 1290.958, 41.929 1308.514, 41.929 1298.921, 21.845 1293.923, 30.969 1290.958, 29.517 1270.313, 35.155 1278.074, 54.341 1270.313, 48.702 1278.074"/>
<polygon class="line_style_1 fill_style_2" fill-rule="evenodd" points="160.0 1344.404, 154.957 1335.67, 165.043 1335.67, 136.535 1340.018, 134.988 1330.051, 144.392 1333.695, 116.239 1327.451, 118.396 1317.599, 125.85 1324.393, 101.853 1308.401, 107.424 1299.993, 111.919 1309.022, 95.32 1285.44, 103.552 1279.613, 104.483 1289.656, 97.523 1261.671, 107.304 1259.211, 104.544 1268.911, 108.163 1240.302, 118.172 1241.541, 112.094 1249.59, 125.804 1224.219, 134.69 1228.991, 126.115 1234.3, 148.064 1215.596, 154.626 1223.255, 144.712 1225.108, 171.936 1215.596, 175.288 1225.108, 165.374 1223.255, 194.196 1224.219, 193.885 1234.3, 185.31 1228.991, 211.837 1240.302, 207.906 1249.59, 201.828 1241.541, 222.477 1261.671, 215.456 1268.911, 212.696 1259.211, 224.68 1285.44, 215.517 1289.656, 216.448 1279.613, 218.147 1308.401, 208.081 1309.022, 212.576 1299.993, 203.761 1327.451, 194.15 1324.393, 201.604 1317.599, 183.465 1340.018, 175.608 1333.695, 185.012 1330.051"/>
<polygon class="line_style_1 fill_style_2" fill-rule="evenodd" points="320.0 1345.653, 320.0 1338.894, 320.0 1325.377, 320.0 1332.136, 289.04 1338.022, 292.181 1332.037, 298.462 1320.068, 295.322 1326.053, 265.172 1316.877, 270.734 1313.038, 281.859 1305.359, 276.297 1309.198, 253.865 1287.062, 260.574 1286.248, 273.993 1284.618, 267.284 1285.433, 257.709 1255.408, 264.028 1257.805, 276.667 1262.598, 270.347 1260.201, 275.822 1229.166, 280.304 1234.225, 289.268 1244.342, 284.786 1239.284, 304.057 1214.347, 305.674 1220.909, 308.909 1234.034, 307.292 1227.472, 335.943 1214.347, 334.326 1220.909, 331.091 1234.034, 332.708 1227.472, 364.178 1229.166, 359.696 1234.225, 350.732 1244.342, 355.214 1239.284, 382.291 1255.408, 375.972 1257.805, 363.333 1262.598, 369.653 1260.201, 386.135 1287.062, 379.426 1286.248, 366.007 1284.618, 372.716 1285.433, 374.828 1316.877, 369.266 1313.038, 358.141 1305.359, 363.703 1309.198, 350.96 1338.022, 347.819 1332.037, 341.538 1320.068, 344.678 1326.053"/>
<polygon class="line_style_1 fill_style_2" fill-rule="evenodd" points="480.0 1346.027, 472.184 1345.563, 464.478 1344.178, 456.989 1341.891, 449.824 1338.735, 443.082 1334.753, 436.858 1330.002, 431.24 1324.548, 426.307 1318.468, 422.127 1311.847, 418.76 1304.779, 416.252 1297.361, 414.639 1289.699, 413.944 1281.9, 414.176 1274.074, 415.332 1266.33, 417.396 1258.777, 420.339 1251.521, 424.119 1244.664, 428.683 1238.303, 433.968 1232.525, 439.9 1227.414, 446.394 1223.04, 453.36 1219.464, 460.699 1216.738, 468.31 1214.899, 476.085 1213.973, 483.915 1213.973, 491.69 1214.899, 499.301 1216.738, 506.64 1219.464, 513.606 1223.04, 520.1 1227.414, 526.032 1232.525, 531.317 1238.303, 535.881 1244.664, 539.661 1251.521, 542.604 1258.777, 544.668 1266.33, 545.824 1274.074, 546.056 1281.9, 545.361 1289.699, 543.748 1297.361, 541.24 1304.779, 537.873 1311.847, 533.693 1318.468, 528.76 1324.548, 523.142 1330.002, 516.918 1334.753, 510.176 1338.735, 503.011 1341.891, 495.522 1344.178, 487.816 1345.563"/>
<polygon class="line_style_1 fill_style_2" fill-rule="evenodd" points="640.0 1329.876, 640.0 1322.879, 629.973 1312.508, 636.033 1316.007, 650.027 1312.508, 643.967 1316.007, 614.895 1286.393, 620.955 1289.892, 634.95 1286.393, 628.89 1289.892, 624.923 1303.761, 624.923 1296.764, 665.105 1286.393, 659.045 1289.892, 655.077 1303.761, 655.077 1296.764, 645.05 1286.393, 651.11 1289.892, 582.408 1230.124, 588.468 1233.623, 602.463 1230.124, 596.403 1233.623, 592.436 1247.492, 592.436 1240.495, 632.618 1230.124, 626.558 1233.623, 622.59 1247.492, 622.59 1240.495, 612.563 1230.124, 618.623 1233.623, 607.513 1273.607, 607.513 1266.609, 597.486 1256.239, 603.545 1259.737, 617.54 1256.239, 611.48 1259.737, 697.592 1230.124, 691.532 1233.623, 687.564 1247.492, 687.564 1240.495, 677.537 1230.124, 683.597 1233.623, 672.487 1273.607, 672.487 1266.609, 662.46 1256.239, 668.52 1259.737, 682.514 1256.239, 676.455 1259.737, 647.382 1230.124, 653.442 1233.623, 667.437 1230.124, 661.377 1233.623, 657.41 1247.492, 657.41 1240.495"/>
<polygon class="line_style_1 fill_style_2" fill-rule="evenodd" points="800.0 1343.002, 790.784 1336.306, 794.304 1325.471, 805.696 1325.471, 809.216 1336.306, 765.235 1332.794, 761.102 1322.178, 769.92 1314.967, 779.504 1321.126, 776.608 1332.143, 741.507 1305.41, 743.769 1294.246, 755.087 1292.947, 759.819 1303.309, 751.426 1311.012, 736.35 1269.546, 744.29 1261.377, 754.513 1266.403, 752.892 1277.679, 741.667 1279.622, 751.402 1236.587, 762.498 1234.007, 768.381 1243.763, 760.921 1252.372, 750.427 1247.937, 781.883 1216.998, 792.613 1220.827, 792.288 1232.214, 781.357 1235.423, 774.927 1226.02, 818.117 1216.998, 825.073 1226.02, 818.643 1235.423, 807.712 1232.214, 807.387 1220.827, 848.598 1236.587, 849.573 1247.937, 839.079 1252.372, 831.619 1243.763, 837.502 1234.007, 863.65 1269.546, 858.333 1279.622, 847.108 1277.679, 845.487 1266.403, 855.71 1261.377, 858.493 1305.41, 848.574 1311.012, 840.181 1303.309, 844.913 1292.947, 856.231 1294.246, 834.765 1332.794, 823.392 1332.143, 820.496 1321.126, 830.08 1314.967, 838.898 1322.178"/>
<polygon class="line_style_1 fill_style_2" fill-rule="evenodd" points="0.0 1504.017, 0.0 1498.722, 0.0 1488.131, 0.0 1493.427, 0.0 1466.95, 0.0 1472.245, 0.0 1482.836, 0.0 1477.54, -52.658 1478.658, -48.518 1475.357, -40.238 1468.754, -44.378 1472.055, -23.677 1455.547, -27.818 1458.849, -36.098 1465.452, -31.958 1462.15, -65.664 1421.678, -60.501 1422.856, -50.176 1425.213, -55.338 1424.034, -29.525 1429.926, -34.688 1428.748, -45.013 1426.391, -39.851 1427.569, -29.223 1375.983, -26.925 1380.754, -22.33 1390.296, -24.628 1385.525, -13.14 1409.38, -15.438 1404.609, -20.033 1395.067, -17.735 1399.838, 29.223 1375.983, 26.925 1380.754, 22.33 1390.296, 24.628 1385.525, 13.14 1409.38, 15.438 1404.609, 20.033 1395.067, 17.735 1399.838, 65.664 1421.678, 60.501 1422.856, 50.176 1425.213, 55.338 1424.034, 29.525 1429.926, 34.688 1428.748, 45.013 1426.391, 39.851 1427.569, 52.658 1478.658, 48.518 1475.357, 40.238 1468.754, 44.378 1472.055, 23.677 1455.547, 27.818 1458.849, 36.098 1465.452, 31.958 1462.15"/>
<polygon class="line_style_1 fill_style_2" fill-rule="evenodd" points="160.0 1504.962, 155.409 1497.01, 164.591 1497.01, 138.762 1501.418, 137.001 1492.406, 145.687 1495.388, 119.825 1491.17, 121.087 1482.075, 128.333 1487.715, 105.242 1475.329, 109.389 1467.136, 114.411 1474.823, 96.593 1455.611, 103.175 1449.208, 105.429 1458.11, 94.815 1434.153, 103.12 1430.233, 102.361 1439.385, 100.101 1413.28, 109.228 1412.269, 105.539 1420.679, 111.877 1395.254, 120.838 1397.262, 114.619 1404.018, 128.869 1382.029, 136.692 1386.838, 128.616 1391.208, 149.234 1375.038, 155.072 1382.126, 146.014 1383.637, 170.766 1375.038, 173.986 1383.637, 164.928 1382.126, 191.131 1382.029, 191.384 1391.208, 183.308 1386.838, 208.123 1395.254, 205.381 1404.018, 199.162 1397.262, 219.899 1413.28, 214.461 1420.679, 210.772 1412.269, 225.185 1434.153, 217.639 1439.385, 216.88 1430.233, 223.407 1455.611, 214.571 1458.11, 216.825 1449.208, 214.758 1475.329, 205.589 1474.823, 210.611 1467.136, 200.175 1491.17, 191.667 1487.715, 198.913 1482.075, 181.238 1501.418, 174.313 1495.388, 182.999 1492.406"/>
<polygon class="line_style_1 fill_style_2" fill-rule="evenodd" points="320.0 1506.39, 320.0 1499.56, 305.686 1504.833, 307.154 1498.163, 292.042 1500.236, 294.909 1494.037, 279.704 1492.813, 283.838 1487.376, 269.251 1482.911, 274.457 1478.49, 261.171 1470.994, 267.206 1467.795, 255.842 1457.618, 262.423 1455.791, 253.513 1443.41, 260.332 1443.04, 254.292 1429.033, 261.032 1430.138, 258.144 1415.159, 264.489 1417.687, 264.888 1402.438, 270.541 1406.271, 274.209 1391.464, 278.906 1396.423, 285.672 1382.751, 289.193 1388.603, 298.739 1376.705, 300.92 1383.178, 312.801 1373.61, 313.539 1380.4, 327.199 1373.61, 326.461 1380.4, 341.261 1376.705, 339.08 1383.178, 354.328 1382.751, 350.807 1388.603, 365.791 1391.464, 361.094 1396.423, 375.112 1402.438, 369.459 1406.271, 381.856 1415.159, 375.511 1417.687, 385.708 1429.033, 378.968 1430.138, 386.487 1443.41, 379.668 1443.04, 384.158 1457.618, 377.577 1455.791, 378.829 1470.994, 372.794 1467.795, 370.749 1482.911, 365.543 1478.49, 360.296 1492.813, 356.162 1487.376, 347.958 1500.236, 345.091 1494.037, 334.314 1504.833, 332.846 1498.163"/>
<polygon class="line_style_1 fill_style_2" fill-rule="evenodd" points="480.0 1506.416, 472.935 1506.039, 465.951 1504.914, 459.126 1503.052, 452.537 1500.476, 446.259 1497.214, 440.364 1493.303, 434.918 1488.788, 429.982 1483.719, 425.613 1478.155, 421.861 1472.157, 418.767 1465.795, 416.367 1459.14, 414.688 1452.268, 413.749 1445.256, 413.561 1438.184, 414.125 1431.132, 415.436 1424.18, 417.479 1417.406, 420.229 1410.888, 423.657 1404.7, 427.724 1398.911, 432.382 1393.586, 437.581 1388.788, 443.259 1384.569, 449.355 1380.977, 455.797 1378.054, 462.513 1375.832, 469.428 1374.336, 476.463 1373.584, 483.537 1373.584, 490.572 1374.336, 497.487 1375.832, 504.203 1378.054, 510.645 1380.977, 516.741 1384.569, 522.419 1388.788, 527.618 1393.586, 532.276 1398.911, 536.343 1404.7, 539.771 1410.888, 542.521 1417.406, 544.564 1424.18, 545.875 1431.132, 546.439 1438.184, 546.251 1445.256, 545.312 1452.268, 543.633 1459.14, 541.233 1465.795, 538.139 1472.157, 534.387 1478.155, 530.018 1483.719, 525.082 1488.788, 519.636 1493.303, 513.741 1497.214, 507.463 1500.476, 500.874 1503.052, 494.049 1504.914, 487.065 1506.039"/>
<polygon class="line_style_1 fill_style_2" fill-rule="evenodd" points="640.0 1500.596, 640.0 1494.583, 640.0 1482.556, 640.0 1488.57, 620.162 1466.236, 625.37 1469.242, 635.785 1475.256, 630.577 1472.249, 659.838 1466.236, 654.63 1469.242, 644.215 1475.256, 649.423 1472.249, 576.286 1454.305, 582.004 1452.447, 593.442 1448.73, 587.723 1450.588, 602.834 1424.82, 601.584 1430.702, 599.083 1442.465, 600.333 1436.584, 615.094 1462.554, 610.626 1458.53, 601.688 1450.483, 606.157 1454.507, 600.622 1379.404, 604.157 1384.269, 611.226 1393.998, 607.691 1389.134, 636.868 1395.542, 630.888 1396.17, 618.927 1397.427, 624.907 1396.799, 604.77 1418.862, 607.215 1413.369, 612.107 1402.382, 609.661 1407.876, 679.378 1379.404, 675.843 1384.269, 668.774 1393.998, 672.309 1389.134, 675.23 1418.862, 672.785 1413.369, 667.893 1402.382, 670.339 1407.876, 643.132 1395.542, 649.112 1396.17, 661.073 1397.427, 655.093 1396.799, 703.714 1454.305, 697.996 1452.447, 686.558 1448.73, 692.277 1450.588, 664.906 1462.554, 669.374 1458.53, 678.312 1450.483, 673.843 1454.507, 677.166 1424.82, 678.416 1430.702, 680.917 1442.465, 679.667 1436.584"/>
<polygon class="line_style_1 fill_style_2" fill-rule="evenodd" points="800.0 1506.529, 793.155 1506.176, 786.382 1505.121, 779.754 1503.376, 773.341 1500.958, 767.21 1497.893, 761.426 1494.215, 756.052 1489.961, 751.143 1485.177, 746.752 1479.914, 742.926 1474.227, 739.705 1468.177, 737.123 1461.828, 735.207 1455.247, 733.978 1448.504, 733.449 1441.67, 733.626 1434.818, 734.506 1428.021, 736.08 1421.35, 738.332 1414.876, 741.238 1408.668, 744.766 1402.792, 748.88 1397.31, 753.536 1392.28, 758.684 1387.755, 764.271 1383.783, 770.236 1380.407, 776.516 1377.662, 783.046 1375.578, 789.755 1374.176, 796.573 1373.471, 803.427 1373.471, 810.245 1374.176, 816.954 1375.578, 823.484 1377.662, 829.764 1380.407, 835.729 1383.783, 841.316 1387.755, 846.464 1392.28, 851.12 1397.31, 855.234 1402.792, 858.762 1408.668, 861.668 1414.876, 863.92 1421.35, 865.494 1428.021, 866.374 1434.818, 866.551 1441.67, 866.022 1448.504, 864.793 1455.247, 862.877 1461.828, 860.295 1468.177, 857.074 1474.227, 853.248 1479.914, 848.857 1485.177, 843.948 1489.961, 838.574 1494.215, 832.79 1497.893, 826.659 1500.958, 820.246 1503.376, 813.618 1505.121, 806.845 1506.176"/>
   </g>
</svg>