<svg xmlns="http://www.w3.org/2000/svg" width="564.922605432205pt" height="2715.700237754275pt" viewBox="-147.6006203410012 -2685.700237754275 564.922605432205 2715.700237754275">
    <style>
.line_style_1 {stroke: rgb(0, 0, 0); stroke-width: 2}
.line_style_2 {stroke: none}
.fill_style_1 {fill: none}
.fill_style_2 {fill: rgb(97, 0, 35)}
</style>
    <g transform="translate(0 -2655.700237754275) scale(1,-1)">
    <rect x="-147.6006203410012" y="-2685.700237754275" width="564.922605432205" height="2715.700237754275" fill="rgb(255, 255, 255)"/>



<polygon class="line_style_1 fill_style_1" points="4.755 1.545, 0.0 5.0, -4.755 1.545, -2.939 -4.045, 2.939 -4.045"/>
<polygon class="line_style_1 fill_style_1" points="-4.755 -21.545, 0.0 -25.0, 4.755 -21.545, 2.939 -15.955, -2.939 -15.955"/>
<polygon class="line_style_1 fill_style_1" points="-32.376 -46.295, -32.99 -52.141, -27.621 -54.532, -23.688 -50.164, -26.627 -45.073"/>
<polygon class="line_style_1 fill_style_1" points="-7.624 -42.987, -7.01 -37.141, -12.379 -34.75, -16.312 -39.118, -13.373 -44.209"/>
<polygon class="line_style_1 fill_style_1" points="27.621 -54.532, 32.99 -52.141, 32.376 -46.295, 26.627 -45.073, 23.688 -50.164"/>
<polygon class="line_style_1 fill_style_1" points="12.379 -34.75, 7.01 -37.141, 7.624 -42.987, 13.373 -44.209, 16.312 -39.118"/>
<polygon class="line_style_1 fill_style_1" points="-101.202 -68.527, -105.957 -71.982, -104.141 -77.573, -98.263 -77.573, -96.447 -71.982"/>
<polygon class="line_style_1 fill_style_1" points="-82.181 -84.708, -77.425 -81.253, -79.242 -75.663, -85.12 -75.663, -86.936 -81.253"/>
<polygon class="line_style_1 fill_style_1" points="-67.177 -118.625, -61.807 -121.016, -57.874 -116.648, -60.813 -111.557, -66.563 -112.779"/>
<polygon class="line_style_1 fill_style_1" points="-62.675 -94.062, -68.045 -91.671, -71.978 -96.039, -69.039 -101.13, -63.289 -99.908"/>
<polygon class="line_style_1 fill_style_1" points="-40.804 -64.11, -41.418 -58.264, -47.168 -57.042, -50.107 -62.132, -46.173 -66.501"/>
<polygon class="line_style_1 fill_style_1" points="-64.327 -72.492, -63.713 -78.338, -57.963 -79.56, -55.024 -74.47, -58.957 -70.102"/>
<polygon class="line_style_1 fill_style_1" points="-67.301 -190.952, -65.485 -196.542, -59.607 -196.542, -57.791 -190.952, -62.546 -187.497"/>
<polygon class="line_style_1 fill_style_1" points="-46.035 -177.862, -47.852 -172.272, -53.729 -172.272, -55.546 -177.862, -50.79 -181.317"/>
<polygon class="line_style_1 fill_style_1" points="-9.142 -174.074, -5.209 -169.706, -8.148 -164.615, -13.897 -165.837, -14.511 -171.683"/>
<polygon class="line_style_1 fill_style_1" points="-31.111 -162.202, -35.044 -166.57, -32.105 -171.66, -26.356 -170.438, -25.742 -164.592"/>
<polygon class="line_style_1 fill_style_1" points="-52.839 -132.145, -58.588 -130.923, -61.527 -136.013, -57.594 -140.382, -52.224 -137.991"/>
<polygon class="line_style_1 fill_style_1" points="-52.136 -157.107, -46.386 -158.329, -43.447 -153.239, -47.38 -148.871, -52.75 -151.262"/>
<polygon class="line_style_1 fill_style_1" points="59.607 -196.542, 65.485 -196.542, 67.301 -190.952, 62.546 -187.497, 57.791 -190.952"/>
<polygon class="line_style_1 fill_style_1" points="53.729 -172.272, 47.852 -172.272, 46.035 -177.862, 50.79 -181.317, 55.546 -177.862"/>
<polygon class="line_style_1 fill_style_1" points="61.527 -136.013, 58.588 -130.923, 52.839 -132.145, 52.224 -137.991, 57.594 -140.382"/>
<polygon class="line_style_1 fill_style_1" points="43.447 -153.239, 46.386 -158.329, 52.136 -157.107, 52.75 -151.262, 47.38 -148.871"/>
<polygon class="line_style_1 fill_style_1" points="8.148 -164.615, 5.209 -169.706, 9.142 -174.074, 14.511 -171.683, 13.897 -165.837"/>
<polygon class="line_style_1 fill_style_1" points="32.105 -171.66, 35.044 -166.57, 31.111 -162.202, 25.742 -164.592, 26.356 -170.438"/>
<polygon class="line_style_1 fill_style_1" points="104.141 -77.573, 105.957 -71.982, 101.202 -68.527, 96.447 -71.982, 98.263 -77.573"/>
<polygon class="line_style_1 fill_style_1" points="79.242 -75.663, 77.425 -81.253, 82.181 -84.708, 86.936 -81.253, 85.12 -75.663"/>
<polygon class="line_style_1 fill_style_1" points="47.168 -57.042, 41.418 -58.264, 40.804 -64.11, 46.173 -66.501, 50.107 -62.132"/>
<polygon class="line_style_1 fill_style_1" points="57.963 -79.56, 63.713 -78.338, 64.327 -72.492, 58.957 -70.102, 55.024 -74.47"/>
<polygon class="line_style_1 fill_style_1" points="57.874 -116.648, 61.807 -121.016, 67.177 -118.625, 66.563 -112.779, 60.813 -111.557"/>
<polygon class="line_style_1 fill_style_1" points="71.978 -96.039, 68.045 -91.671, 62.675 -94.062, 63.289 -99.908, 69.039 -101.13"/>
<polygon class="line_style_2 fill_style_2" points="237.861 1.545, 233.106 5.0, 228.35 1.545, 230.167 -4.045, 236.045 -4.045"/>
<polygon class="line_style_2 fill_style_2" points="228.35 -21.545, 233.106 -25.0, 237.861 -21.545, 236.045 -15.955, 230.167 -15.955"/>
<polygon class="line_style_2 fill_style_2" points="200.73 -46.295, 200.115 -52.141, 205.485 -54.532, 209.418 -50.164, 206.479 -45.073"/>
<polygon class="line_style_2 fill_style_2" points="225.482 -42.987, 226.096 -37.141, 220.726 -34.75, 216.793 -39.118, 219.732 -44.209"/>
<polygon class="line_style_2 fill_style_2" points="260.726 -54.532, 266.096 -52.141, 265.482 -46.295, 259.732 -45.073, 256.793 -50.164"/>
<polygon class="line_style_2 fill_style_2" points="245.485 -34.75, 240.115 -37.141, 240.73 -42.987, 246.479 -44.209, 249.418 -39.118"/>
<polygon class="line_style_2 fill_style_2" points="131.904 -68.527, 127.149 -71.982, 128.965 -77.573, 134.843 -77.573, 136.659 -71.982"/>
<polygon class="line_style_2 fill_style_2" points="150.925 -84.708, 155.68 -81.253, 153.864 -75.663, 147.986 -75.663, 146.17 -81.253"/>
<polygon class="line_style_2 fill_style_2" points="165.929 -118.625, 171.298 -121.016, 175.231 -116.648, 172.292 -111.557, 166.543 -112.779"/>
<polygon class="line_style_2 fill_style_2" points="170.431 -94.062, 165.061 -91.671, 161.128 -96.039, 164.067 -101.13, 169.816 -99.908"/>
<polygon class="line_style_2 fill_style_2" points="192.302 -64.11, 191.687 -58.264, 185.938 -57.042, 182.999 -62.132, 186.932 -66.501"/>
<polygon class="line_style_2 fill_style_2" points="168.779 -72.492, 169.393 -78.338, 175.143 -79.56, 178.081 -74.47, 174.148 -70.102"/>
<polygon class="line_style_2 fill_style_2" points="165.804 -190.952, 167.621 -196.542, 173.498 -196.542, 175.315 -190.952, 170.56 -187.497"/>
<polygon class="line_style_2 fill_style_2" points="187.07 -177.862, 185.254 -172.272, 179.376 -172.272, 177.56 -177.862, 182.315 -181.317"/>
<polygon class="line_style_2 fill_style_2" points="223.964 -174.074, 227.897 -169.706, 224.958 -164.615, 219.209 -165.837, 218.594 -171.683"/>
<polygon class="line_style_2 fill_style_2" points="201.994 -162.202, 198.061 -166.57, 201.0 -171.66, 206.75 -170.438, 207.364 -164.592"/>
<polygon class="line_style_2 fill_style_2" points="180.267 -132.145, 174.517 -130.923, 171.579 -136.013, 175.512 -140.382, 180.881 -137.991"/>
<polygon class="line_style_2 fill_style_2" points="180.97 -157.107, 186.72 -158.329, 189.658 -153.239, 185.725 -148.871, 180.356 -151.262"/>
<polygon class="line_style_2 fill_style_2" points="292.713 -196.542, 298.591 -196.542, 300.407 -190.952, 295.652 -187.497, 290.897 -190.952"/>
<polygon class="line_style_2 fill_style_2" points="286.835 -172.272, 280.957 -172.272, 279.141 -177.862, 283.896 -181.317, 288.651 -177.862"/>
<polygon class="line_style_2 fill_style_2" points="294.633 -136.013, 291.694 -130.923, 285.945 -132.145, 285.33 -137.991, 290.7 -140.382"/>
<polygon class="line_style_2 fill_style_2" points="276.553 -153.239, 279.492 -158.329, 285.241 -157.107, 285.856 -151.262, 280.486 -148.871"/>
<polygon class="line_style_2 fill_style_2" points="241.253 -164.615, 238.314 -169.706, 242.247 -174.074, 247.617 -171.683, 247.003 -165.837"/>
<polygon class="line_style_2 fill_style_2" points="265.211 -171.66, 268.15 -166.57, 264.217 -162.202, 258.847 -164.592, 259.462 -170.438"/>
<polygon class="line_style_2 fill_style_2" points="337.246 -77.573, 339.063 -71.982, 334.308 -68.527, 329.552 -71.982, 331.369 -77.573"/>
<polygon class="line_style_2 fill_style_2" points="312.347 -75.663, 310.531 -81.253, 315.286 -84.708, 320.042 -81.253, 318.225 -75.663"/>
<polygon class="line_style_2 fill_style_2" points="280.273 -57.042, 274.524 -58.264, 273.909 -64.11, 279.279 -66.501, 283.212 -62.132"/>
<polygon class="line_style_2 fill_style_2" points="291.069 -79.56, 296.818 -78.338, 297.433 -72.492, 292.063 -70.102, 288.13 -74.47"/>
<polygon class="line_style_2 fill_style_2" points="290.98 -116.648, 294.913 -121.016, 300.283 -118.625, 299.668 -112.779, 293.919 -111.557"/>
<polygon class="line_style_2 fill_style_2" points="305.083 -96.039, 301.15 -91.671, 295.781 -94.062, 296.395 -99.908, 302.145 -101.13"/>
<polygon class="line_style_1 fill_style_1" points="7.133 -347.682, 0.0 -342.5, -7.133 -347.682, -4.408 -356.068, 4.408 -356.068"/>
<polygon class="line_style_1 fill_style_1" points="-7.133 -372.318, 0.0 -377.5, 7.133 -372.318, 4.408 -363.932, -4.408 -363.932"/>
<polygon class="line_style_1 fill_style_1" points="-34.234 -394.623, -35.155 -403.391, -27.101 -406.977, -21.201 -400.425, -25.61 -392.789"/>
<polygon class="line_style_1 fill_style_1" points="-5.766 -394.659, -4.845 -385.891, -12.899 -382.305, -18.799 -388.85699999999997, -14.39 -396.493"/>
<polygon class="line_style_1 fill_style_1" points="27.101 -406.977, 35.155 -403.391, 34.234 -394.623, 25.61 -392.789, 21.201 -400.425"/>
<polygon class="line_style_1 fill_style_1" points="12.899 -382.305, 4.845 -385.891, 5.766 -394.659, 14.39 -396.493, 18.799 -388.85699999999997"/>
<polygon class="line_style_1 fill_style_1" points="-101.202 -416.027, -108.335 -421.21, -105.61 -429.595, -96.793 -429.595, -94.069 -421.21"/>
<polygon class="line_style_1 fill_style_1" points="-82.181 -437.20799999999997, -75.048 -432.025, -77.772 -423.64, -86.589 -423.64, -89.314 -432.025"/>
<polygon class="line_style_1 fill_style_1" points="-69.342 -469.875, -61.288 -473.461, -55.388 -466.909, -59.796 -459.273, -68.421 -461.106"/>
<polygon class="line_style_1 fill_style_1" points="-60.51 -442.812, -68.565 -439.226, -74.464 -445.778, -70.056 -453.414, -61.432 -451.58"/>
<polygon class="line_style_1 fill_style_1" points="-38.639 -415.36, -39.56 -406.591, -48.184 -404.758, -52.593 -412.394, -46.693 -418.946"/>
<polygon class="line_style_1 fill_style_1" points="-66.492 -421.242, -65.57 -430.01099999999997, -56.946 -431.844, -52.538 -424.20799999999997, -58.437 -417.656"/>
<polygon class="line_style_1 fill_style_1" points="-69.679 -540.1800000000001, -66.955 -548.565, -58.138 -548.565, -55.413 -540.1800000000001, -62.546 -534.9970000000001"/>
<polygon class="line_style_1 fill_style_1" points="-43.658 -528.635, -46.382 -520.249, -55.199 -520.249, -57.923 -528.635, -50.79 -533.817"/>
<polygon class="line_style_1 fill_style_1" points="-8.622 -526.519, -2.722 -519.967, -7.131 -512.331, -15.755 -514.165, -16.676 -522.933"/>
<polygon class="line_style_1 fill_style_1" points="-31.631 -509.756, -37.531 -516.308, -33.122 -523.944, -24.498 -522.111, -23.577 -513.342"/>
<polygon class="line_style_1 fill_style_1" points="-50.981 -480.472, -59.605 -478.639, -64.013 -486.275, -58.114 -492.827, -50.059 -489.241"/>
<polygon class="line_style_1 fill_style_1" points="-53.993 -508.78, -45.369 -510.613, -40.961 -502.978, -46.86 -496.426, -54.915 -500.012"/>
<polygon class="line_style_1 fill_style_1" points="58.138 -548.565, 66.955 -548.565, 69.679 -540.1800000000001, 62.546 -534.9970000000001, 55.413 -540.1800000000001"/>
<polygon class="line_style_1 fill_style_1" points="55.199 -520.249, 46.382 -520.249, 43.658 -528.635, 50.79 -533.817, 57.923 -528.635"/>
<polygon class="line_style_1 fill_style_1" points="64.013 -486.275, 59.605 -478.639, 50.981 -480.472, 50.059 -489.241, 58.114 -492.827"/>
<polygon class="line_style_1 fill_style_1" points="40.961 -502.978, 45.369 -510.613, 53.993 -508.78, 54.915 -500.012, 46.86 -496.426"/>
<polygon class="line_style_1 fill_style_1" points="7.131 -512.331, 2.722 -519.967, 8.622 -526.519, 16.676 -522.933, 15.755 -514.165"/>
<polygon class="line_style_1 fill_style_1" points="33.122 -523.944, 37.531 -516.308, 31.631 -509.756, 23.577 -513.342, 24.498 -522.111"/>
<polygon class="line_style_1 fill_style_1" points="105.61 -429.595, 108.335 -421.21, 101.202 -416.027, 94.069 -421.21, 96.793 -429.595"/>
<polygon class="line_style_1 fill_style_1" points="77.772 -423.64, 75.048 -432.025, 82.181 -437.20799999999997, 89.314 -432.025, 86.589 -423.64"/>
<polygon class="line_style_1 fill_style_1" points="48.184 -404.758, 39.56 -406.591, 38.639 -415.36, 46.693 -418.946, 52.593 -412.394"/>
<polygon class="line_style_1 fill_style_1" points="56.946 -431.844, 65.57 -430.01099999999997, 66.492 -421.242, 58.437 -417.656, 52.538 -424.20799999999997"/>
<polygon class="line_style_1 fill_style_1" points="55.388 -466.909, 61.288 -473.461, 69.342 -469.875, 68.421 -461.106, 59.796 -459.273"/>
<polygon class="line_style_1 fill_style_1" points="74.464 -445.778, 68.565 -439.226, 60.51 -442.812, 61.432 -451.58, 70.056 -453.414"/>
<polygon class="line_style_2 fill_style_2" points="245.469 -347.682, 238.336 -342.5, 231.204 -347.682, 233.928 -356.068, 242.745 -356.068"/>
<polygon class="line_style_2 fill_style_2" points="231.204 -372.318, 238.336 -377.5, 245.469 -372.318, 242.745 -363.932, 233.928 -363.932"/>
<polygon class="line_style_2 fill_style_2" points="204.103 -394.623, 203.181 -403.391, 211.236 -406.977, 217.135 -400.425, 212.727 -392.789"/>
<polygon class="line_style_2 fill_style_2" points="232.57 -394.659, 233.492 -385.891, 225.437 -382.305, 219.538 -388.85699999999997, 223.946 -396.493"/>
<polygon class="line_style_2 fill_style_2" points="265.437 -406.977, 273.492 -403.391, 272.57 -394.623, 263.946 -392.789, 259.538 -400.425"/>
<polygon class="line_style_2 fill_style_2" points="251.236 -382.305, 243.181 -385.891, 244.103 -394.659, 252.727 -396.493, 257.135 -388.85699999999997"/>
<polygon class="line_style_2 fill_style_2" points="137.135 -416.027, 130.002 -421.21, 132.726 -429.595, 141.543 -429.595, 144.268 -421.21"/>
<polygon class="line_style_2 fill_style_2" points="156.156 -437.20799999999997, 163.289 -432.025, 160.564 -423.64, 151.747 -423.64, 149.023 -432.025"/>
<polygon class="line_style_2 fill_style_2" points="168.994 -469.875, 177.049 -473.461, 182.948 -466.909, 178.54 -459.273, 169.916 -461.106"/>
<polygon class="line_style_2 fill_style_2" points="177.827 -442.812, 169.772 -439.226, 163.872 -445.778, 168.281 -453.414, 176.905 -451.58"/>
<polygon class="line_style_2 fill_style_2" points="199.698 -415.36, 198.776 -406.591, 190.152 -404.758, 185.744 -412.394, 191.643 -418.946"/>
<polygon class="line_style_2 fill_style_2" points="171.844 -421.242, 172.766 -430.01099999999997, 181.39 -431.844, 185.799 -424.20799999999997, 179.899 -417.656"/>
<polygon class="line_style_2 fill_style_2" points="168.657 -540.1800000000001, 171.382 -548.565, 180.199 -548.565, 182.923 -540.1800000000001, 175.79 -534.9970000000001"/>
<polygon class="line_style_2 fill_style_2" points="194.679 -528.635, 191.954 -520.249, 183.138 -520.249, 180.413 -528.635, 187.546 -533.817"/>
<polygon class="line_style_2 fill_style_2" points="229.715 -526.519, 235.614 -519.967, 231.206 -512.331, 222.582 -514.165, 221.66 -522.933"/>
<polygon class="line_style_2 fill_style_2" points="206.705 -509.756, 200.806 -516.308, 205.214 -523.944, 213.838 -522.111, 214.76 -513.342"/>
<polygon class="line_style_2 fill_style_2" points="187.356 -480.472, 178.731 -478.639, 174.323 -486.275, 180.223 -492.827, 188.277 -489.241"/>
<polygon class="line_style_2 fill_style_2" points="184.343 -508.78, 192.967 -510.613, 197.376 -502.978, 191.476 -496.426, 183.421 -500.012"/>
<polygon class="line_style_2 fill_style_2" points="296.474 -548.565, 305.291 -548.565, 308.016 -540.1800000000001, 300.883 -534.9970000000001, 293.75 -540.1800000000001"/>
<polygon class="line_style_2 fill_style_2" points="293.535 -520.249, 284.719 -520.249, 281.994 -528.635, 289.127 -533.817, 296.26 -528.635"/>
<polygon class="line_style_2 fill_style_2" points="302.35 -486.275, 297.942 -478.639, 289.317 -480.472, 288.396 -489.241, 296.45 -492.827"/>
<polygon class="line_style_2 fill_style_2" points="279.297 -502.978, 283.706 -510.613, 292.33 -508.78, 293.252 -500.012, 285.197 -496.426"/>
<polygon class="line_style_2 fill_style_2" points="245.467 -512.331, 241.059 -519.967, 246.958 -526.519, 255.013 -522.933, 254.091 -514.165"/>
<polygon class="line_style_2 fill_style_2" points="271.459 -523.944, 275.867 -516.308, 269.968 -509.756, 261.913 -513.342, 262.835 -522.111"/>
<polygon class="line_style_2 fill_style_2" points="343.947 -429.595, 346.671 -421.21, 339.538 -416.027, 332.405 -421.21, 335.13 -429.595"/>
<polygon class="line_style_2 fill_style_2" points="316.109 -423.64, 313.384 -432.025, 320.517 -437.20799999999997, 327.65 -432.025, 324.926 -423.64"/>
<polygon class="line_style_2 fill_style_2" points="286.521 -404.758, 277.897 -406.591, 276.975 -415.36, 285.03 -418.946, 290.929 -412.394"/>
<polygon class="line_style_2 fill_style_2" points="295.283 -431.844, 303.907 -430.01099999999997, 304.829 -421.242, 296.774 -417.656, 290.874 -424.20799999999997"/>
<polygon class="line_style_2 fill_style_2" points="293.725 -466.909, 299.624 -473.461, 307.679 -469.875, 306.757 -461.106, 298.133 -459.273"/>
<polygon class="line_style_2 fill_style_2" points="312.801 -445.778, 306.901 -439.226, 298.846 -442.812, 299.768 -451.58, 308.392 -453.414"/>
<polygon class="line_style_1 fill_style_1" points="9.511 -696.91, 0.0 -690.0, -9.511 -696.91, -5.878 -708.09, 5.878 -708.09"/>
<polygon class="line_style_1 fill_style_1" points="-9.511 -723.09, 0.0 -730.0, 9.511 -723.09, 5.878 -711.91, -5.878 -711.91"/>
<polygon class="line_style_1 fill_style_1" points="-36.092 -742.95, -37.321 -754.641, -26.581 -759.422, -18.715 -750.686, -24.593 -740.506"/>
<polygon class="line_style_1 fill_style_1" points="-3.908 -746.332, -2.679 -734.641, -13.419 -729.86, -21.285 -738.596, -15.407 -748.776"/>
<polygon class="line_style_1 fill_style_1" points="26.581 -759.422, 37.321 -754.641, 36.092 -742.95, 24.593 -740.506, 18.715 -750.686"/>
<polygon class="line_style_1 fill_style_1" points="13.419 -729.86, 2.679 -734.641, 3.908 -746.332, 15.407 -748.776, 21.285 -738.596"/>
<polygon class="line_style_1 fill_style_1" points="-101.202 -763.527, -110.712 -770.437, -107.08 -781.6179999999999, -95.324 -781.6179999999999, -91.691 -770.437"/>
<polygon class="line_style_1 fill_style_1" points="-82.181 -789.708, -72.67 -782.798, -76.303 -771.6179999999999, -88.059 -771.6179999999999, -91.691 -782.798"/>
<polygon class="line_style_1 fill_style_1" points="-71.507 -821.125, -60.768 -825.906, -52.902 -817.17, -58.78 -806.989, -70.278 -809.434"/>
<polygon class="line_style_1 fill_style_1" points="-58.345 -791.562, -69.084 -786.78, -76.95 -795.517, -71.073 -805.697, -59.574 -803.253"/>
<polygon class="line_style_1 fill_style_1" points="-36.474 -766.61, -37.702 -754.919, -49.201 -752.474, -55.079 -762.655, -47.213 -771.391"/>
<polygon class="line_style_1 fill_style_1" points="-68.657 -769.992, -67.428 -781.684, -55.929 -784.128, -50.052 -773.947, -57.918 -765.211"/>
<polygon class="line_style_1 fill_style_1" points="-72.057 -889.407, -68.424 -900.588, -56.668 -900.588, -53.036 -889.407, -62.546 -882.4970000000001"/>
<polygon class="line_style_1 fill_style_1" points="-41.28 -879.407, -44.913 -868.227, -56.668 -868.227, -60.301 -879.407, -50.79 -886.317"/>
<polygon class="line_style_1 fill_style_1" points="-8.102 -878.9639999999999, -0.236 -870.2280000000001, -6.114 -860.048, -17.613 -862.492, -18.842 -874.183"/>
<polygon class="line_style_1 fill_style_1" points="-32.151 -857.311, -40.017 -866.047, -34.139 -876.2280000000001, -22.64 -873.784, -21.411 -862.092"/>
<polygon class="line_style_1 fill_style_1" points="-49.123 -828.8, -60.622 -826.355, -66.5 -836.5360000000001, -58.634 -845.2719999999999, -47.894 -840.491"/>
<polygon class="line_style_1 fill_style_1" points="-55.851 -860.453, -44.352 -862.8969999999999, -38.475 -852.716, -46.341 -843.98, -57.08 -848.762"/>
<polygon class="line_style_1 fill_style_1" points="56.668 -900.588, 68.424 -900.588, 72.057 -889.407, 62.546 -882.4970000000001, 53.036 -889.407"/>
<polygon class="line_style_1 fill_style_1" points="56.668 -868.227, 44.913 -868.227, 41.28 -879.407, 50.79 -886.317, 60.301 -879.407"/>
<polygon class="line_style_1 fill_style_1" points="66.5 -836.5360000000001, 60.622 -826.355, 49.123 -828.8, 47.894 -840.491, 58.634 -845.2719999999999"/>
<polygon class="line_style_1 fill_style_1" points="38.475 -852.716, 44.352 -862.8969999999999, 55.851 -860.453, 57.08 -848.762, 46.341 -843.98"/>
<polygon class="line_style_1 fill_style_1" points="6.114 -860.048, 0.236 -870.2280000000001, 8.102 -878.9639999999999, 18.842 -874.183, 17.613 -862.492"/>
<polygon class="line_style_1 fill_style_1" points="34.139 -876.2280000000001, 40.017 -866.047, 32.151 -857.311, 21.411 -862.092, 22.64 -873.784"/>
<polygon class="line_style_1 fill_style_1" points="107.08 -781.6179999999999, 110.712 -770.437, 101.202 -763.527, 91.691 -770.437, 95.324 -781.6179999999999"/>
<polygon class="line_style_1 fill_style_1" points="76.303 -771.6179999999999, 72.67 -782.798, 82.181 -789.708, 91.691 -782.798, 88.059 -771.6179999999999"/>
<polygon class="line_style_1 fill_style_1" points="49.201 -752.474, 37.702 -754.919, 36.474 -766.61, 47.213 -771.391, 55.079 -762.655"/>
<polygon class="line_style_1 fill_style_1" points="55.929 -784.128, 67.428 -781.684, 68.657 -769.992, 57.918 -765.211, 50.052 -773.947"/>
<polygon class="line_style_1 fill_style_1" points="52.902 -817.17, 60.768 -825.906, 71.507 -821.125, 70.278 -809.434, 58.78 -806.989"/>
<polygon class="line_style_1 fill_style_1" points="76.95 -795.517, 69.084 -786.78, 58.345 -791.562, 59.574 -803.253, 71.073 -805.697"/>
<polygon class="line_style_2 fill_style_2" points="253.078 -696.91, 243.567 -690.0, 234.057 -696.91, 237.689 -708.09, 249.445 -708.09"/>
<polygon class="line_style_2 fill_style_2" points="234.057 -723.09, 243.567 -730.0, 253.078 -723.09, 249.445 -711.91, 237.689 -711.91"/>
<polygon class="line_style_2 fill_style_2" points="207.476 -742.95, 206.247 -754.641, 216.986 -759.422, 224.852 -750.686, 218.974 -740.506"/>
<polygon class="line_style_2 fill_style_2" points="239.659 -746.332, 240.888 -734.641, 230.148 -729.86, 222.282 -738.596, 228.16 -748.776"/>
<polygon class="line_style_2 fill_style_2" points="270.148 -759.422, 280.888 -754.641, 279.659 -742.95, 268.16 -740.506, 262.282 -750.686"/>
<polygon class="line_style_2 fill_style_2" points="256.986 -729.86, 246.247 -734.641, 247.476 -746.332, 258.974 -748.776, 264.852 -738.596"/>
<polygon class="line_style_2 fill_style_2" points="142.365 -763.527, 132.855 -770.437, 136.488 -781.6179999999999, 148.243 -781.6179999999999, 151.876 -770.437"/>
<polygon class="line_style_2 fill_style_2" points="161.387 -789.708, 170.897 -782.798, 167.264 -771.6179999999999, 155.509 -771.6179999999999, 151.876 -782.798"/>
<polygon class="line_style_2 fill_style_2" points="172.06 -821.125, 182.799 -825.906, 190.666 -817.17, 184.788 -806.989, 173.289 -809.434"/>
<polygon class="line_style_2 fill_style_2" points="185.222 -791.562, 174.483 -786.78, 166.617 -795.517, 172.495 -805.697, 183.994 -803.253"/>
<polygon class="line_style_2 fill_style_2" points="207.094 -766.61, 205.865 -754.919, 194.366 -752.474, 188.488 -762.655, 196.354 -771.391"/>
<polygon class="line_style_2 fill_style_2" points="174.91 -769.992, 176.139 -781.684, 187.638 -784.128, 193.516 -773.947, 185.65 -765.211"/>
<polygon class="line_style_2 fill_style_2" points="171.511 -889.407, 175.143 -900.588, 186.899 -900.588, 190.532 -889.407, 181.021 -882.4970000000001"/>
<polygon class="line_style_2 fill_style_2" points="202.287 -879.407, 198.655 -868.227, 186.899 -868.227, 183.266 -879.407, 192.777 -886.317"/>
<polygon class="line_style_2 fill_style_2" points="235.465 -878.9639999999999, 243.331 -870.2280000000001, 237.453 -860.048, 225.955 -862.492, 224.726 -874.183"/>
<polygon class="line_style_2 fill_style_2" points="211.416 -857.311, 203.55 -866.047, 209.428 -876.2280000000001, 220.927 -873.784, 222.156 -862.092"/>
<polygon class="line_style_2 fill_style_2" points="194.444 -828.8, 182.945 -826.355, 177.068 -836.5360000000001, 184.934 -845.2719999999999, 195.673 -840.491"/>
<polygon class="line_style_2 fill_style_2" points="187.716 -860.453, 199.215 -862.8969999999999, 205.093 -852.716, 197.227 -843.98, 186.487 -848.762"/>
<polygon class="line_style_2 fill_style_2" points="300.236 -900.588, 311.991 -900.588, 315.624 -889.407, 306.113 -882.4970000000001, 296.603 -889.407"/>
<polygon class="line_style_2 fill_style_2" points="300.236 -868.227, 288.48 -868.227, 284.847 -879.407, 294.358 -886.317, 303.868 -879.407"/>
<polygon class="line_style_2 fill_style_2" points="310.067 -836.5360000000001, 304.189 -826.355, 292.69 -828.8, 291.462 -840.491, 302.201 -845.2719999999999"/>
<polygon class="line_style_2 fill_style_2" points="282.042 -852.716, 287.92 -862.8969999999999, 299.419 -860.453, 300.647 -848.762, 289.908 -843.98"/>
<polygon class="line_style_2 fill_style_2" points="249.681 -860.048, 243.803 -870.2280000000001, 251.669 -878.9639999999999, 262.409 -874.183, 261.18 -862.492"/>
<polygon class="line_style_2 fill_style_2" points="277.706 -876.2280000000001, 283.584 -866.047, 275.718 -857.311, 264.979 -862.092, 266.208 -873.784"/>
<polygon class="line_style_2 fill_style_2" points="350.647 -781.6179999999999, 354.28 -770.437, 344.769 -763.527, 335.259 -770.437, 338.891 -781.6179999999999"/>
<polygon class="line_style_2 fill_style_2" points="319.87 -771.6179999999999, 316.237 -782.798, 325.748 -789.708, 335.259 -782.798, 331.626 -771.6179999999999"/>
<polygon class="line_style_2 fill_style_2" points="292.769 -752.474, 281.27 -754.919, 280.041 -766.61, 290.78 -771.391, 298.646 -762.655"/>
<polygon class="line_style_2 fill_style_2" points="299.497 -784.128, 310.996 -781.684, 312.224 -769.992, 301.485 -765.211, 293.619 -773.947"/>
<polygon class="line_style_2 fill_style_2" points="296.469 -817.17, 304.335 -825.906, 315.075 -821.125, 313.846 -809.434, 302.347 -806.989"/>
<polygon class="line_style_2 fill_style_2" points="320.518 -795.517, 312.652 -786.78, 301.912 -791.562, 303.141 -803.253, 314.64 -805.697"/>
<polygon class="line_style_1 fill_style_1" points="11.888 -1046.137, 0.0 -1037.5, -11.888 -1046.137, -7.347 -1060.113, 7.347 -1060.113"/>
<polygon class="line_style_1 fill_style_1" points="-11.888 -1073.863, 0.0 -1082.5, 11.888 -1073.863, 7.347 -1059.887, -7.347 -1059.887"/>
<polygon class="line_style_1 fill_style_1" points="-37.95 -1091.277, -39.486 -1105.891, -26.061 -1111.868, -16.229 -1100.948, -23.576 -1088.222"/>
<polygon class="line_style_1 fill_style_1" points="-2.05 -1098.005, -0.514 -1083.391, -13.939 -1077.414, -23.771 -1088.334, -16.424 -1101.06"/>
<polygon class="line_style_1 fill_style_1" points="26.061 -1111.868, 39.486 -1105.891, 37.95 -1091.277, 23.576 -1088.222, 16.229 -1100.948"/>
<polygon class="line_style_1 fill_style_1" points="13.939 -1077.414, 0.514 -1083.391, 2.05 -1098.005, 16.424 -1101.06, 23.771 -1088.334"/>
<polygon class="line_style_1 fill_style_1" points="-101.202 -1111.027, -113.09 -1119.665, -108.549 -1133.64, -93.855 -1133.64, -89.314 -1119.665"/>
<polygon class="line_style_1 fill_style_1" points="-82.181 -1142.208, -70.293 -1133.57, -74.833 -1119.595, -89.528 -1119.595, -94.069 -1133.57"/>
<polygon class="line_style_1 fill_style_1" points="-73.672 -1172.375, -60.248 -1178.352, -50.415 -1167.431, -57.763 -1154.706, -72.136 -1157.761"/>
<polygon class="line_style_1 fill_style_1" points="-56.18 -1140.312, -69.604 -1134.335, -79.437 -1145.255, -72.089 -1157.981, -57.716 -1154.926"/>
<polygon class="line_style_1 fill_style_1" points="-34.309 -1117.86, -35.845 -1103.246, -50.218 -1100.191, -57.565 -1112.916, -47.733 -1123.837"/>
<polygon class="line_style_1 fill_style_1" points="-70.822 -1118.742, -69.286 -1133.357, -54.913 -1136.412, -47.565 -1123.686, -57.398 -1112.766"/>
<polygon class="line_style_1 fill_style_1" points="-74.434 -1238.635, -69.893 -1252.6100000000001, -55.199 -1252.6100000000001, -50.658 -1238.635, -62.546 -1229.997"/>
<polygon class="line_style_1 fill_style_1" points="-38.902 -1230.18, -43.443 -1216.204, -58.138 -1216.204, -62.679 -1230.18, -50.79 -1238.817"/>
<polygon class="line_style_1 fill_style_1" points="-7.582 -1231.41, 2.25 -1220.49, -5.097 -1207.7640000000001, -19.471 -1210.819, -21.007 -1225.433"/>
<polygon class="line_style_1 fill_style_1" points="-32.671 -1204.866, -42.503 -1215.786, -35.156 -1228.512, -20.782 -1225.4569999999999, -19.246 -1210.842"/>
<polygon class="line_style_1 fill_style_1" points="-47.265 -1177.127, -61.639 -1174.0720000000001, -68.986 -1186.797, -59.153 -1197.718, -45.729 -1191.741"/>
<polygon class="line_style_1 fill_style_1" points="-57.709 -1212.126, -43.336 -1215.181, -35.988 -1202.455, -45.821 -1191.535, -59.245 -1197.512"/>
<polygon class="line_style_1 fill_style_1" points="55.199 -1252.6100000000001, 69.893 -1252.6100000000001, 74.434 -1238.635, 62.546 -1229.997, 50.658 -1238.635"/>
<polygon class="line_style_1 fill_style_1" points="58.138 -1216.204, 43.443 -1216.204, 38.902 -1230.18, 50.79 -1238.817, 62.679 -1230.18"/>
<polygon class="line_style_1 fill_style_1" points="68.986 -1186.797, 61.639 -1174.0720000000001, 47.265 -1177.127, 45.729 -1191.741, 59.153 -1197.718"/>
<polygon class="line_style_1 fill_style_1" points="35.988 -1202.455, 43.336 -1215.181, 57.709 -1212.126, 59.245 -1197.512, 45.821 -1191.535"/>
<polygon class="line_style_1 fill_style_1" points="5.097 -1207.7640000000001, -2.25 -1220.49, 7.582 -1231.41, 21.007 -1225.433, 19.471 -1210.819"/>
<polygon class="line_style_1 fill_style_1" points="35.156 -1228.512, 42.503 -1215.786, 32.671 -1204.866, 19.246 -1210.842, 20.782 -1225.4569999999999"/>
<polygon class="line_style_1 fill_style_1" points="108.549 -1133.64, 113.09 -1119.665, 101.202 -1111.027, 89.314 -1119.665, 93.855 -1133.64"/>
<polygon class="line_style_1 fill_style_1" points="74.833 -1119.595, 70.293 -1133.57, 82.181 -1142.208, 94.069 -1133.57, 89.528 -1119.595"/>
<polygon class="line_style_1 fill_style_1" points="50.218 -1100.191, 35.845 -1103.246, 34.309 -1117.86, 47.733 -1123.837, 57.565 -1112.916"/>
<polygon class="line_style_1 fill_style_1" points="54.913 -1136.412, 69.286 -1133.357, 70.822 -1118.742, 57.398 -1112.766, 47.565 -1123.686"/>
<polygon class="line_style_1 fill_style_1" points="50.415 -1167.431, 60.248 -1178.352, 73.672 -1172.375, 72.136 -1157.761, 57.763 -1154.706"/>
<polygon class="line_style_1 fill_style_1" points="79.437 -1145.255, 69.604 -1134.335, 56.18 -1140.312, 57.716 -1154.926, 72.089 -1157.981"/>
<polygon class="line_style_2 fill_style_2" points="260.686 -1046.137, 248.798 -1037.5, 236.91 -1046.137, 241.451 -1060.113, 256.145 -1060.113"/>
<polygon class="line_style_2 fill_style_2" points="236.91 -1073.863, 248.798 -1082.5, 260.686 -1073.863, 256.145 -1059.887, 241.451 -1059.887"/>
<polygon class="line_style_2 fill_style_2" points="210.849 -1091.277, 209.313 -1105.891, 222.737 -1111.868, 232.569 -1100.948, 225.222 -1088.222"/>
<polygon class="line_style_2 fill_style_2" points="246.748 -1098.005, 248.284 -1083.391, 234.859 -1077.414, 225.027 -1088.334, 232.374 -1101.06"/>
<polygon class="line_style_2 fill_style_2" points="274.859 -1111.868, 288.284 -1105.891, 286.748 -1091.277, 272.374 -1088.222, 265.027 -1100.948"/>
<polygon class="line_style_2 fill_style_2" points="262.737 -1077.414, 249.313 -1083.391, 250.849 -1098.005, 265.222 -1101.06, 272.569 -1088.334"/>
<polygon class="line_style_2 fill_style_2" points="147.596 -1111.027, 135.708 -1119.665, 140.249 -1133.64, 154.944 -1133.64, 159.484 -1119.665"/>
<polygon class="line_style_2 fill_style_2" points="166.617 -1142.208, 178.506 -1133.57, 173.965 -1119.595, 159.27 -1119.595, 154.729 -1133.57"/>
<polygon class="line_style_2 fill_style_2" points="175.126 -1172.375, 188.55 -1178.352, 198.383 -1167.431, 191.035 -1154.706, 176.662 -1157.761"/>
<polygon class="line_style_2 fill_style_2" points="192.618 -1140.312, 179.194 -1134.335, 169.361 -1145.255, 176.709 -1157.981, 191.082 -1154.926"/>
<polygon class="line_style_2 fill_style_2" points="214.49 -1117.86, 212.954 -1103.246, 198.58 -1100.191, 191.233 -1112.916, 201.065 -1123.837"/>
<polygon class="line_style_2 fill_style_2" points="177.976 -1118.742, 179.512 -1133.357, 193.886 -1136.412, 201.233 -1123.686, 191.4 -1112.766"/>
<polygon class="line_style_2 fill_style_2" points="174.364 -1238.635, 178.905 -1252.6100000000001, 193.599 -1252.6100000000001, 198.14 -1238.635, 186.252 -1229.997"/>
<polygon class="line_style_2 fill_style_2" points="209.896 -1230.18, 205.355 -1216.204, 190.66 -1216.204, 186.119 -1230.18, 198.008 -1238.817"/>
<polygon class="line_style_2 fill_style_2" points="241.216 -1231.41, 251.048 -1220.49, 243.701 -1207.7640000000001, 229.328 -1210.819, 227.792 -1225.433"/>
<polygon class="line_style_2 fill_style_2" points="216.127 -1204.866, 206.295 -1215.786, 213.642 -1228.512, 228.016 -1225.4569999999999, 229.552 -1210.842"/>
<polygon class="line_style_2 fill_style_2" points="201.533 -1177.127, 187.159 -1174.0720000000001, 179.812 -1186.797, 189.645 -1197.718, 203.069 -1191.741"/>
<polygon class="line_style_2 fill_style_2" points="191.089 -1212.126, 205.463 -1215.181, 212.81 -1202.455, 202.977 -1191.535, 189.553 -1197.512"/>
<polygon class="line_style_2 fill_style_2" points="303.997 -1252.6100000000001, 318.692 -1252.6100000000001, 323.233 -1238.635, 311.344 -1229.997, 299.456 -1238.635"/>
<polygon class="line_style_2 fill_style_2" points="306.936 -1216.204, 292.241 -1216.204, 287.7 -1230.18, 299.589 -1238.817, 311.477 -1230.18"/>
<polygon class="line_style_2 fill_style_2" points="317.784 -1186.797, 310.437 -1174.0720000000001, 296.063 -1177.127, 294.527 -1191.741, 307.952 -1197.718"/>
<polygon class="line_style_2 fill_style_2" points="284.786 -1202.455, 292.134 -1215.181, 306.507 -1212.126, 308.043 -1197.512, 294.619 -1191.535"/>
<polygon class="line_style_2 fill_style_2" points="253.895 -1207.7640000000001, 246.548 -1220.49, 256.381 -1231.41, 269.805 -1225.433, 268.269 -1210.819"/>
<polygon class="line_style_2 fill_style_2" points="283.954 -1228.512, 291.301 -1215.786, 281.469 -1204.866, 268.045 -1210.842, 269.581 -1225.4569999999999"/>
<polygon class="line_style_2 fill_style_2" points="357.347 -1133.64, 361.888 -1119.665, 350.0 -1111.027, 338.112 -1119.665, 342.653 -1133.64"/>
<polygon class="line_style_2 fill_style_2" points="323.632 -1119.595, 319.091 -1133.57, 330.979 -1142.208, 342.867 -1133.57, 338.326 -1119.595"/>
<polygon class="line_style_2 fill_style_2" points="299.016 -1100.191, 284.643 -1103.246, 283.107 -1117.86, 296.531 -1123.837, 306.364 -1112.916"/>
<polygon class="line_style_2 fill_style_2" points="303.711 -1136.412, 318.084 -1133.357, 319.62 -1118.742, 306.196 -1112.766, 296.363 -1123.686"/>
<polygon class="line_style_2 fill_style_2" points="299.214 -1167.431, 309.046 -1178.352, 322.47 -1172.375, 320.934 -1157.761, 306.561 -1154.706"/>
<polygon class="line_style_2 fill_style_2" points="328.235 -1145.255, 318.402 -1134.335, 304.978 -1140.312, 306.514 -1154.926, 320.888 -1157.981"/>
<polygon class="line_style_1 fill_style_1" points="14.266 -1395.365, 0.0 -1385.0, -14.266 -1395.365, -8.817 -1412.135, 8.817 -1412.135"/>
<polygon class="line_style_1 fill_style_1" points="-14.266 -1424.635, 0.0 -1435.0, 14.266 -1424.635, 8.817 -1407.865, -8.817 -1407.865"/>
<polygon class="line_style_1 fill_style_1" points="-39.807 -1439.604, -41.651 -1457.141, -25.542 -1464.313, -13.742 -1451.209, -22.559 -1435.938"/>
<polygon class="line_style_1 fill_style_1" points="-0.193 -1449.6779999999999, 1.651 -1432.141, -14.458 -1424.969, -26.258 -1438.073, -17.441 -1453.344"/>
<polygon class="line_style_1 fill_style_1" points="25.542 -1464.313, 41.651 -1457.141, 39.807 -1439.604, 22.559 -1435.938, 13.742 -1451.209"/>
<polygon class="line_style_1 fill_style_1" points="14.458 -1424.969, -1.651 -1432.141, 0.193 -1449.6779999999999, 17.441 -1453.344, 26.258 -1438.073"/>
<polygon class="line_style_1 fill_style_1" points="-101.202 -1458.527, -115.468 -1468.892, -110.019 -1485.663, -92.385 -1485.663, -86.936 -1468.892"/>
<polygon class="line_style_1 fill_style_1" points="-82.181 -1494.708, -67.915 -1484.343, -73.364 -1467.573, -90.997 -1467.573, -96.447 -1484.343"/>
<polygon class="line_style_1 fill_style_1" points="-75.837 -1523.625, -59.728 -1530.797, -47.929 -1517.693, -56.746 -1502.422, -73.994 -1506.088"/>
<polygon class="line_style_1 fill_style_1" points="-54.015 -1489.062, -70.124 -1481.89, -81.923 -1494.994, -73.106 -1510.265, -55.858 -1506.599"/>
<polygon class="line_style_1 fill_style_1" points="-32.144 -1469.11, -33.987 -1451.573, -51.235 -1447.907, -60.052 -1463.1779999999999, -48.253 -1476.282"/>
<polygon class="line_style_1 fill_style_1" points="-72.987 -1467.492, -71.144 -1485.029, -53.896 -1488.696, -45.079 -1473.425, -56.878 -1460.32"/>
<polygon class="line_style_1 fill_style_1" points="-76.812 -1587.862, -71.363 -1604.633, -53.729 -1604.633, -48.28 -1587.862, -62.546 -1577.497"/>
<polygon class="line_style_1 fill_style_1" points="-36.525 -1580.952, -41.974 -1564.182, -59.607 -1564.182, -65.056 -1580.952, -50.79 -1591.317"/>
<polygon class="line_style_1 fill_style_1" points="-7.063 -1583.855, 4.737 -1570.751, -4.08 -1555.48, -21.328 -1559.146, -23.172 -1576.683"/>
<polygon class="line_style_1 fill_style_1" points="-33.19 -1552.42, -44.99 -1565.525, -36.173 -1580.796, -18.925 -1577.129, -17.081 -1559.592"/>
<polygon class="line_style_1 fill_style_1" points="-45.407 -1525.454, -62.656 -1521.788, -71.472 -1537.059, -59.673 -1550.163, -43.564 -1542.991"/>
<polygon class="line_style_1 fill_style_1" points="-59.567 -1563.799, -42.319 -1567.465, -33.502 -1552.194, -45.301 -1539.09, -61.41 -1546.262"/>
<polygon class="line_style_1 fill_style_1" points="53.729 -1604.633, 71.363 -1604.633, 76.812 -1587.862, 62.546 -1577.497, 48.28 -1587.862"/>
<polygon class="line_style_1 fill_style_1" points="59.607 -1564.182, 41.974 -1564.182, 36.525 -1580.952, 50.79 -1591.317, 65.056 -1580.952"/>
<polygon class="line_style_1 fill_style_1" points="71.472 -1537.059, 62.656 -1521.788, 45.407 -1525.454, 43.564 -1542.991, 59.673 -1550.163"/>
<polygon class="line_style_1 fill_style_1" points="33.502 -1552.194, 42.319 -1567.465, 59.567 -1563.799, 61.41 -1546.262, 45.301 -1539.09"/>
<polygon class="line_style_1 fill_style_1" points="4.08 -1555.48, -4.737 -1570.751, 7.063 -1583.855, 23.172 -1576.683, 21.328 -1559.146"/>
<polygon class="line_style_1 fill_style_1" points="36.173 -1580.796, 44.99 -1565.525, 33.19 -1552.42, 17.081 -1559.592, 18.925 -1577.129"/>
<polygon class="line_style_1 fill_style_1" points="110.019 -1485.663, 115.468 -1468.892, 101.202 -1458.527, 86.936 -1468.892, 92.385 -1485.663"/>
<polygon class="line_style_1 fill_style_1" points="73.364 -1467.573, 67.915 -1484.343, 82.181 -1494.708, 96.447 -1484.343, 90.997 -1467.573"/>
<polygon class="line_style_1 fill_style_1" points="51.235 -1447.907, 33.987 -1451.573, 32.144 -1469.11, 48.253 -1476.282, 60.052 -1463.1779999999999"/>
<polygon class="line_style_1 fill_style_1" points="53.896 -1488.696, 71.144 -1485.029, 72.987 -1467.492, 56.878 -1460.32, 45.079 -1473.425"/>
<polygon class="line_style_1 fill_style_1" points="47.929 -1517.693, 59.728 -1530.797, 75.837 -1523.625, 73.994 -1506.088, 56.746 -1502.422"/>
<polygon class="line_style_1 fill_style_1" points="81.923 -1494.994, 70.124 -1481.89, 54.015 -1489.062, 55.858 -1506.599, 73.106 -1510.265"/>
<polygon class="line_style_2 fill_style_2" points="268.295 -1395.365, 254.029 -1385.0, 239.763 -1395.365, 245.212 -1412.135, 262.846 -1412.135"/>
<polygon class="line_style_2 fill_style_2" points="239.763 -1424.635, 254.029 -1435.0, 268.295 -1424.635, 262.846 -1407.865, 245.212 -1407.865"/>
<polygon class="line_style_2 fill_style_2" points="214.222 -1439.604, 212.378 -1457.141, 228.487 -1464.313, 240.287 -1451.209, 231.47 -1435.938"/>
<polygon class="line_style_2 fill_style_2" points="253.836 -1449.6779999999999, 255.68 -1432.141, 239.571 -1424.969, 227.771 -1438.073, 236.588 -1453.344"/>
<polygon class="line_style_2 fill_style_2" points="279.571 -1464.313, 295.68 -1457.141, 293.836 -1439.604, 276.588 -1435.938, 267.771 -1451.209"/>
<polygon class="line_style_2 fill_style_2" points="268.487 -1424.969, 252.378 -1432.141, 254.222 -1449.6779999999999, 271.47 -1453.344, 280.287 -1438.073"/>
<polygon class="line_style_2 fill_style_2" points="152.827 -1458.527, 138.561 -1468.892, 144.01 -1485.663, 161.644 -1485.663, 167.093 -1468.892"/>
<polygon class="line_style_2 fill_style_2" points="171.848 -1494.708, 186.114 -1484.343, 180.665 -1467.573, 163.031 -1467.573, 157.582 -1484.343"/>
<polygon class="line_style_2 fill_style_2" points="178.192 -1523.625, 194.301 -1530.797, 206.1 -1517.693, 197.283 -1502.422, 180.035 -1506.088"/>
<polygon class="line_style_2 fill_style_2" points="200.014 -1489.062, 183.905 -1481.89, 172.106 -1494.994, 180.923 -1510.265, 198.171 -1506.599"/>
<polygon class="line_style_2 fill_style_2" points="221.885 -1469.11, 220.042 -1451.573, 202.794 -1447.907, 193.977 -1463.1779999999999, 205.776 -1476.282"/>
<polygon class="line_style_2 fill_style_2" points="181.042 -1467.492, 182.885 -1485.029, 200.133 -1488.696, 208.95 -1473.425, 197.151 -1460.32"/>
<polygon class="line_style_2 fill_style_2" points="177.217 -1587.862, 182.666 -1604.633, 200.3 -1604.633, 205.749 -1587.862, 191.483 -1577.497"/>
<polygon class="line_style_2 fill_style_2" points="217.504 -1580.952, 212.055 -1564.182, 194.422 -1564.182, 188.973 -1580.952, 203.238 -1591.317"/>
<polygon class="line_style_2 fill_style_2" points="246.966 -1583.855, 258.765 -1570.751, 249.949 -1555.48, 232.7 -1559.146, 230.857 -1576.683"/>
<polygon class="line_style_2 fill_style_2" points="220.839 -1552.42, 209.039 -1565.525, 217.856 -1580.796, 235.104 -1577.129, 236.948 -1559.592"/>
<polygon class="line_style_2 fill_style_2" points="208.622 -1525.454, 191.373 -1521.788, 182.557 -1537.059, 194.356 -1550.163, 210.465 -1542.991"/>
<polygon class="line_style_2 fill_style_2" points="194.462 -1563.799, 211.71 -1567.465, 220.527 -1552.194, 208.728 -1539.09, 192.619 -1546.262"/>
<polygon class="line_style_2 fill_style_2" points="307.758 -1604.633, 325.392 -1604.633, 330.841 -1587.862, 316.575 -1577.497, 302.309 -1587.862"/>
<polygon class="line_style_2 fill_style_2" points="313.636 -1564.182, 296.003 -1564.182, 290.554 -1580.952, 304.819 -1591.317, 319.085 -1580.952"/>
<polygon class="line_style_2 fill_style_2" points="325.501 -1537.059, 316.685 -1521.788, 299.436 -1525.454, 297.593 -1542.991, 313.702 -1550.163"/>
<polygon class="line_style_2 fill_style_2" points="287.531 -1552.194, 296.348 -1567.465, 313.596 -1563.799, 315.439 -1546.262, 299.33 -1539.09"/>
<polygon class="line_style_2 fill_style_2" points="258.109 -1555.48, 249.292 -1570.751, 261.092 -1583.855, 277.201 -1576.683, 275.357 -1559.146"/>
<polygon class="line_style_2 fill_style_2" points="290.202 -1580.796, 299.018 -1565.525, 287.219 -1552.42, 271.11 -1559.592, 272.953 -1577.129"/>
<polygon class="line_style_2 fill_style_2" points="364.048 -1485.663, 369.497 -1468.892, 355.231 -1458.527, 340.965 -1468.892, 346.414 -1485.663"/>
<polygon class="line_style_2 fill_style_2" points="327.393 -1467.573, 321.944 -1484.343, 336.21 -1494.708, 350.475 -1484.343, 345.026 -1467.573"/>
<polygon class="line_style_2 fill_style_2" points="305.264 -1447.907, 288.016 -1451.573, 286.172 -1469.11, 302.282 -1476.282, 314.081 -1463.1779999999999"/>
<polygon class="line_style_2 fill_style_2" points="307.925 -1488.696, 325.173 -1485.029, 327.016 -1467.492, 310.907 -1460.32, 299.108 -1473.425"/>
<polygon class="line_style_2 fill_style_2" points="301.958 -1517.693, 313.757 -1530.797, 329.866 -1523.625, 328.023 -1506.088, 310.775 -1502.422"/>
<polygon class="line_style_2 fill_style_2" points="335.952 -1494.994, 324.153 -1481.89, 308.044 -1489.062, 309.887 -1506.599, 327.135 -1510.265"/>
<polygon class="line_style_1 fill_style_1" points="16.643 -1744.592, 0.0 -1732.5, -16.643 -1744.592, -10.286 -1764.158, 10.286 -1764.158"/>
<polygon class="line_style_1 fill_style_1" points="-16.643 -1775.408, 0.0 -1787.5, 16.643 -1775.408, 10.286 -1755.842, -10.286 -1755.842"/>
<polygon class="line_style_1 fill_style_1" points="-41.665 -1787.931, -43.816 -1808.391, -25.022 -1816.759, -11.256 -1801.47, -21.542 -1783.654"/>
<polygon class="line_style_1 fill_style_1" points="1.665 -1801.351, 3.816 -1780.891, -14.978 -1772.523, -28.744 -1787.812, -18.458 -1805.628"/>
<polygon class="line_style_1 fill_style_1" points="25.022 -1816.759, 43.816 -1808.391, 41.665 -1787.931, 21.542 -1783.654, 11.256 -1801.47"/>
<polygon class="line_style_1 fill_style_1" points="14.978 -1772.523, -3.816 -1780.891, -1.665 -1801.351, 18.458 -1805.628, 28.744 -1787.812"/>
<polygon class="line_style_1 fill_style_1" points="-101.202 -1806.027, -117.845 -1818.12, -111.488 -1837.685, -90.916 -1837.685, -84.558 -1818.12"/>
<polygon class="line_style_1 fill_style_1" points="-82.181 -1847.208, -65.537 -1835.116, -71.894 -1815.55, -92.467 -1815.55, -98.824 -1835.116"/>
<polygon class="line_style_1 fill_style_1" points="-78.002 -1874.875, -59.208 -1883.242, -45.443 -1867.954, -55.729 -1850.138, -75.852 -1854.415"/>
<polygon class="line_style_1 fill_style_1" points="-51.85 -1837.812, -70.644 -1829.444, -84.409 -1844.733, -74.123 -1862.549, -54.0 -1858.272"/>
<polygon class="line_style_1 fill_style_1" points="-29.978 -1820.36, -32.129 -1799.9, -52.252 -1795.623, -62.538 -1813.439, -48.772 -1828.727"/>
<polygon class="line_style_1 fill_style_1" points="-75.152 -1816.242, -73.002 -1836.702, -52.879 -1840.98, -42.593 -1823.163, -56.358 -1807.875"/>
<polygon class="line_style_1 fill_style_1" points="-79.19 -1937.09, -72.832 -1956.655, -52.26 -1956.655, -45.903 -1937.09, -62.546 -1924.997"/>
<polygon class="line_style_1 fill_style_1" points="-34.147 -1931.725, -40.504 -1912.159, -61.077 -1912.159, -67.434 -1931.725, -50.79 -1943.817"/>
<polygon class="line_style_1 fill_style_1" points="-6.543 -1936.301, 7.223 -1921.012, -3.063 -1903.196, -23.186 -1907.473, -25.337 -1927.933"/>
<polygon class="line_style_1 fill_style_1" points="-33.71 -1899.975, -47.476 -1915.263, -37.19 -1933.079, -17.067 -1928.802, -14.916 -1908.342"/>
<polygon class="line_style_1 fill_style_1" points="-43.55 -1873.781, -63.672 -1869.504, -73.959 -1887.32, -60.193 -1902.608, -41.399 -1894.241"/>
<polygon class="line_style_1 fill_style_1" points="-61.425 -1915.472, -41.302 -1919.749, -31.016 -1901.933, -44.781 -1886.644, -63.575 -1895.012"/>
<polygon class="line_style_1 fill_style_1" points="52.26 -1956.655, 72.832 -1956.655, 79.19 -1937.09, 62.546 -1924.997, 45.903 -1937.09"/>
<polygon class="line_style_1 fill_style_1" points="61.077 -1912.159, 40.504 -1912.159, 34.147 -1931.725, 50.79 -1943.817, 67.434 -1931.725"/>
<polygon class="line_style_1 fill_style_1" points="73.959 -1887.32, 63.672 -1869.504, 43.55 -1873.781, 41.399 -1894.241, 60.193 -1902.608"/>
<polygon class="line_style_1 fill_style_1" points="31.016 -1901.933, 41.302 -1919.749, 61.425 -1915.472, 63.575 -1895.012, 44.781 -1886.644"/>
<polygon class="line_style_1 fill_style_1" points="3.063 -1903.196, -7.223 -1921.012, 6.543 -1936.301, 25.337 -1927.933, 23.186 -1907.473"/>
<polygon class="line_style_1 fill_style_1" points="37.19 -1933.079, 47.476 -1915.263, 33.71 -1899.975, 14.916 -1908.342, 17.067 -1928.802"/>
<polygon class="line_style_1 fill_style_1" points="111.488 -1837.685, 117.845 -1818.12, 101.202 -1806.027, 84.558 -1818.12, 90.916 -1837.685"/>
<polygon class="line_style_1 fill_style_1" points="71.894 -1815.55, 65.537 -1835.116, 82.181 -1847.208, 98.824 -1835.116, 92.467 -1815.55"/>
<polygon class="line_style_1 fill_style_1" points="52.252 -1795.623, 32.129 -1799.9, 29.978 -1820.36, 48.772 -1828.727, 62.538 -1813.439"/>
<polygon class="line_style_1 fill_style_1" points="52.879 -1840.98, 73.002 -1836.702, 75.152 -1816.242, 56.358 -1807.875, 42.593 -1823.163"/>
<polygon class="line_style_1 fill_style_1" points="45.443 -1867.954, 59.208 -1883.242, 78.002 -1874.875, 75.852 -1854.415, 55.729 -1850.138"/>
<polygon class="line_style_1 fill_style_1" points="84.409 -1844.733, 70.644 -1829.444, 51.85 -1837.812, 54.0 -1858.272, 74.123 -1862.549"/>
<polygon class="line_style_2 fill_style_2" points="275.903 -1744.592, 259.26 -1732.5, 242.616 -1744.592, 248.974 -1764.158, 269.546 -1764.158"/>
<polygon class="line_style_2 fill_style_2" points="242.616 -1775.408, 259.26 -1787.5, 275.903 -1775.408, 269.546 -1755.842, 248.974 -1755.842"/>
<polygon class="line_style_2 fill_style_2" points="217.594 -1787.931, 215.444 -1808.391, 234.238 -1816.759, 248.004 -1801.47, 237.717 -1783.654"/>
<polygon class="line_style_2 fill_style_2" points="260.925 -1801.351, 263.075 -1780.891, 244.282 -1772.523, 230.516 -1787.812, 240.802 -1805.628"/>
<polygon class="line_style_2 fill_style_2" points="284.282 -1816.759, 303.075 -1808.391, 300.925 -1787.931, 280.802 -1783.654, 270.516 -1801.47"/>
<polygon class="line_style_2 fill_style_2" points="274.238 -1772.523, 255.444 -1780.891, 257.594 -1801.351, 277.717 -1805.628, 288.004 -1787.812"/>
<polygon class="line_style_2 fill_style_2" points="158.058 -1806.027, 141.414 -1818.12, 147.772 -1837.685, 168.344 -1837.685, 174.701 -1818.12"/>
<polygon class="line_style_2 fill_style_2" points="177.079 -1847.208, 193.723 -1835.116, 187.365 -1815.55, 166.793 -1815.55, 160.436 -1835.116"/>
<polygon class="line_style_2 fill_style_2" points="181.257 -1874.875, 200.051 -1883.242, 213.817 -1867.954, 203.531 -1850.138, 183.408 -1854.415"/>
<polygon class="line_style_2 fill_style_2" points="207.41 -1837.812, 188.616 -1829.444, 174.85 -1844.733, 185.137 -1862.549, 205.26 -1858.272"/>
<polygon class="line_style_2 fill_style_2" points="229.281 -1820.36, 227.131 -1799.9, 207.008 -1795.623, 196.722 -1813.439, 210.487 -1828.727"/>
<polygon class="line_style_2 fill_style_2" points="184.107 -1816.242, 186.258 -1836.702, 206.381 -1840.98, 216.667 -1823.163, 202.901 -1807.875"/>
<polygon class="line_style_2 fill_style_2" points="180.07 -1937.09, 186.427 -1956.655, 207.0 -1956.655, 213.357 -1937.09, 196.714 -1924.997"/>
<polygon class="line_style_2 fill_style_2" points="225.113 -1931.725, 218.756 -1912.159, 198.183 -1912.159, 191.826 -1931.725, 208.469 -1943.817"/>
<polygon class="line_style_2 fill_style_2" points="252.717 -1936.301, 266.483 -1921.012, 256.196 -1903.196, 236.073 -1907.473, 233.923 -1927.933"/>
<polygon class="line_style_2 fill_style_2" points="225.55 -1899.975, 211.784 -1915.263, 222.07 -1933.079, 242.193 -1928.802, 244.343 -1908.342"/>
<polygon class="line_style_2 fill_style_2" points="215.71 -1873.781, 195.587 -1869.504, 185.301 -1887.32, 199.067 -1902.608, 217.861 -1894.241"/>
<polygon class="line_style_2 fill_style_2" points="197.835 -1915.472, 217.958 -1919.749, 228.244 -1901.933, 214.478 -1886.644, 195.684 -1895.012"/>
<polygon class="line_style_2 fill_style_2" points="311.52 -1956.655, 332.092 -1956.655, 338.449 -1937.09, 321.806 -1924.997, 305.162 -1937.09"/>
<polygon class="line_style_2 fill_style_2" points="320.336 -1912.159, 299.764 -1912.159, 293.407 -1931.725, 310.05 -1943.817, 326.694 -1931.725"/>
<polygon class="line_style_2 fill_style_2" points="333.218 -1887.32, 322.932 -1869.504, 302.809 -1873.781, 300.659 -1894.241, 319.453 -1902.608"/>
<polygon class="line_style_2 fill_style_2" points="290.275 -1901.933, 300.562 -1919.749, 320.685 -1915.472, 322.835 -1895.012, 304.041 -1886.644"/>
<polygon class="line_style_2 fill_style_2" points="262.323 -1903.196, 252.037 -1921.012, 265.803 -1936.301, 284.596 -1927.933, 282.446 -1907.473"/>
<polygon class="line_style_2 fill_style_2" points="296.449 -1933.079, 306.736 -1915.263, 292.97 -1899.975, 274.176 -1908.342, 276.326 -1928.802"/>
<polygon class="line_style_2 fill_style_2" points="370.748 -1837.685, 377.105 -1818.12, 360.462 -1806.027, 343.818 -1818.12, 350.175 -1837.685"/>
<polygon class="line_style_2 fill_style_2" points="331.154 -1815.55, 324.797 -1835.116, 341.44 -1847.208, 358.084 -1835.116, 351.727 -1815.55"/>
<polygon class="line_style_2 fill_style_2" points="311.512 -1795.623, 291.389 -1799.9, 289.238 -1820.36, 308.032 -1828.727, 321.798 -1813.439"/>
<polygon class="line_style_2 fill_style_2" points="312.139 -1840.98, 332.262 -1836.702, 334.412 -1816.242, 315.618 -1807.875, 301.852 -1823.163"/>
<polygon class="line_style_2 fill_style_2" points="304.703 -1867.954, 318.468 -1883.242, 337.262 -1874.875, 335.112 -1854.415, 314.989 -1850.138"/>
<polygon class="line_style_2 fill_style_2" points="343.669 -1844.733, 329.903 -1829.444, 311.109 -1837.812, 313.26 -1858.272, 333.383 -1862.549"/>
<polygon class="line_style_1 fill_style_1" points="19.021 -2093.82, 0.0 -2080.0, -19.021 -2093.82, -11.756 -2116.18, 11.756 -2116.18"/>
<polygon class="line_style_1 fill_style_1" points="-19.021 -2126.18, 0.0 -2140.0, 19.021 -2126.18, 11.756 -2103.82, -11.756 -2103.82"/>
<polygon class="line_style_1 fill_style_1" points="-43.523 -2136.258, -45.981 -2159.641, -24.502 -2169.204, -8.77 -2151.732, -20.526 -2131.37"/>
<polygon class="line_style_1 fill_style_1" points="3.523 -2153.024, 5.981 -2129.641, -15.498 -2120.078, -31.23 -2137.55, -19.474 -2157.912"/>
<polygon class="line_style_1 fill_style_1" points="24.502 -2169.204, 45.981 -2159.641, 43.523 -2136.258, 20.526 -2131.37, 8.77 -2151.732"/>
<polygon class="line_style_1 fill_style_1" points="15.498 -2120.078, -5.981 -2129.641, -3.523 -2153.024, 19.474 -2157.912, 31.23 -2137.55"/>
<polygon class="line_style_1 fill_style_1" points="-101.202 -2153.527, -120.223 -2167.347, -112.958 -2189.708, -89.446 -2189.708, -82.181 -2167.347"/>
<polygon class="line_style_1 fill_style_1" points="-82.181 -2199.708, -63.16 -2185.888, -70.425 -2163.527, -93.936 -2163.527, -101.202 -2185.888"/>
<polygon class="line_style_1 fill_style_1" points="-80.167 -2226.125, -58.689 -2235.688, -42.957 -2218.215, -54.712 -2197.854, -77.71 -2202.742"/>
<polygon class="line_style_1 fill_style_1" points="-49.685 -2186.562, -71.163 -2176.999, -86.896 -2194.471, -75.14 -2214.833, -52.142 -2209.945"/>
<polygon class="line_style_1 fill_style_1" points="-27.813 -2171.61, -30.271 -2148.227, -53.269 -2143.339, -65.024 -2163.7, -49.292 -2181.173"/>
<polygon class="line_style_1 fill_style_1" points="-77.317 -2164.992, -74.86 -2188.375, -51.862 -2193.263, -40.106 -2172.902, -55.839 -2155.43"/>
<polygon class="line_style_1 fill_style_1" points="-81.567 -2286.317, -74.302 -2308.678, -50.79 -2308.678, -43.525 -2286.317, -62.546 -2272.497"/>
<polygon class="line_style_1 fill_style_1" points="-31.769 -2282.497, -39.035 -2260.137, -62.546 -2260.137, -69.812 -2282.497, -50.79 -2296.317"/>
<polygon class="line_style_1 fill_style_1" points="-6.023 -2288.746, 9.709 -2271.274, -2.047 -2250.912, -25.044 -2255.8, -27.502 -2279.183"/>
<polygon class="line_style_1 fill_style_1" points="-34.23 -2247.529, -49.962 -2265.002, -38.206 -2285.363, -15.209 -2280.475, -12.751 -2257.092"/>
<polygon class="line_style_1 fill_style_1" points="-41.692 -2222.108, -64.689 -2217.22, -76.445 -2237.581, -60.713 -2255.054, -39.234 -2245.491"/>
<polygon class="line_style_1 fill_style_1" points="-63.283 -2267.1440000000002, -40.285 -2272.033, -28.529 -2251.671, -44.262 -2234.199, -65.74 -2243.762"/>
<polygon class="line_style_1 fill_style_1" points="50.79 -2308.678, 74.302 -2308.678, 81.567 -2286.317, 62.546 -2272.497, 43.525 -2286.317"/>
<polygon class="line_style_1 fill_style_1" points="62.546 -2260.137, 39.035 -2260.137, 31.769 -2282.497, 50.79 -2296.317, 69.812 -2282.497"/>
<polygon class="line_style_1 fill_style_1" points="76.445 -2237.581, 64.689 -2217.22, 41.692 -2222.108, 39.234 -2245.491, 60.713 -2255.054"/>
<polygon class="line_style_1 fill_style_1" points="28.529 -2251.671, 40.285 -2272.033, 63.283 -2267.1440000000002, 65.74 -2243.762, 44.262 -2234.199"/>
<polygon class="line_style_1 fill_style_1" points="2.047 -2250.912, -9.709 -2271.274, 6.023 -2288.746, 27.502 -2279.183, 25.044 -2255.8"/>
<polygon class="line_style_1 fill_style_1" points="38.206 -2285.363, 49.962 -2265.002, 34.23 -2247.529, 12.751 -2257.092, 15.209 -2280.475"/>
<polygon class="line_style_1 fill_style_1" points="112.958 -2189.708, 120.223 -2167.347, 101.202 -2153.527, 82.181 -2167.347, 89.446 -2189.708"/>
<polygon class="line_style_1 fill_style_1" points="70.425 -2163.527, 63.16 -2185.888, 82.181 -2199.708, 101.202 -2185.888, 93.936 -2163.527"/>
<polygon class="line_style_1 fill_style_1" points="53.269 -2143.339, 30.271 -2148.227, 27.813 -2171.61, 49.292 -2181.173, 65.024 -2163.7"/>
<polygon class="line_style_1 fill_style_1" points="51.862 -2193.263, 74.86 -2188.375, 77.317 -2164.992, 55.839 -2155.43, 40.106 -2172.902"/>
<polygon class="line_style_1 fill_style_1" points="42.957 -2218.215, 58.689 -2235.688, 80.167 -2226.125, 77.71 -2202.742, 54.712 -2197.854"/>
<polygon class="line_style_1 fill_style_1" points="86.896 -2194.471, 71.163 -2176.999, 49.685 -2186.562, 52.142 -2209.945, 75.14 -2214.833"/>
<polygon class="line_style_2 fill_style_2" points="283.512 -2093.82, 264.491 -2080.0, 245.469 -2093.82, 252.735 -2116.18, 276.246 -2116.18"/>
<polygon class="line_style_2 fill_style_2" points="245.469 -2126.18, 264.491 -2140.0, 283.512 -2126.18, 276.246 -2103.82, 252.735 -2103.82"/>
<polygon class="line_style_2 fill_style_2" points="220.967 -2136.258, 218.51 -2159.641, 239.989 -2169.204, 255.721 -2151.732, 243.965 -2131.37"/>
<polygon class="line_style_2 fill_style_2" points="268.014 -2153.024, 270.471 -2129.641, 248.993 -2120.078, 233.26 -2137.55, 245.016 -2157.912"/>
<polygon class="line_style_2 fill_style_2" points="288.993 -2169.204, 310.471 -2159.641, 308.014 -2136.258, 285.016 -2131.37, 273.26 -2151.732"/>
<polygon class="line_style_2 fill_style_2" points="279.989 -2120.078, 258.51 -2129.641, 260.967 -2153.024, 283.965 -2157.912, 295.721 -2137.55"/>
<polygon class="line_style_2 fill_style_2" points="163.289 -2153.527, 144.268 -2167.347, 151.533 -2189.708, 175.044 -2189.708, 182.31 -2167.347"/>
<polygon class="line_style_2 fill_style_2" points="182.31 -2199.708, 201.331 -2185.888, 194.066 -2163.527, 170.554 -2163.527, 163.289 -2185.888"/>
<polygon class="line_style_2 fill_style_2" points="184.323 -2226.125, 205.802 -2235.688, 221.534 -2218.215, 209.778 -2197.854, 186.781 -2202.742"/>
<polygon class="line_style_2 fill_style_2" points="214.806 -2186.562, 193.327 -2176.999, 177.595 -2194.471, 189.351 -2214.833, 212.348 -2209.945"/>
<polygon class="line_style_2 fill_style_2" points="236.677 -2171.61, 234.22 -2148.227, 211.222 -2143.339, 199.466 -2163.7, 215.198 -2181.173"/>
<polygon class="line_style_2 fill_style_2" points="187.173 -2164.992, 189.631 -2188.375, 212.628 -2193.263, 224.384 -2172.902, 208.652 -2155.43"/>
<polygon class="line_style_2 fill_style_2" points="182.923 -2286.317, 190.189 -2308.678, 213.7 -2308.678, 220.966 -2286.317, 201.944 -2272.497"/>
<polygon class="line_style_2 fill_style_2" points="232.721 -2282.497, 225.456 -2260.137, 201.944 -2260.137, 194.679 -2282.497, 213.7 -2296.317"/>
<polygon class="line_style_2 fill_style_2" points="258.467 -2288.746, 274.2 -2271.274, 262.444 -2250.912, 239.446 -2255.8, 236.989 -2279.183"/>
<polygon class="line_style_2 fill_style_2" points="230.261 -2247.529, 214.528 -2265.002, 226.284 -2285.363, 249.282 -2280.475, 251.739 -2257.092"/>
<polygon class="line_style_2 fill_style_2" points="222.799 -2222.108, 199.801 -2217.22, 188.046 -2237.581, 203.778 -2255.054, 225.257 -2245.491"/>
<polygon class="line_style_2 fill_style_2" points="201.208 -2267.1440000000002, 224.205 -2272.033, 235.961 -2251.671, 220.229 -2234.199, 198.75 -2243.762"/>
<polygon class="line_style_2 fill_style_2" points="315.281 -2308.678, 338.792 -2308.678, 346.058 -2286.317, 327.037 -2272.497, 308.016 -2286.317"/>
<polygon class="line_style_2 fill_style_2" points="327.037 -2260.137, 303.525 -2260.137, 296.26 -2282.497, 315.281 -2296.317, 334.302 -2282.497"/>
<polygon class="line_style_2 fill_style_2" points="340.936 -2237.581, 329.18 -2217.22, 306.182 -2222.108, 303.725 -2245.491, 325.203 -2255.054"/>
<polygon class="line_style_2 fill_style_2" points="293.02 -2251.671, 304.776 -2272.033, 327.773 -2267.1440000000002, 330.231 -2243.762, 308.752 -2234.199"/>
<polygon class="line_style_2 fill_style_2" points="266.537 -2250.912, 254.781 -2271.274, 270.514 -2288.746, 291.992 -2279.183, 289.535 -2255.8"/>
<polygon class="line_style_2 fill_style_2" points="302.697 -2285.363, 314.453 -2265.002, 298.721 -2247.529, 277.242 -2257.092, 279.699 -2280.475"/>
<polygon class="line_style_2 fill_style_2" points="377.448 -2189.708, 384.714 -2167.347, 365.692 -2153.527, 346.671 -2167.347, 353.937 -2189.708"/>
<polygon class="line_style_2 fill_style_2" points="334.916 -2163.527, 327.65 -2185.888, 346.671 -2199.708, 365.692 -2185.888, 358.427 -2163.527"/>
<polygon class="line_style_2 fill_style_2" points="317.759 -2143.339, 294.762 -2148.227, 292.304 -2171.61, 313.783 -2181.173, 329.515 -2163.7"/>
<polygon class="line_style_2 fill_style_2" points="316.353 -2193.263, 339.35 -2188.375, 341.808 -2164.992, 320.329 -2155.43, 304.597 -2172.902"/>
<polygon class="line_style_2 fill_style_2" points="307.447 -2218.215, 323.179 -2235.688, 344.658 -2226.125, 342.2 -2202.742, 319.203 -2197.854"/>
<polygon class="line_style_2 fill_style_2" points="351.386 -2194.471, 335.654 -2176.999, 314.175 -2186.562, 316.633 -2209.945, 339.63 -2214.833"/>
<polygon class="line_style_1 fill_style_1" points="21.399 -2443.047, 0.0 -2427.5, -21.399 -2443.047, -13.225 -2468.203, 13.225 -2468.203"/>
<polygon class="line_style_1 fill_style_1" points="-21.399 -2476.953, 0.0 -2492.5, 21.399 -2476.953, 13.225 -2451.797, -13.225 -2451.797"/>
<polygon class="line_style_1 fill_style_1" points="-45.381 -2484.586, -48.146 -2510.891, -23.982 -2521.649, -6.284 -2501.993, -19.509 -2479.086"/>
<polygon class="line_style_1 fill_style_1" points="5.381 -2504.696, 8.146 -2478.391, -16.018 -2467.633, -33.716 -2487.289, -20.491 -2510.196"/>
<polygon class="line_style_1 fill_style_1" points="23.982 -2521.649, 48.146 -2510.891, 45.381 -2484.586, 19.509 -2479.086, 6.284 -2501.993"/>
<polygon class="line_style_1 fill_style_1" points="16.018 -2467.633, -8.146 -2478.391, -5.381 -2504.696, 20.491 -2510.196, 33.716 -2487.289"/>
<polygon class="line_style_1 fill_style_1" points="-101.202 -2501.027, -122.601 -2516.575, -114.427 -2541.73, -87.977 -2541.73, -79.803 -2516.575"/>
<polygon class="line_style_1 fill_style_1" points="-82.181 -2552.208, -60.782 -2536.661, -68.956 -2511.505, -95.406 -2511.505, -103.579 -2536.661"/>
<polygon class="line_style_1 fill_style_1" points="-82.333 -2577.375, -58.169 -2588.133, -40.47 -2568.477, -53.695 -2545.57, -79.568 -2551.069"/>
<polygon class="line_style_1 fill_style_1" points="-47.52 -2535.312, -71.683 -2524.554, -89.382 -2544.21, -76.157 -2567.117, -50.284 -2561.617"/>
<polygon class="line_style_1 fill_style_1" points="-25.648 -2522.86, -28.413 -2496.554, -54.286 -2491.055, -67.511 -2513.962, -49.812 -2533.618"/>
<polygon class="line_style_1 fill_style_1" points="-79.482 -2513.742, -76.718 -2540.048, -50.845 -2545.547, -37.62 -2522.641, -55.319 -2502.984"/>
<polygon class="line_style_1 fill_style_1" points="-83.945 -2635.544, -75.771 -2660.7, -49.321 -2660.7, -41.147 -2635.544, -62.546 -2619.997"/>
<polygon class="line_style_1 fill_style_1" points="-29.392 -2633.27, -37.565 -2608.114, -64.016 -2608.114, -72.189 -2633.27, -50.79 -2648.817"/>
<polygon class="line_style_1 fill_style_1" points="-5.503 -2641.191, 12.195 -2621.535, -1.03 -2598.628, -26.902 -2604.128, -29.667 -2630.433"/>
<polygon class="line_style_1 fill_style_1" points="-34.75 -2595.084, -52.448 -2614.741, -39.223 -2637.647, -13.351 -2632.148, -10.586 -2605.842"/>
<polygon class="line_style_1 fill_style_1" points="-39.834 -2570.435, -65.706 -2564.936, -78.931 -2587.843, -61.233 -2607.499, -37.069 -2596.741"/>
<polygon class="line_style_1 fill_style_1" points="-65.141 -2618.817, -39.268 -2624.317, -26.043 -2601.41, -43.742 -2581.753, -67.905 -2592.512"/>
<polygon class="line_style_1 fill_style_1" points="49.321 -2660.7, 75.771 -2660.7, 83.945 -2635.544, 62.546 -2619.997, 41.147 -2635.544"/>
<polygon class="line_style_1 fill_style_1" points="64.016 -2608.114, 37.565 -2608.114, 29.392 -2633.27, 50.79 -2648.817, 72.189 -2633.27"/>
<polygon class="line_style_1 fill_style_1" points="78.931 -2587.843, 65.706 -2564.936, 39.834 -2570.435, 37.069 -2596.741, 61.233 -2607.499"/>
<polygon class="line_style_1 fill_style_1" points="26.043 -2601.41, 39.268 -2624.317, 65.141 -2618.817, 67.905 -2592.512, 43.742 -2581.753"/>
<polygon class="line_style_1 fill_style_1" points="1.03 -2598.628, -12.195 -2621.535, 5.503 -2641.191, 29.667 -2630.433, 26.902 -2604.128"/>
<polygon class="line_style_1 fill_style_1" points="39.223 -2637.647, 52.448 -2614.741, 34.75 -2595.084, 10.586 -2605.842, 13.351 -2632.148"/>
<polygon class="line_style_1 fill_style_1" points="114.427 -2541.73, 122.601 -2516.575, 101.202 -2501.027, 79.803 -2516.575, 87.977 -2541.73"/>
<polygon class="line_style_1 fill_style_1" points="68.956 -2511.505, 60.782 -2536.661, 82.181 -2552.208, 103.579 -2536.661, 95.406 -2511.505"/>
<polygon class="line_style_1 fill_style_1" points="54.286 -2491.055, 28.413 -2496.554, 25.648 -2522.86, 49.812 -2533.618, 67.511 -2513.962"/>
<polygon class="line_style_1 fill_style_1" points="50.845 -2545.547, 76.718 -2540.048, 79.482 -2513.742, 55.319 -2502.984, 37.62 -2522.641"/>
<polygon class="line_style_1 fill_style_1" points="40.47 -2568.477, 58.169 -2588.133, 82.333 -2577.375, 79.568 -2551.069, 53.695 -2545.57"/>
<polygon class="line_style_1 fill_style_1" points="89.382 -2544.21, 71.683 -2524.554, 47.52 -2535.312, 50.284 -2561.617, 76.157 -2567.117"/>
<polygon class="line_style_2 fill_style_2" points="291.12 -2443.047, 269.721 -2427.5, 248.323 -2443.047, 256.496 -2468.203, 282.947 -2468.203"/>
<polygon class="line_style_2 fill_style_2" points="248.323 -2476.953, 269.721 -2492.5, 291.12 -2476.953, 282.947 -2451.797, 256.496 -2451.797"/>
<polygon class="line_style_2 fill_style_2" points="224.34 -2484.586, 221.576 -2510.891, 245.739 -2521.649, 263.438 -2501.993, 250.213 -2479.086"/>
<polygon class="line_style_2 fill_style_2" points="275.102 -2504.696, 277.867 -2478.391, 253.704 -2467.633, 236.005 -2487.289, 249.23 -2510.196"/>
<polygon class="line_style_2 fill_style_2" points="293.704 -2521.649, 317.867 -2510.891, 315.102 -2484.586, 289.23 -2479.086, 276.005 -2501.993"/>
<polygon class="line_style_2 fill_style_2" points="285.739 -2467.633, 261.576 -2478.391, 264.34 -2504.696, 290.213 -2510.196, 303.438 -2487.289"/>
<polygon class="line_style_2 fill_style_2" points="168.52 -2501.027, 147.121 -2516.575, 155.294 -2541.73, 181.745 -2541.73, 189.918 -2516.575"/>
<polygon class="line_style_2 fill_style_2" points="187.541 -2552.208, 208.939 -2536.661, 200.766 -2511.505, 174.315 -2511.505, 166.142 -2536.661"/>
<polygon class="line_style_2 fill_style_2" points="187.389 -2577.375, 211.552 -2588.133, 229.251 -2568.477, 216.026 -2545.57, 190.154 -2551.069"/>
<polygon class="line_style_2 fill_style_2" points="222.202 -2535.312, 198.038 -2524.554, 180.339 -2544.21, 193.565 -2567.117, 219.437 -2561.617"/>
<polygon class="line_style_2 fill_style_2" points="244.073 -2522.86, 241.308 -2496.554, 215.436 -2491.055, 202.211 -2513.962, 219.909 -2533.618"/>
<polygon class="line_style_2 fill_style_2" points="190.239 -2513.742, 193.004 -2540.048, 218.876 -2545.547, 232.101 -2522.641, 214.403 -2502.984"/>
<polygon class="line_style_2 fill_style_2" points="185.776 -2635.544, 193.95 -2660.7, 220.4 -2660.7, 228.574 -2635.544, 207.175 -2619.997"/>
<polygon class="line_style_2 fill_style_2" points="240.33 -2633.27, 232.156 -2608.114, 205.706 -2608.114, 197.532 -2633.27, 218.931 -2648.817"/>
<polygon class="line_style_2 fill_style_2" points="264.218 -2641.191, 281.917 -2621.535, 268.692 -2598.628, 242.819 -2604.128, 240.055 -2630.433"/>
<polygon class="line_style_2 fill_style_2" points="234.972 -2595.084, 217.273 -2614.741, 230.498 -2637.647, 256.37 -2632.148, 259.135 -2605.842"/>
<polygon class="line_style_2 fill_style_2" points="229.888 -2570.435, 204.015 -2564.936, 190.79 -2587.843, 208.489 -2607.499, 232.652 -2596.741"/>
<polygon class="line_style_2 fill_style_2" points="204.581 -2618.817, 230.453 -2624.317, 243.678 -2601.41, 225.98 -2581.753, 201.816 -2592.512"/>
<polygon class="line_style_2 fill_style_2" points="319.042 -2660.7, 345.493 -2660.7, 353.666 -2635.544, 332.268 -2619.997, 310.869 -2635.544"/>
<polygon class="line_style_2 fill_style_2" points="333.737 -2608.114, 307.287 -2608.114, 299.113 -2633.27, 320.512 -2648.817, 341.911 -2633.27"/>
<polygon class="line_style_2 fill_style_2" points="348.653 -2587.843, 335.427 -2564.936, 309.555 -2570.435, 306.79 -2596.741, 330.954 -2607.499"/>
<polygon class="line_style_2 fill_style_2" points="295.764 -2601.41, 308.99 -2624.317, 334.862 -2618.817, 337.627 -2592.512, 313.463 -2581.753"/>
<polygon class="line_style_2 fill_style_2" points="270.751 -2598.628, 257.526 -2621.535, 275.225 -2641.191, 299.388 -2630.433, 296.623 -2604.128"/>
<polygon class="line_style_2 fill_style_2" points="308.945 -2637.647, 322.17 -2614.741, 304.471 -2595.084, 280.308 -2605.842, 283.072 -2632.148"/>
<polygon class="line_style_2 fill_style_2" points="384.148 -2541.73, 392.322 -2516.575, 370.923 -2501.027, 349.524 -2516.575, 357.698 -2541.73"/>
<polygon class="line_style_2 fill_style_2" points="338.677 -2511.505, 330.503 -2536.661, 351.902 -2552.208, 373.301 -2536.661, 365.127 -2511.505"/>
<polygon class="line_style_2 fill_style_2" points="324.007 -2491.055, 298.135 -2496.554, 295.37 -2522.86, 319.533 -2533.618, 337.232 -2513.962"/>
<polygon class="line_style_2 fill_style_2" points="320.567 -2545.547, 346.439 -2540.048, 349.204 -2513.742, 325.04 -2502.984, 307.341 -2522.641"/>
<polygon class="line_style_2 fill_style_2" points="310.192 -2568.477, 327.89 -2588.133, 352.054 -2577.375, 349.289 -2551.069, 323.417 -2545.57"/>
<polygon class="line_style_2 fill_style_2" points="359.103 -2544.21, 341.405 -2524.554, 317.241 -2535.312, 320.006 -2561.617, 345.878 -2567.117"/>
   </g>
</svg>