<svg xmlns="http://www.w3.org/2000/svg" width="619.2376043070343pt" height="542.974226119286pt" viewBox="-189.61880215351707 -479.3332099679084 619.2376043070343 542.974226119286">
    <style>
.line_style_1 {stroke: rgb(0, 0, 0)}
.fill_style_1 {fill: rgb(127, 25, 0)}
.fill_style_2 {fill: rgb(179, 134, 44)}
.fill_style_3 {fill: rgb(227, 229, 154)}
.fill_style_4 {fill: rgb(138, 216, 216)}
.fill_style_5 {fill: rgb(62, 130, 187)}
.fill_style_6 {fill: rgb(255, 255, 255)}
</style>
    <g transform="translate(0 -415.6921938165308) scale(1,-1)">
    <rect x="-189.61880215351707" y="-479.3332099679084" width="619.2376043070343" height="542.974226119286" fill="rgb(255, 255, 255)"/>



<polygon class="line_style_1 fill_style_1" points="210.0 -425.013, 215.381 -415.692, 210.0 -406.372, 204.619 -415.692"/>
<polygon class="line_style_1 fill_style_1" points="263.072 -394.372, 257.691 -385.051, 246.928 -385.051, 252.309 -394.372"/>
<polygon class="line_style_1 fill_style_1" points="353.072 -238.487, 347.691 -229.167, 336.928 -229.167, 342.309 -238.487"/>
<polygon class="line_style_1 fill_style_1" points="66.928 -342.41, 77.691 -342.41, 83.072 -333.09, 72.309 -333.09"/>
<polygon class="line_style_1 fill_style_1" points="246.928 -342.41, 257.691 -342.41, 263.072 -333.09, 252.309 -333.09"/>
<polygon class="line_style_1 fill_style_1" points="246.928 -238.487, 257.691 -238.487, 263.072 -229.167, 252.309 -229.167"/>
<polygon class="line_style_1 fill_style_1" points="336.928 -186.526, 347.691 -186.526, 353.072 -177.205, 342.309 -177.205"/>
<polygon class="line_style_1 fill_style_1" points="300.0 -165.205, 305.381 -155.885, 300.0 -146.564, 294.619 -155.885"/>
<polygon class="line_style_1 fill_style_1" points="156.928 -82.603, 167.691 -82.603, 173.072 -73.282, 162.309 -73.282"/>
<polygon class="line_style_1 fill_style_1" points="210.0 -9.321, 215.381 0.0, 210.0 9.321, 204.619 0.0"/>
<polygon class="line_style_1 fill_style_1" points="-60.0 -269.128, -54.619 -259.808, -60.0 -250.487, -65.381 -259.808"/>
<polygon class="line_style_1 fill_style_1" points="173.072 -30.641, 167.691 -21.321, 156.928 -21.321, 162.309 -30.641"/>
<polygon class="line_style_1 fill_style_1" points="120.0 -61.282, 125.381 -51.962, 120.0 -42.641, 114.619 -51.962"/>
<polygon class="line_style_1 fill_style_1" points="30.0 -9.321, 35.381 0.0, 30.0 9.321, 24.619 0.0"/>
<polygon class="line_style_1 fill_style_1" points="30.0 -425.013, 35.381 -415.692, 30.0 -406.372, 24.619 -415.692"/>
<polygon class="line_style_1 fill_style_1" points="83.072 -394.372, 77.691 -385.051, 66.928 -385.051, 72.309 -394.372"/>
<polygon class="line_style_1 fill_style_1" points="30.0 -321.09, 35.381 -311.769, 30.0 -302.449, 24.619 -311.769"/>
<polygon class="line_style_1 fill_style_1" points="-113.072 -238.487, -102.309 -238.487, -96.928 -229.167, -107.691 -229.167"/>
<polygon class="line_style_1 fill_style_1" points="-96.928 -186.526, -102.309 -177.205, -113.072 -177.205, -107.691 -186.526"/>
<polygon class="line_style_1 fill_style_1" points="263.072 -82.603, 257.691 -73.282, 246.928 -73.282, 252.309 -82.603"/>
<polygon class="line_style_1 fill_style_1" points="30.0 -113.244, 35.381 -103.923, 30.0 -94.603, 24.619 -103.923"/>
<polygon class="line_style_1 fill_style_1" points="66.928 -30.641, 77.691 -30.641, 83.072 -21.321, 72.309 -21.321"/>
<polygon class="line_style_1 fill_style_1" points="-23.072 -186.526, -12.309 -186.526, -6.928 -177.205, -17.691 -177.205"/>
<polygon class="line_style_1 fill_style_1" points="83.072 -82.603, 77.691 -73.282, 66.928 -73.282, 72.309 -82.603"/>
<polygon class="line_style_1 fill_style_1" points="-6.928 -342.41, -12.309 -333.09, -23.072 -333.09, -17.691 -342.41"/>
<polygon class="line_style_1 fill_style_1" points="-6.928 -238.487, -12.309 -229.167, -23.072 -229.167, -17.691 -238.487"/>
<polygon class="line_style_1 fill_style_1" points="-23.072 -82.603, -12.309 -82.603, -6.928 -73.282, -17.691 -73.282"/>
<polygon class="line_style_1 fill_style_1" points="-6.928 -30.641, -12.309 -21.321, -23.072 -21.321, -17.691 -30.641"/>
<polygon class="line_style_1 fill_style_1" points="-23.072 -394.372, -12.309 -394.372, -6.928 -385.051, -17.691 -385.051"/>
<polygon class="line_style_1 fill_style_1" points="246.928 -30.641, 257.691 -30.641, 263.072 -21.321, 252.309 -21.321"/>
<polygon class="line_style_1 fill_style_1" points="-6.928 -134.564, -12.309 -125.244, -23.072 -125.244, -17.691 -134.564"/>
<polygon class="line_style_1 fill_style_1" points="-60.0 -165.205, -54.619 -155.885, -60.0 -146.564, -65.381 -155.885"/>
<polygon class="line_style_1 fill_style_1" points="210.0 -321.09, 215.381 -311.769, 210.0 -302.449, 204.619 -311.769"/>
<polygon class="line_style_1 fill_style_1" points="263.072 -186.526, 257.691 -177.205, 246.928 -177.205, 252.309 -186.526"/>
<polygon class="line_style_1 fill_style_1" points="246.928 -134.564, 257.691 -134.564, 263.072 -125.244, 252.309 -125.244"/>
<polygon class="line_style_1 fill_style_1" points="210.0 -113.244, 215.381 -103.923, 210.0 -94.603, 204.619 -103.923"/>
<polygon class="line_style_1 fill_style_1" points="-23.072 -290.449, -12.309 -290.449, -6.928 -281.128, -17.691 -281.128"/>
<polygon class="line_style_1 fill_style_1" points="120.0 -373.051, 125.381 -363.731, 120.0 -354.41, 114.619 -363.731"/>
<polygon class="line_style_1 fill_style_1" points="173.072 -342.41, 167.691 -333.09, 156.928 -333.09, 162.309 -342.41"/>
<polygon class="line_style_1 fill_style_1" points="300.0 -269.128, 305.381 -259.808, 300.0 -250.487, 294.619 -259.808"/>
<polygon class="line_style_1 fill_style_1" points="156.928 -394.372, 167.691 -394.372, 173.072 -385.051, 162.309 -385.051"/>
<polygon class="line_style_1 fill_style_1" points="263.072 -290.449, 257.691 -281.128, 246.928 -281.128, 252.309 -290.449"/>
<polygon class="line_style_1 fill_style_2" points="210.0 -390.372, 217.691 -377.051, 233.072 -377.051, 225.381 -363.731, 233.072 -350.41, 217.691 -350.41, 210.0 -337.09, 202.309 -350.41, 186.928 -350.41, 194.619 -363.731, 186.928 -377.051, 202.309 -377.051"/>
<polygon class="line_style_1 fill_style_2" points="-60.0 -234.487, -52.309 -221.167, -36.928 -221.167, -44.619 -207.846, -36.928 -194.526, -52.309 -194.526, -60.0 -181.205, -67.691 -194.526, -83.072 -194.526, -75.381 -207.846, -83.072 -221.167, -67.691 -221.167"/>
<polygon class="line_style_1 fill_style_2" points="30.0 -390.372, 37.691 -377.051, 53.072 -377.051, 45.381 -363.731, 53.072 -350.41, 37.691 -350.41, 30.0 -337.09, 22.309 -350.41, 6.928 -350.41, 14.619 -363.731, 6.928 -377.051, 22.309 -377.051"/>
<polygon class="line_style_1 fill_style_2" points="30.0 -78.603, 37.691 -65.282, 53.072 -65.282, 45.381 -51.962, 53.072 -38.641, 37.691 -38.641, 30.0 -25.321, 22.309 -38.641, 6.928 -38.641, 14.619 -51.962, 6.928 -65.282, 22.309 -65.282"/>
<polygon class="line_style_1 fill_style_2" points="210.0 -78.603, 217.691 -65.282, 233.072 -65.282, 225.381 -51.962, 233.072 -38.641, 217.691 -38.641, 210.0 -25.321, 202.309 -38.641, 186.928 -38.641, 194.619 -51.962, 186.928 -65.282, 202.309 -65.282"/>
<polygon class="line_style_1 fill_style_2" points="300.0 -234.487, 307.691 -221.167, 323.072 -221.167, 315.381 -207.846, 323.072 -194.526, 307.691 -194.526, 300.0 -181.205, 292.309 -194.526, 276.928 -194.526, 284.619 -207.846, 276.928 -221.167, 292.309 -221.167"/>
<polygon class="line_style_1 fill_style_3" points="272.309 -186.526, 287.691 -186.526, 295.381 -173.205, 285.381 -155.885, 295.381 -138.564, 287.691 -125.244, 272.309 -125.244, 262.309 -142.564, 242.309 -142.564, 234.619 -155.885, 242.309 -169.205, 262.309 -169.205"/>
<polygon class="line_style_1 fill_style_3" points="-32.309 -290.449, -22.309 -273.128, -2.309 -273.128, 5.381 -259.808, -2.309 -246.487, -22.309 -246.487, -32.309 -229.167, -47.691 -229.167, -55.381 -242.487, -45.381 -259.808, -55.381 -277.128, -47.691 -290.449"/>
<polygon class="line_style_1 fill_style_3" points="2.309 -134.564, 17.691 -134.564, 25.381 -121.244, 15.381 -103.923, 25.381 -86.603, 17.691 -73.282, 2.309 -73.282, -7.691 -90.603, -27.691 -90.603, -35.381 -103.923, -27.691 -117.244, -7.691 -117.244"/>
<polygon class="line_style_1 fill_style_3" points="147.691 -394.372, 157.691 -377.051, 177.691 -377.051, 185.381 -363.731, 177.691 -350.41, 157.691 -350.41, 147.691 -333.09, 132.309 -333.09, 124.619 -346.41, 134.619 -363.731, 124.619 -381.051, 132.309 -394.372"/>
<polygon class="line_style_1 fill_style_3" points="2.309 -342.41, 17.691 -342.41, 25.381 -329.09, 15.381 -311.769, 25.381 -294.449, 17.691 -281.128, 2.309 -281.128, -7.691 -298.449, -27.691 -298.449, -35.381 -311.769, -27.691 -325.09, -7.691 -325.09"/>
<polygon class="line_style_1 fill_style_3" points="-32.309 -186.526, -22.309 -169.205, -2.309 -169.205, 5.381 -155.885, -2.309 -142.564, -22.309 -142.564, -32.309 -125.244, -47.691 -125.244, -55.381 -138.564, -45.381 -155.885, -55.381 -173.205, -47.691 -186.526"/>
<polygon class="line_style_1 fill_style_3" points="237.691 -134.564, 247.691 -117.244, 267.691 -117.244, 275.381 -103.923, 267.691 -90.603, 247.691 -90.603, 237.691 -73.282, 222.309 -73.282, 214.619 -86.603, 224.619 -103.923, 214.619 -121.244, 222.309 -134.564"/>
<polygon class="line_style_1 fill_style_3" points="92.309 -82.603, 107.691 -82.603, 115.381 -69.282, 105.381 -51.962, 115.381 -34.641, 107.691 -21.321, 92.309 -21.321, 82.309 -38.641, 62.309 -38.641, 54.619 -51.962, 62.309 -65.282, 82.309 -65.282"/>
<polygon class="line_style_1 fill_style_3" points="237.691 -342.41, 247.691 -325.09, 267.691 -325.09, 275.381 -311.769, 267.691 -298.449, 247.691 -298.449, 237.691 -281.128, 222.309 -281.128, 214.619 -294.449, 224.619 -311.769, 214.619 -329.09, 222.309 -342.41"/>
<polygon class="line_style_1 fill_style_3" points="147.691 -82.603, 157.691 -65.282, 177.691 -65.282, 185.381 -51.962, 177.691 -38.641, 157.691 -38.641, 147.691 -21.321, 132.309 -21.321, 124.619 -34.641, 134.619 -51.962, 124.619 -69.282, 132.309 -82.603"/>
<polygon class="line_style_1 fill_style_3" points="92.309 -394.372, 107.691 -394.372, 115.381 -381.051, 105.381 -363.731, 115.381 -346.41, 107.691 -333.09, 92.309 -333.09, 82.309 -350.41, 62.309 -350.41, 54.619 -363.731, 62.309 -377.051, 82.309 -377.051"/>
<polygon class="line_style_1 fill_style_3" points="272.309 -290.449, 287.691 -290.449, 295.381 -277.128, 285.381 -259.808, 295.381 -242.487, 287.691 -229.167, 272.309 -229.167, 262.309 -246.487, 242.309 -246.487, 234.619 -259.808, 242.309 -273.128, 262.309 -273.128"/>
<polygon class="line_style_1 fill_style_4" points="214.619 -433.013, 222.309 -446.333, 257.691 -446.333, 275.381 -415.692, 267.691 -402.372, 247.691 -402.372, 237.691 -385.051, 222.309 -385.051, 214.619 -398.372, 224.619 -415.692"/>
<polygon class="line_style_1 fill_style_4" points="272.309 -394.372, 287.691 -394.372, 305.381 -363.731, 287.691 -333.09, 272.309 -333.09, 262.309 -350.41, 242.309 -350.41, 234.619 -363.731, 242.309 -377.051, 262.309 -377.051"/>
<polygon class="line_style_1 fill_style_4" points="205.381 -398.372, 197.691 -385.051, 182.309 -385.051, 172.309 -402.372, 152.309 -402.372, 144.619 -415.692, 162.309 -446.333, 197.691 -446.333, 205.381 -433.013, 195.381 -415.692"/>
<polygon class="line_style_1 fill_style_4" points="-122.309 -238.487, -112.309 -221.167, -92.309 -221.167, -84.619 -207.846, -92.309 -194.526, -112.309 -194.526, -122.309 -177.205, -137.691 -177.205, -155.381 -207.846, -137.691 -238.487"/>
<polygon class="line_style_1 fill_style_4" points="182.309 -30.641, 197.691 -30.641, 205.381 -17.321, 195.381 0.0, 205.381 17.321, 197.691 30.641, 162.309 30.641, 144.619 0.0, 152.309 -13.321, 172.309 -13.321"/>
<polygon class="line_style_1 fill_style_4" points="2.309 -238.487, 17.691 -238.487, 35.381 -207.846, 17.691 -177.205, 2.309 -177.205, -7.691 -194.526, -27.691 -194.526, -35.381 -207.846, -27.691 -221.167, -7.691 -221.167"/>
<polygon class="line_style_1 fill_style_4" points="237.691 -238.487, 247.691 -221.167, 267.691 -221.167, 275.381 -207.846, 267.691 -194.526, 247.691 -194.526, 237.691 -177.205, 222.309 -177.205, 204.619 -207.846, 222.309 -238.487"/>
<polygon class="line_style_1 fill_style_4" points="-32.309 -82.603, -22.309 -65.282, -2.309 -65.282, 5.381 -51.962, -2.309 -38.641, -22.309 -38.641, -32.309 -21.321, -47.691 -21.321, -65.381 -51.962, -47.691 -82.603"/>
<polygon class="line_style_1 fill_style_4" points="-32.309 -394.372, -22.309 -377.051, -2.309 -377.051, 5.381 -363.731, -2.309 -350.41, -22.309 -350.41, -32.309 -333.09, -47.691 -333.09, -65.381 -363.731, -47.691 -394.372"/>
<polygon class="line_style_1 fill_style_4" points="25.381 -398.372, 17.691 -385.051, 2.309 -385.051, -7.691 -402.372, -27.691 -402.372, -35.381 -415.692, -17.691 -446.333, 17.691 -446.333, 25.381 -433.013, 15.381 -415.692"/>
<polygon class="line_style_1 fill_style_4" points="34.619 -121.244, 42.309 -134.564, 77.691 -134.564, 95.381 -103.923, 87.691 -90.603, 67.691 -90.603, 57.691 -73.282, 42.309 -73.282, 34.619 -86.603, 44.619 -103.923"/>
<polygon class="line_style_1 fill_style_4" points="2.309 -30.641, 17.691 -30.641, 25.381 -17.321, 15.381 0.0, 25.381 17.321, 17.691 30.641, -17.691 30.641, -35.381 0.0, -27.691 -13.321, -7.691 -13.321"/>
<polygon class="line_style_1 fill_style_4" points="182.309 -342.41, 197.691 -342.41, 205.381 -329.09, 195.381 -311.769, 205.381 -294.449, 197.691 -281.128, 162.309 -281.128, 144.619 -311.769, 152.309 -325.09, 172.309 -325.09"/>
<polygon class="line_style_1 fill_style_4" points="237.691 -30.641, 247.691 -13.321, 267.691 -13.321, 275.381 0.0, 257.691 30.641, 222.309 30.641, 214.619 17.321, 224.619 0.0, 214.619 -17.321, 222.309 -30.641"/>
<polygon class="line_style_1 fill_style_4" points="57.691 -30.641, 67.691 -13.321, 87.691 -13.321, 95.381 0.0, 77.691 30.641, 42.309 30.641, 34.619 17.321, 44.619 0.0, 34.619 -17.321, 42.309 -30.641"/>
<polygon class="line_style_1 fill_style_4" points="34.619 -433.013, 42.309 -446.333, 77.691 -446.333, 95.381 -415.692, 87.691 -402.372, 67.691 -402.372, 57.691 -385.051, 42.309 -385.051, 34.619 -398.372, 44.619 -415.692"/>
<polygon class="line_style_1 fill_style_4" points="-87.691 -186.526, -72.309 -186.526, -64.619 -173.205, -74.619 -155.885, -64.619 -138.564, -72.309 -125.244, -107.691 -125.244, -125.381 -155.885, -117.691 -169.205, -97.691 -169.205"/>
<polygon class="line_style_1 fill_style_4" points="272.309 -82.603, 287.691 -82.603, 305.381 -51.962, 287.691 -21.321, 272.309 -21.321, 262.309 -38.641, 242.309 -38.641, 234.619 -51.962, 242.309 -65.282, 262.309 -65.282"/>
<polygon class="line_style_1 fill_style_4" points="362.309 -238.487, 377.691 -238.487, 395.381 -207.846, 377.691 -177.205, 362.309 -177.205, 352.309 -194.526, 332.309 -194.526, 324.619 -207.846, 332.309 -221.167, 352.309 -221.167"/>
<polygon class="line_style_1 fill_style_4" points="327.691 -186.526, 337.691 -169.205, 357.691 -169.205, 365.381 -155.885, 347.691 -125.244, 312.309 -125.244, 304.619 -138.564, 314.619 -155.885, 304.619 -173.205, 312.309 -186.526"/>
<polygon class="line_style_1 fill_style_4" points="57.691 -342.41, 67.691 -325.09, 87.691 -325.09, 95.381 -311.769, 77.691 -281.128, 42.309 -281.128, 34.619 -294.449, 44.619 -311.769, 34.619 -329.09, 42.309 -342.41"/>
<polygon class="line_style_1 fill_style_4" points="-64.619 -242.487, -72.309 -229.167, -87.691 -229.167, -97.691 -246.487, -117.691 -246.487, -125.381 -259.808, -107.691 -290.449, -72.309 -290.449, -64.619 -277.128, -74.619 -259.808"/>
<polygon class="line_style_1 fill_style_4" points="205.381 -86.603, 197.691 -73.282, 182.309 -73.282, 172.309 -90.603, 152.309 -90.603, 144.619 -103.923, 162.309 -134.564, 197.691 -134.564, 205.381 -121.244, 195.381 -103.923"/>
<polygon class="line_style_1 fill_style_4" points="304.619 -277.128, 312.309 -290.449, 347.691 -290.449, 365.381 -259.808, 357.691 -246.487, 337.691 -246.487, 327.691 -229.167, 312.309 -229.167, 304.619 -242.487, 314.619 -259.808"/>
<polygon class="line_style_1 fill_style_5" points="120.0 -338.41, 127.691 -325.09, 143.072 -325.09, 135.381 -311.769, 157.691 -273.128, 202.309 -273.128, 210.0 -286.449, 217.691 -273.128, 233.072 -273.128, 225.381 -259.808, 233.072 -246.487, 217.691 -246.487, 195.381 -207.846, 217.691 -169.205, 233.072 -169.205, 225.381 -155.885, 233.072 -142.564, 217.691 -142.564, 210.0 -129.244, 202.309 -142.564, 157.691 -142.564, 135.381 -103.923, 143.072 -90.603, 127.691 -90.603, 120.0 -77.282, 112.309 -90.603, 96.928 -90.603, 104.619 -103.923, 82.309 -142.564, 37.691 -142.564, 30.0 -129.244, 22.309 -142.564, 6.928 -142.564, 14.619 -155.885, 6.928 -169.205, 22.309 -169.205, 44.619 -207.846, 22.309 -246.487, 6.928 -246.487, 14.619 -259.808, 6.928 -273.128, 22.309 -273.128, 30.0 -286.449, 37.691 -273.128, 82.309 -273.128, 104.619 -311.769, 96.928 -325.09, 112.309 -325.09"/>
<polygon class="line_style_1 fill_style_6" points="-22.309 -377.051, -44.619 -415.692, -22.309 -454.333, 22.309 -454.333, 30.0 -441.013, 25.381 -433.013, 17.691 -446.333, -17.691 -446.333, -35.381 -415.692, -17.691 -385.051, -6.928 -385.051, -2.309 -377.051"/>
<polygon class="line_style_1 fill_style_6" points="22.309 -377.051, 6.928 -377.051, 2.309 -385.051, 17.691 -385.051, 35.381 -415.692, 30.0 -425.013, 34.619 -433.013, 44.619 -415.692"/>
<polygon class="line_style_1 fill_style_6" points="92.309 -394.372, 82.309 -377.051, 37.691 -377.051, 30.0 -390.372, 34.619 -398.372, 42.309 -385.051, 77.691 -385.051, 83.072 -394.372"/>
<polygon class="line_style_1 fill_style_6" points="104.619 -415.692, 96.928 -402.372, 87.691 -402.372, 95.381 -415.692, 77.691 -446.333, 42.309 -446.333, 24.619 -415.692, 30.0 -406.372, 25.381 -398.372, 15.381 -415.692, 37.691 -454.333, 82.309 -454.333"/>
<polygon class="line_style_1 fill_style_6" points="157.691 -377.051, 135.381 -415.692, 157.691 -454.333, 202.309 -454.333, 210.0 -441.013, 205.381 -433.013, 197.691 -446.333, 162.309 -446.333, 144.619 -415.692, 162.309 -385.051, 173.072 -385.051, 177.691 -377.051"/>
<polygon class="line_style_1 fill_style_6" points="202.309 -377.051, 186.928 -377.051, 182.309 -385.051, 197.691 -385.051, 215.381 -415.692, 210.0 -425.013, 214.619 -433.013, 224.619 -415.692"/>
<polygon class="line_style_1 fill_style_6" points="272.309 -394.372, 262.309 -377.051, 217.691 -377.051, 210.0 -390.372, 214.619 -398.372, 222.309 -385.051, 257.691 -385.051, 263.072 -394.372"/>
<polygon class="line_style_1 fill_style_6" points="284.619 -415.692, 276.928 -402.372, 267.691 -402.372, 275.381 -415.692, 257.691 -446.333, 222.309 -446.333, 204.619 -415.692, 210.0 -406.372, 205.381 -398.372, 195.381 -415.692, 217.691 -454.333, 262.309 -454.333"/>
<polygon class="line_style_1 fill_style_6" points="2.309 -342.41, -7.691 -325.09, -52.309 -325.09, -74.619 -363.731, -52.309 -402.372, -36.928 -402.372, -32.309 -394.372, -47.691 -394.372, -65.381 -363.731, -47.691 -333.09, -12.309 -333.09, -6.928 -342.41"/>
<polygon class="line_style_1 fill_style_6" points="14.619 -363.731, 6.928 -350.41, -2.309 -350.41, 5.381 -363.731, -12.309 -394.372, -23.072 -394.372, -27.691 -402.372, -7.691 -402.372"/>
<polygon class="line_style_1 fill_style_6" points="67.691 -325.09, 45.381 -363.731, 53.072 -377.051, 62.309 -377.051, 54.619 -363.731, 72.309 -333.09, 83.072 -333.09, 87.691 -325.09"/>
<polygon class="line_style_1 fill_style_6" points="112.309 -325.09, 96.928 -325.09, 92.309 -333.09, 107.691 -333.09, 125.381 -363.731, 120.0 -373.051, 124.619 -381.051, 134.619 -363.731"/>
<polygon class="line_style_1 fill_style_6" points="112.309 -402.372, 120.0 -389.051, 115.381 -381.051, 107.691 -394.372, 72.309 -394.372, 66.928 -385.051, 57.691 -385.051, 67.691 -402.372"/>
<polygon class="line_style_1 fill_style_6" points="182.309 -342.41, 172.309 -325.09, 127.691 -325.09, 120.0 -338.41, 124.619 -346.41, 132.309 -333.09, 167.691 -333.09, 173.072 -342.41"/>
<polygon class="line_style_1 fill_style_6" points="194.619 -363.731, 186.928 -350.41, 177.691 -350.41, 185.381 -363.731, 167.691 -394.372, 156.928 -394.372, 152.309 -402.372, 172.309 -402.372"/>
<polygon class="line_style_1 fill_style_6" points="127.691 -402.372, 143.072 -402.372, 147.691 -394.372, 132.309 -394.372, 114.619 -363.731, 120.0 -354.41, 115.381 -346.41, 105.381 -363.731"/>
<polygon class="line_style_1 fill_style_6" points="247.691 -325.09, 225.381 -363.731, 233.072 -377.051, 242.309 -377.051, 234.619 -363.731, 252.309 -333.09, 263.072 -333.09, 267.691 -325.09"/>
<polygon class="line_style_1 fill_style_6" points="292.309 -325.09, 276.928 -325.09, 272.309 -333.09, 287.691 -333.09, 305.381 -363.731, 287.691 -394.372, 252.309 -394.372, 246.928 -385.051, 237.691 -385.051, 247.691 -402.372, 292.309 -402.372, 314.619 -363.731"/>
<polygon class="line_style_1 fill_style_6" points="-22.309 -273.128, -44.619 -311.769, -36.928 -325.09, -27.691 -325.09, -35.381 -311.769, -17.691 -281.128, -6.928 -281.128, -2.309 -273.128"/>
<polygon class="line_style_1 fill_style_6" points="22.309 -273.128, 6.928 -273.128, 2.309 -281.128, 17.691 -281.128, 35.381 -311.769, 30.0 -321.09, 34.619 -329.09, 44.619 -311.769"/>
<polygon class="line_style_1 fill_style_6" points="22.309 -350.41, 30.0 -337.09, 25.381 -329.09, 17.691 -342.41, -17.691 -342.41, -23.072 -333.09, -32.309 -333.09, -22.309 -350.41"/>
<polygon class="line_style_1 fill_style_6" points="104.619 -311.769, 82.309 -273.128, 37.691 -273.128, 30.0 -286.449, 34.619 -294.449, 42.309 -281.128, 77.691 -281.128, 95.381 -311.769, 77.691 -342.41, 66.928 -342.41, 62.309 -350.41, 82.309 -350.41"/>
<polygon class="line_style_1 fill_style_6" points="37.691 -350.41, 53.072 -350.41, 57.691 -342.41, 42.309 -342.41, 24.619 -311.769, 30.0 -302.449, 25.381 -294.449, 15.381 -311.769"/>
<polygon class="line_style_1 fill_style_6" points="224.619 -311.769, 202.309 -273.128, 157.691 -273.128, 135.381 -311.769, 143.072 -325.09, 152.309 -325.09, 144.619 -311.769, 162.309 -281.128, 197.691 -281.128, 215.381 -311.769, 210.0 -321.09, 214.619 -329.09"/>
<polygon class="line_style_1 fill_style_6" points="202.309 -350.41, 210.0 -337.09, 205.381 -329.09, 197.691 -342.41, 162.309 -342.41, 156.928 -333.09, 147.691 -333.09, 157.691 -350.41"/>
<polygon class="line_style_1 fill_style_6" points="272.309 -290.449, 262.309 -273.128, 217.691 -273.128, 210.0 -286.449, 214.619 -294.449, 222.309 -281.128, 257.691 -281.128, 263.072 -290.449"/>
<polygon class="line_style_1 fill_style_6" points="284.619 -311.769, 276.928 -298.449, 267.691 -298.449, 275.381 -311.769, 257.691 -342.41, 246.928 -342.41, 242.309 -350.41, 262.309 -350.41"/>
<polygon class="line_style_1 fill_style_6" points="217.691 -350.41, 233.072 -350.41, 237.691 -342.41, 222.309 -342.41, 204.619 -311.769, 210.0 -302.449, 205.381 -294.449, 195.381 -311.769"/>
<polygon class="line_style_1 fill_style_6" points="-112.309 -221.167, -134.619 -259.808, -112.309 -298.449, -67.691 -298.449, -60.0 -285.128, -64.619 -277.128, -72.309 -290.449, -107.691 -290.449, -125.381 -259.808, -107.691 -229.167, -96.928 -229.167, -92.309 -221.167"/>
<polygon class="line_style_1 fill_style_6" points="-67.691 -221.167, -83.072 -221.167, -87.691 -229.167, -72.309 -229.167, -54.619 -259.808, -60.0 -269.128, -55.381 -277.128, -45.381 -259.808"/>
<polygon class="line_style_1 fill_style_6" points="2.309 -238.487, -7.691 -221.167, -52.309 -221.167, -60.0 -234.487, -55.381 -242.487, -47.691 -229.167, -12.309 -229.167, -6.928 -238.487"/>
<polygon class="line_style_1 fill_style_6" points="14.619 -259.808, 6.928 -246.487, -2.309 -246.487, 5.381 -259.808, -12.309 -290.449, -23.072 -290.449, -27.691 -298.449, -7.691 -298.449"/>
<polygon class="line_style_1 fill_style_6" points="-52.309 -298.449, -36.928 -298.449, -32.309 -290.449, -47.691 -290.449, -65.381 -259.808, -60.0 -250.487, -64.619 -242.487, -74.619 -259.808"/>
<polygon class="line_style_1 fill_style_6" points="247.691 -221.167, 225.381 -259.808, 233.072 -273.128, 242.309 -273.128, 234.619 -259.808, 252.309 -229.167, 263.072 -229.167, 267.691 -221.167"/>
<polygon class="line_style_1 fill_style_6" points="292.309 -221.167, 276.928 -221.167, 272.309 -229.167, 287.691 -229.167, 305.381 -259.808, 300.0 -269.128, 304.619 -277.128, 314.619 -259.808"/>
<polygon class="line_style_1 fill_style_6" points="292.309 -298.449, 300.0 -285.128, 295.381 -277.128, 287.691 -290.449, 252.309 -290.449, 246.928 -281.128, 237.691 -281.128, 247.691 -298.449"/>
<polygon class="line_style_1 fill_style_6" points="362.309 -238.487, 352.309 -221.167, 307.691 -221.167, 300.0 -234.487, 304.619 -242.487, 312.309 -229.167, 347.691 -229.167, 353.072 -238.487"/>
<polygon class="line_style_1 fill_style_6" points="374.619 -259.808, 366.928 -246.487, 357.691 -246.487, 365.381 -259.808, 347.691 -290.449, 312.309 -290.449, 294.619 -259.808, 300.0 -250.487, 295.381 -242.487, 285.381 -259.808, 307.691 -298.449, 352.309 -298.449"/>
<polygon class="line_style_1 fill_style_6" points="-87.691 -186.526, -97.691 -169.205, -142.309 -169.205, -164.619 -207.846, -142.309 -246.487, -126.928 -246.487, -122.309 -238.487, -137.691 -238.487, -155.381 -207.846, -137.691 -177.205, -102.309 -177.205, -96.928 -186.526"/>
<polygon class="line_style_1 fill_style_6" points="-75.381 -207.846, -83.072 -194.526, -92.309 -194.526, -84.619 -207.846, -102.309 -238.487, -113.072 -238.487, -117.691 -246.487, -97.691 -246.487"/>
<polygon class="line_style_1 fill_style_6" points="-22.309 -169.205, -44.619 -207.846, -36.928 -221.167, -27.691 -221.167, -35.381 -207.846, -17.691 -177.205, -6.928 -177.205, -2.309 -169.205"/>
<polygon class="line_style_1 fill_style_6" points="22.309 -169.205, 6.928 -169.205, 2.309 -177.205, 17.691 -177.205, 35.381 -207.846, 17.691 -238.487, -17.691 -238.487, -23.072 -229.167, -32.309 -229.167, -22.309 -246.487, 22.309 -246.487, 44.619 -207.846"/>
<polygon class="line_style_1 fill_style_6" points="272.309 -186.526, 262.309 -169.205, 217.691 -169.205, 195.381 -207.846, 217.691 -246.487, 233.072 -246.487, 237.691 -238.487, 222.309 -238.487, 204.619 -207.846, 222.309 -177.205, 257.691 -177.205, 263.072 -186.526"/>
<polygon class="line_style_1 fill_style_6" points="284.619 -207.846, 276.928 -194.526, 267.691 -194.526, 275.381 -207.846, 257.691 -238.487, 246.928 -238.487, 242.309 -246.487, 262.309 -246.487"/>
<polygon class="line_style_1 fill_style_6" points="337.691 -169.205, 315.381 -207.846, 323.072 -221.167, 332.309 -221.167, 324.619 -207.846, 342.309 -177.205, 353.072 -177.205, 357.691 -169.205"/>
<polygon class="line_style_1 fill_style_6" points="382.309 -169.205, 366.928 -169.205, 362.309 -177.205, 377.691 -177.205, 395.381 -207.846, 377.691 -238.487, 342.309 -238.487, 336.928 -229.167, 327.691 -229.167, 337.691 -246.487, 382.309 -246.487, 404.619 -207.846"/>
<polygon class="line_style_1 fill_style_6" points="-45.381 -155.885, -67.691 -117.244, -112.309 -117.244, -134.619 -155.885, -126.928 -169.205, -117.691 -169.205, -125.381 -155.885, -107.691 -125.244, -72.309 -125.244, -54.619 -155.885, -60.0 -165.205, -55.381 -173.205"/>
<polygon class="line_style_1 fill_style_6" points="-67.691 -194.526, -60.0 -181.205, -64.619 -173.205, -72.309 -186.526, -107.691 -186.526, -113.072 -177.205, -122.309 -177.205, -112.309 -194.526"/>
<polygon class="line_style_1 fill_style_6" points="2.309 -134.564, -7.691 -117.244, -52.309 -117.244, -60.0 -130.564, -55.381 -138.564, -47.691 -125.244, -12.309 -125.244, -6.928 -134.564"/>
<polygon class="line_style_1 fill_style_6" points="14.619 -155.885, 6.928 -142.564, -2.309 -142.564, 5.381 -155.885, -12.309 -186.526, -23.072 -186.526, -27.691 -194.526, -7.691 -194.526"/>
<polygon class="line_style_1 fill_style_6" points="-52.309 -194.526, -36.928 -194.526, -32.309 -186.526, -47.691 -186.526, -65.381 -155.885, -60.0 -146.564, -64.619 -138.564, -74.619 -155.885"/>
<polygon class="line_style_1 fill_style_6" points="247.691 -117.244, 225.381 -155.885, 233.072 -169.205, 242.309 -169.205, 234.619 -155.885, 252.309 -125.244, 263.072 -125.244, 267.691 -117.244"/>
<polygon class="line_style_1 fill_style_6" points="292.309 -117.244, 276.928 -117.244, 272.309 -125.244, 287.691 -125.244, 305.381 -155.885, 300.0 -165.205, 304.619 -173.205, 314.619 -155.885"/>
<polygon class="line_style_1 fill_style_6" points="292.309 -194.526, 300.0 -181.205, 295.381 -173.205, 287.691 -186.526, 252.309 -186.526, 246.928 -177.205, 237.691 -177.205, 247.691 -194.526"/>
<polygon class="line_style_1 fill_style_6" points="374.619 -155.885, 352.309 -117.244, 307.691 -117.244, 300.0 -130.564, 304.619 -138.564, 312.309 -125.244, 347.691 -125.244, 365.381 -155.885, 347.691 -186.526, 336.928 -186.526, 332.309 -194.526, 352.309 -194.526"/>
<polygon class="line_style_1 fill_style_6" points="307.691 -194.526, 323.072 -194.526, 327.691 -186.526, 312.309 -186.526, 294.619 -155.885, 300.0 -146.564, 295.381 -138.564, 285.381 -155.885"/>
<polygon class="line_style_1 fill_style_6" points="-22.309 -65.282, -44.619 -103.923, -36.928 -117.244, -27.691 -117.244, -35.381 -103.923, -17.691 -73.282, -6.928 -73.282, -2.309 -65.282"/>
<polygon class="line_style_1 fill_style_6" points="22.309 -65.282, 6.928 -65.282, 2.309 -73.282, 17.691 -73.282, 35.381 -103.923, 30.0 -113.244, 34.619 -121.244, 44.619 -103.923"/>
<polygon class="line_style_1 fill_style_6" points="22.309 -142.564, 30.0 -129.244, 25.381 -121.244, 17.691 -134.564, -17.691 -134.564, -23.072 -125.244, -32.309 -125.244, -22.309 -142.564"/>
<polygon class="line_style_1 fill_style_6" points="92.309 -82.603, 82.309 -65.282, 37.691 -65.282, 30.0 -78.603, 34.619 -86.603, 42.309 -73.282, 77.691 -73.282, 83.072 -82.603"/>
<polygon class="line_style_1 fill_style_6" points="104.619 -103.923, 96.928 -90.603, 87.691 -90.603, 95.381 -103.923, 77.691 -134.564, 42.309 -134.564, 24.619 -103.923, 30.0 -94.603, 25.381 -86.603, 15.381 -103.923, 37.691 -142.564, 82.309 -142.564"/>
<polygon class="line_style_1 fill_style_6" points="157.691 -65.282, 135.381 -103.923, 157.691 -142.564, 202.309 -142.564, 210.0 -129.244, 205.381 -121.244, 197.691 -134.564, 162.309 -134.564, 144.619 -103.923, 162.309 -73.282, 173.072 -73.282, 177.691 -65.282"/>
<polygon class="line_style_1 fill_style_6" points="202.309 -65.282, 186.928 -65.282, 182.309 -73.282, 197.691 -73.282, 215.381 -103.923, 210.0 -113.244, 214.619 -121.244, 224.619 -103.923"/>
<polygon class="line_style_1 fill_style_6" points="272.309 -82.603, 262.309 -65.282, 217.691 -65.282, 210.0 -78.603, 214.619 -86.603, 222.309 -73.282, 257.691 -73.282, 263.072 -82.603"/>
<polygon class="line_style_1 fill_style_6" points="284.619 -103.923, 276.928 -90.603, 267.691 -90.603, 275.381 -103.923, 257.691 -134.564, 246.928 -134.564, 242.309 -142.564, 262.309 -142.564"/>
<polygon class="line_style_1 fill_style_6" points="217.691 -142.564, 233.072 -142.564, 237.691 -134.564, 222.309 -134.564, 204.619 -103.923, 210.0 -94.603, 205.381 -86.603, 195.381 -103.923"/>
<polygon class="line_style_1 fill_style_6" points="2.309 -30.641, -7.691 -13.321, -52.309 -13.321, -74.619 -51.962, -52.309 -90.603, -36.928 -90.603, -32.309 -82.603, -47.691 -82.603, -65.381 -51.962, -47.691 -21.321, -12.309 -21.321, -6.928 -30.641"/>
<polygon class="line_style_1 fill_style_6" points="14.619 -51.962, 6.928 -38.641, -2.309 -38.641, 5.381 -51.962, -12.309 -82.603, -23.072 -82.603, -27.691 -90.603, -7.691 -90.603"/>
<polygon class="line_style_1 fill_style_6" points="67.691 -13.321, 45.381 -51.962, 53.072 -65.282, 62.309 -65.282, 54.619 -51.962, 72.309 -21.321, 83.072 -21.321, 87.691 -13.321"/>
<polygon class="line_style_1 fill_style_6" points="112.309 -13.321, 96.928 -13.321, 92.309 -21.321, 107.691 -21.321, 125.381 -51.962, 120.0 -61.282, 124.619 -69.282, 134.619 -51.962"/>
<polygon class="line_style_1 fill_style_6" points="112.309 -90.603, 120.0 -77.282, 115.381 -69.282, 107.691 -82.603, 72.309 -82.603, 66.928 -73.282, 57.691 -73.282, 67.691 -90.603"/>
<polygon class="line_style_1 fill_style_6" points="182.309 -30.641, 172.309 -13.321, 127.691 -13.321, 120.0 -26.641, 124.619 -34.641, 132.309 -21.321, 167.691 -21.321, 173.072 -30.641"/>
<polygon class="line_style_1 fill_style_6" points="194.619 -51.962, 186.928 -38.641, 177.691 -38.641, 185.381 -51.962, 167.691 -82.603, 156.928 -82.603, 152.309 -90.603, 172.309 -90.603"/>
<polygon class="line_style_1 fill_style_6" points="127.691 -90.603, 143.072 -90.603, 147.691 -82.603, 132.309 -82.603, 114.619 -51.962, 120.0 -42.641, 115.381 -34.641, 105.381 -51.962"/>
<polygon class="line_style_1 fill_style_6" points="247.691 -13.321, 225.381 -51.962, 233.072 -65.282, 242.309 -65.282, 234.619 -51.962, 252.309 -21.321, 263.072 -21.321, 267.691 -13.321"/>
<polygon class="line_style_1 fill_style_6" points="292.309 -13.321, 276.928 -13.321, 272.309 -21.321, 287.691 -21.321, 305.381 -51.962, 287.691 -82.603, 252.309 -82.603, 246.928 -73.282, 237.691 -73.282, 247.691 -90.603, 292.309 -90.603, 314.619 -51.962"/>
<polygon class="line_style_1 fill_style_6" points="44.619 0.0, 22.309 38.641, -22.309 38.641, -44.619 0.0, -36.928 -13.321, -27.691 -13.321, -35.381 0.0, -17.691 30.641, 17.691 30.641, 35.381 0.0, 30.0 -9.321, 34.619 -17.321"/>
<polygon class="line_style_1 fill_style_6" points="22.309 -38.641, 30.0 -25.321, 25.381 -17.321, 17.691 -30.641, -17.691 -30.641, -23.072 -21.321, -32.309 -21.321, -22.309 -38.641"/>
<polygon class="line_style_1 fill_style_6" points="104.619 0.0, 82.309 38.641, 37.691 38.641, 30.0 25.321, 34.619 17.321, 42.309 30.641, 77.691 30.641, 95.381 0.0, 77.691 -30.641, 66.928 -30.641, 62.309 -38.641, 82.309 -38.641"/>
<polygon class="line_style_1 fill_style_6" points="37.691 -38.641, 53.072 -38.641, 57.691 -30.641, 42.309 -30.641, 24.619 0.0, 30.0 9.321, 25.381 17.321, 15.381 0.0"/>
<polygon class="line_style_1 fill_style_6" points="224.619 0.0, 202.309 38.641, 157.691 38.641, 135.381 0.0, 143.072 -13.321, 152.309 -13.321, 144.619 0.0, 162.309 30.641, 197.691 30.641, 215.381 0.0, 210.0 -9.321, 214.619 -17.321"/>
<polygon class="line_style_1 fill_style_6" points="202.309 -38.641, 210.0 -25.321, 205.381 -17.321, 197.691 -30.641, 162.309 -30.641, 156.928 -21.321, 147.691 -21.321, 157.691 -38.641"/>
<polygon class="line_style_1 fill_style_6" points="284.619 0.0, 262.309 38.641, 217.691 38.641, 210.0 25.321, 214.619 17.321, 222.309 30.641, 257.691 30.641, 275.381 0.0, 257.691 -30.641, 246.928 -30.641, 242.309 -38.641, 262.309 -38.641"/>
<polygon class="line_style_1 fill_style_6" points="217.691 -38.641, 233.072 -38.641, 237.691 -30.641, 222.309 -30.641, 204.619 0.0, 210.0 9.321, 205.381 17.321, 195.381 0.0"/>
   </g>
</svg>